<?xml version="1.0" encoding="UTF-8" standalone="no"?>
<svg
   xmlns:dc="http://purl.org/dc/elements/1.1/"
   xmlns:cc="http://creativecommons.org/ns#"
   xmlns:rdf="http://www.w3.org/1999/02/22-rdf-syntax-ns#"
   xmlns:svg="http://www.w3.org/2000/svg"
   xmlns="http://www.w3.org/2000/svg"
   xmlns:sodipodi="http://sodipodi.sourceforge.net/DTD/sodipodi-0.dtd"
   xmlns:inkscape="http://www.inkscape.org/namespaces/inkscape"
   width="134.80042mm"
   height="50.198204mm"
   viewBox="0 0 134.80042 50.198204"
   version="1.1"
   id="svg1877"
   inkscape:version="1.0.1 (1.0.1+r74)"
   sodipodi:docname="chetou-hamza.svg">
  <defs
     id="defs1871" />
  <sodipodi:namedview
     id="base"
     pagecolor="#ffffff"
     bordercolor="#666666"
     borderopacity="1.0"
     inkscape:pageopacity="0.0"
     inkscape:pageshadow="2"
     inkscape:zoom="0.98994949"
     inkscape:cx="370.03801"
     inkscape:cy="100.4164"
     inkscape:document-units="mm"
     inkscape:current-layer="layer1"
     inkscape:document-rotation="0"
     showgrid="false"
     inkscape:window-width="1280"
     inkscape:window-height="771"
     inkscape:window-x="0"
     inkscape:window-y="0"
     inkscape:window-maximized="1">
    <inkscape:grid
       type="xygrid"
       id="grid1917"
       originx="-38.1739"
       originy="-112.48902" />
  </sodipodi:namedview>
  <metadata
     id="metadata1874">
    <rdf:RDF>
      <cc:Work
         rdf:about="">
        <dc:format>image/svg+xml</dc:format>
        <dc:type
           rdf:resource="http://purl.org/dc/dcmitype/StillImage" />
        <dc:title></dc:title>
      </cc:Work>
    </rdf:RDF>
  </metadata>
  <g
     inkscape:label="Layer 1"
     inkscape:groupmode="layer"
     id="layer1"
     transform="translate(-38.173898,-112.48902)">
    <g
       id="g2517">
      <path
         id="path1810"
         style="fill:#684656;fill-opacity:1;stroke:none;stroke-width:0.999999px;stroke-linecap:butt;stroke-linejoin:miter;stroke-opacity:1"
         d="m 177.01172,425.90625 -32.73242,56.4668 v 56.91797 h 65.46289 15.10156 l -8.55469,11.33789 v 64.25195 h 72.00977 l 45.96094,-25.10352 -15.29688,25.10352 h 250.82813 l 41.2207,-34.97461 v -47.91016 l 42,-36.08984 -28,-14 v -25.24023 l 13.51562,-8.38477 14.48438,-8.375 -28,0.004 v -0.004 l -14,-14 -14.02149,8.14453 -13.97851,-8.14453 -27.97461,16.07617 -14.02539,-16.07617 -25.48633,14.02344 -2.51367,-0.0234 -28,-14 -23.98828,13.77148 -31.46485,0.0918 0.19922,17.85352 -0.71289,0.41015 -22.91211,-32.12695 h -19.12109 l -14.27344,8.33398 -55.72656,-8.33398 -17.10742,10.48047 -10.89258,-10.48047 -29.40625,17.45117 -12.59375,-17.45117 -15.25586,8.92969 z"
         transform="scale(0.26458333)" />
      <g
         id="g2493"
         style="stroke:#684656;stroke-width:0.396875;stroke-miterlimit:4;stroke-dasharray:none;stroke-opacity:1">
        <path
           id="path16"
           style="fill:#ffffff;stroke:#684656;stroke-width:0.396875;stroke-linecap:butt;stroke-linejoin:miter;stroke-miterlimit:4;stroke-dasharray:none;stroke-opacity:1"
           d="m 46.834209,112.68746 v 3.70417 3.70416 3.70417 3.70417 3.70416 h 3.704166 3.704167 3.704167 3.704167 v -3.70416 h -3.704167 -3.704167 -3.704167 v -3.70417 -3.70417 -3.70416 h 3.704167 3.704167 3.704167 v -3.70417 h -3.704167 -3.704167 -3.704167 z" />
        <path
           id="path16-93"
           style="fill:#ffffff;stroke:#684656;stroke-width:0.396875;stroke-linecap:butt;stroke-linejoin:miter;stroke-miterlimit:4;stroke-dasharray:none;stroke-opacity:1"
           d="m 65.355042,112.68746 v 3.70417 3.70416 3.70417 3.70417 3.70416 h 3.704167 v -3.70416 -3.70417 h 3.704167 3.704166 v 3.70417 3.70416 h 3.704167 v -3.70416 -3.70417 -3.70417 -3.70416 -3.70417 h -3.704167 v 3.70417 3.70416 h -3.704166 -3.704167 v -3.70416 -3.70417 z" />
        <path
           id="path16-12"
           style="fill:#ffffff;stroke:#684656;stroke-width:0.396875;stroke-linecap:butt;stroke-linejoin:miter;stroke-miterlimit:4;stroke-dasharray:none;stroke-opacity:1"
           d="m 83.875876,112.68746 v 3.70417 3.70416 3.70417 3.70417 3.70416 h 3.704166 3.704167 3.704167 3.704166 v -3.70416 h -3.704166 -3.704167 -3.704167 v -3.70417 h 3.704167 3.704167 v -3.70417 h -3.704167 -3.704167 v -3.70416 h 3.704167 3.704167 3.704166 v -3.70417 h -3.704166 -3.704167 -3.704167 z" />
        <path
           id="path16-56"
           style="fill:#ffffff;stroke:#684656;stroke-width:0.396875;stroke-linecap:butt;stroke-linejoin:miter;stroke-miterlimit:4;stroke-dasharray:none;stroke-opacity:1"
           d="m 102.39671,112.68746 v 3.70417 h 3.70417 3.70416 v 3.70416 3.70417 3.70417 3.70416 h 3.70417 v -3.70416 -3.70417 -3.70417 -3.70416 h 3.70417 3.70417 v -3.70417 h -3.70417 -3.70417 -3.70417 -3.70416 z" />
        <path
           id="path16-31"
           style="fill:#ffffff;stroke:#684656;stroke-width:0.396875;stroke-linecap:butt;stroke-linejoin:miter;stroke-miterlimit:4;stroke-dasharray:none;stroke-opacity:1"
           d="m 128.32588,112.68746 v 3.70417 h 3.70417 3.70416 v -3.70417 h -3.70416 z m 7.40833,3.70417 v 3.70416 3.70417 3.70417 h 3.70417 v -3.70417 -3.70417 -3.70416 z m 0,11.1125 h -3.70416 -3.70417 v 3.70416 h 3.70417 3.70416 z m -7.40833,0 v -3.70417 -3.70417 -3.70416 h -3.70417 v 3.70416 3.70417 3.70417 z" />
        <path
           id="path16-22"
           style="fill:#ffffff;stroke:#684656;stroke-width:0.396875;stroke-linecap:butt;stroke-linejoin:miter;stroke-miterlimit:4;stroke-dasharray:none;stroke-opacity:1"
           d="m 143.14255,112.68746 v 3.70417 3.70416 3.70417 3.70417 h 3.70416 v -3.70417 -3.70417 -3.70416 -3.70417 z m 3.70416,14.81667 v 3.70416 h 3.70417 3.70417 v -3.70416 h -3.70417 z m 7.40834,0 h 3.70416 v -3.70417 -3.70417 -3.70416 -3.70417 h -3.70416 v 3.70417 3.70416 3.70417 z" />
        <path
           id="path16-73"
           style="fill:#ffffff;stroke:#684656;stroke-width:0.396875;stroke-linecap:butt;stroke-linejoin:miter;stroke-miterlimit:4;stroke-dasharray:none;stroke-opacity:1"
           d="m 161.66338,112.68746 v 3.70417 h 3.70417 v 3.70416 3.70417 3.70417 h -3.70417 v 3.70416 h 3.70417 3.70416 3.70417 v -3.70416 h -3.70417 v -3.70417 -3.70417 -3.70416 h 3.70417 v -3.70417 h -3.70417 -3.70416 z" />
      </g>
      <g
         id="g2500"
         style="stroke:#684656;stroke-opacity:1">
        <path
           id="path505"
           style="fill:#ffffff;stroke:#684656;stroke-width:0.396875;stroke-linecap:butt;stroke-linejoin:miter;stroke-miterlimit:4;stroke-dasharray:none;stroke-opacity:1"
           d="m 65.355042,134.91246 v 3.70417 3.70416 3.70417 3.70417 3.70416 h 3.704167 v -3.70416 -3.70417 h 3.704167 3.704166 v 3.70417 3.70416 h 3.704167 v -3.70416 -3.70417 -3.70417 -3.70416 -3.70417 h -3.704167 v 3.70417 3.70416 h -3.704166 -3.704167 v -3.70416 -3.70417 z" />
        <path
           id="path16-638"
           style="fill:#ffffff;stroke:#684656;stroke-width:0.396875;stroke-linecap:butt;stroke-linejoin:miter;stroke-miterlimit:4;stroke-dasharray:none;stroke-opacity:1"
           d="m 83.875876,134.91246 v 3.70417 3.70416 3.70417 3.70417 3.70416 h 3.704166 v -3.70416 -3.70417 h 3.704167 3.704167 v 3.70417 3.70416 h 3.704166 v -3.70416 -3.70417 -3.70417 -3.70416 -3.70417 h -3.704166 -3.704167 -3.704167 z m 3.704166,3.70417 h 3.704167 3.704167 v 3.70416 h -3.704167 -3.704167 z" />
        <path
           id="path16-38"
           style="fill:#ffffff;stroke:#684656;stroke-width:0.396875;stroke-linecap:butt;stroke-linejoin:miter;stroke-miterlimit:4;stroke-dasharray:none;stroke-opacity:1"
           d="m 102.39671,134.91246 v 3.70417 3.70416 3.70417 3.70417 3.70416 h 3.70417 v -3.70416 -3.70417 -3.70417 -3.70416 h 3.70416 v 3.70416 3.70417 3.70417 3.70416 h 3.70417 v -3.70416 -3.70417 -3.70417 -3.70416 h 3.70417 v 3.70416 3.70417 3.70417 3.70416 h 3.70417 v -3.70416 -3.70417 -3.70417 -3.70416 -3.70417 h -3.70417 -3.70417 -3.70417 -3.70416 z" />
        <path
           id="path16-128"
           style="fill:#ffffff;stroke:#684656;stroke-width:0.396875;stroke-linecap:butt;stroke-linejoin:miter;stroke-miterlimit:4;stroke-dasharray:none;stroke-opacity:1"
           d="m 124.62171,134.91246 v 3.70417 h 3.70417 3.70417 3.70416 v 3.70416 h 3.70417 v -3.70416 h 3.70417 v -3.70417 h -3.70417 -3.70417 -3.70416 -3.70417 z m 11.1125,7.40833 h -3.70416 v 3.70417 h 3.70416 z m -3.70416,3.70417 h -3.70417 v 3.70417 h -3.70417 v 3.70416 h 3.70417 3.70417 3.70416 3.70417 3.70417 v -3.70416 h -3.70417 -3.70417 -3.70416 z" />
        <path
           id="path16-311"
           style="fill:#ffffff;stroke:#684656;stroke-width:0.264583;stroke-linecap:butt;stroke-linejoin:miter;stroke-miterlimit:4;stroke-dasharray:none;stroke-opacity:1"
           d="m 146.84671,134.91246 v 3.70417 3.70416 3.70417 3.70417 3.70416 h 3.70417 v -3.70416 -3.70417 h 3.70417 3.70416 v 3.70417 3.70416 h 3.70417 v -3.70416 -3.70417 -3.70417 -3.70416 -3.70417 h -3.70417 -3.70416 -3.70417 z m 3.70417,3.70417 h 3.70417 3.70416 v 3.70416 h -3.70416 -3.70417 z" />
      </g>
    </g>
  </g>
</svg>
