<?xml version="1.0" encoding="UTF-8" standalone="no"?>
<svg
   xmlns:dc="http://purl.org/dc/elements/1.1/"
   xmlns:cc="http://creativecommons.org/ns#"
   xmlns:rdf="http://www.w3.org/1999/02/22-rdf-syntax-ns#"
   xmlns:svg="http://www.w3.org/2000/svg"
   xmlns="http://www.w3.org/2000/svg"
   xmlns:sodipodi="http://sodipodi.sourceforge.net/DTD/sodipodi-0.dtd"
   xmlns:inkscape="http://www.inkscape.org/namespaces/inkscape"
   height="98.476517"
   width="100.99998"
   viewBox="-74.4 -120.90175 54.270654 89.294873"
   version="1.1"
   id="svg4"
   sodipodi:docname="GitHub.svg"
   inkscape:version="1.0.1 (1.0.1+r74)">
  <metadata
     id="metadata10">
    <rdf:RDF>
      <cc:Work
         rdf:about="">
        <dc:format>image/svg+xml</dc:format>
        <dc:type
           rdf:resource="http://purl.org/dc/dcmitype/StillImage" />
      </cc:Work>
    </rdf:RDF>
  </metadata>
  <defs
     id="defs8" />
  <sodipodi:namedview
     pagecolor="#ffffff"
     bordercolor="#666666"
     borderopacity="1"
     objecttolerance="10"
     gridtolerance="10"
     guidetolerance="10"
     inkscape:pageopacity="0"
     inkscape:pageshadow="2"
     inkscape:window-width="1280"
     inkscape:window-height="771"
     id="namedview6"
     showgrid="false"
     inkscape:zoom="0.295"
     inkscape:cx="-120.39155"
     inkscape:cy="266.66715"
     inkscape:window-x="0"
     inkscape:window-y="0"
     inkscape:window-maximized="1"
     inkscape:current-layer="svg4"
     inkscape:document-rotation="0" />
  <path
     d="m -62.42388,-49.001649 c 0,0.369287 -0.42468,0.664716 -0.96014,0.664716 -0.60932,0.05539 -1.034,-0.240037 -1.034,-0.664716 0,-0.369287 0.42468,-0.664716 0.96014,-0.664716 0.55393,-0.05539 1.034,0.240036 1.034,0.664716 z m -5.7424,-0.830895 c -0.12925,0.369287 0.24003,0.793966 0.79396,0.904752 0.48008,0.184644 1.03401,0 1.14479,-0.369286 0.11079,-0.369287 -0.24003,-0.793967 -0.79396,-0.960146 -0.48008,-0.12925 -1.01554,0.05539 -1.14479,0.42468 z m 8.16123,-0.313894 c -0.53547,0.129251 -0.90475,0.480073 -0.84936,0.904753 0.0554,0.369286 0.53547,0.609323 1.0894,0.480072 0.53546,-0.12925 0.90475,-0.480072 0.84936,-0.849359 -0.0554,-0.350822 -0.55393,-0.590859 -1.0894,-0.535466 z m 12.14953,-70.755312 c -25.61003,0 -45.20068,19.44294 -45.20068,45.052965 0,20.476942 12.8881,37.999591 31.29704,44.166677 2.36343,0.42468 3.19433,-1.034002 3.19433,-2.234184 0,-1.144788 -0.0554,-7.459589 -0.0554,-11.337098 0,0 -12.92504,2.769649 -15.63929,-5.50237 0,0 -2.10494,-5.37312 -5.13309,-6.757945 0,0 -4.22833,-2.8989 0.29543,-2.843507 0,0 4.59762,0.369287 7.12724,4.763797 4.04368,7.127231 10.82009,5.077691 13.46049,3.859045 0.42468,-2.954293 1.62486,-5.003833 2.95429,-6.222479 -10.32156,-1.144789 -20.73544,-2.640399 -20.73544,-20.403085 0,-5.07769 1.40329,-7.625768 4.35758,-10.87549 -0.48007,-1.200182 -2.04954,-6.148622 0.48008,-12.537276 3.85904,-1.20019 12.74038,4.985365 12.74038,4.985365 3.69287,-1.034003 7.6627,-1.569468 11.5956,-1.569468 3.9329,0 7.90274,0.535465 11.5956,1.569468 0,0 8.88134,-6.204015 12.74039,-4.985365 2.52961,6.407118 0.96015,11.337094 0.48007,12.537276 2.9543,3.268186 4.763801,5.816264 4.763801,10.87549 0,17.818079 -10.875491,19.239832 -21.197051,20.403085 1.69872,1.458682 3.13893,4.228331 3.13893,8.567449 0,6.222479 -0.0554,13.922105 -0.0554,15.43618 0,1.200181 0.84936,2.658863 3.19433,2.234184 18.46433,-6.130158 30.9831461,-23.652807 30.9831461,-44.129749 0,-25.610025 -20.7723661,-45.052965 -46.3823961,-45.052965 z m -27.25335,63.683474 c -0.24004,0.184643 -0.18464,0.609323 0.12925,0.960145 0.29543,0.29543 0.72011,0.42468 0.96014,0.184644 0.24004,-0.184644 0.18465,-0.609323 -0.12925,-0.960146 -0.29543,-0.295429 -0.7201,-0.424679 -0.96014,-0.184643 z m -1.99415,-1.495611 c -0.12925,0.240037 0.0554,0.535466 0.42468,0.720109 0.29543,0.184644 0.66472,0.129251 0.79397,-0.12925 0.12925,-0.240036 -0.0554,-0.535466 -0.42468,-0.720109 -0.36929,-0.110786 -0.66472,-0.05539 -0.79397,0.12925 z m 5.98244,6.573302 c -0.29543,0.240036 -0.18464,0.793966 0.24004,1.144788 0.42468,0.42468 0.96015,0.480073 1.20018,0.184644 0.24004,-0.240037 0.12925,-0.793967 -0.24003,-1.144789 -0.40622,-0.424679 -0.96015,-0.480072 -1.20019,-0.184643 z m -2.10493,-2.714257 c -0.29543,0.184644 -0.29543,0.664716 0,1.089396 0.29543,0.424679 0.79397,0.609323 1.034,0.424679 0.29543,-0.240036 0.29543,-0.720109 0,-1.144788 -0.2585,-0.42468 -0.73857,-0.609323 -1.034,-0.369287 z"
     id="path2"
     inkscape:connector-curvature="0"
     style="stroke-width:0.184643" />
</svg>
