<?xml version="1.0" encoding="UTF-8" standalone="no"?>
<!-- Created with Inkscape (http://www.inkscape.org/) -->

<svg
   xmlns:dc="http://purl.org/dc/elements/1.1/"
   xmlns:cc="http://creativecommons.org/ns#"
   xmlns:rdf="http://www.w3.org/1999/02/22-rdf-syntax-ns#"
   xmlns:svg="http://www.w3.org/2000/svg"
   xmlns="http://www.w3.org/2000/svg"
   xmlns:sodipodi="http://sodipodi.sourceforge.net/DTD/sodipodi-0.dtd"
   xmlns:inkscape="http://www.inkscape.org/namespaces/inkscape"
   width="290.11874"
   height="389.5174"
   viewBox="0 0 290.11874 389.5174"
   version="1.1"
   id="SVGRoot"
   inkscape:version="0.92.5 (2060ec1f9f, 2020-04-08)"
   sodipodi:docname="jarBody_unfinished.svg"
   style="enable-background:new">
  <defs
     id="defs7150">
    <inkscape:path-effect
       effect="bspline"
       id="path-effect1403"
       is_visible="true"
       weight="33.333333"
       steps="2"
       helper_size="0"
       apply_no_weight="true"
       apply_with_weight="true"
       only_selected="false" />
    <inkscape:path-effect
       effect="bspline"
       id="path-effect825"
       is_visible="true"
       weight="33.333333"
       steps="2"
       helper_size="0"
       apply_no_weight="true"
       apply_with_weight="true"
       only_selected="false" />
    <inkscape:path-effect
       effect="bspline"
       id="path-effect839"
       is_visible="true"
       weight="33.333333"
       steps="2"
       helper_size="0"
       apply_no_weight="true"
       apply_with_weight="true"
       only_selected="false" />
    <inkscape:path-effect
       effect="bspline"
       id="path-effect853"
       is_visible="true"
       weight="33.333333"
       steps="2"
       helper_size="0"
       apply_no_weight="true"
       apply_with_weight="true"
       only_selected="false" />
    <inkscape:path-effect
       effect="bspline"
       id="path-effect839-3"
       is_visible="true"
       weight="33.333333"
       steps="2"
       helper_size="0"
       apply_no_weight="true"
       apply_with_weight="true"
       only_selected="false" />
    <inkscape:path-effect
       effect="bspline"
       id="path-effect825-3"
       is_visible="true"
       weight="33.333333"
       steps="2"
       helper_size="0"
       apply_no_weight="true"
       apply_with_weight="true"
       only_selected="false" />
    <filter
       inkscape:label="Pixellize"
       inkscape:menu="Pixel Tools"
       inkscape:menu-tooltip="Reduce or remove antialiasing around shapes"
       style="color-interpolation-filters:sRGB"
       id="filter3629">
      <feColorMatrix
         values="1 0 0 0 0 0 1 0 0 0 0 0 1 0 0 0 0 0 1000 -500 "
         id="feColorMatrix3627" />
    </filter>
    <filter
       inkscape:label="Flex Metal"
       inkscape:menu="Materials"
       inkscape:menu-tooltip="Bright, polished uneven metal casting, colorizable"
       height="1.5"
       y="-0.25"
       width="1.5"
       x="-0.25"
       style="color-interpolation-filters:sRGB"
       id="filter1260">
      <feGaussianBlur
         stdDeviation="5"
         result="result8"
         id="feGaussianBlur1244" />
      <feTurbulence
         seed="25"
         result="result7"
         type="turbulence"
         numOctaves="2"
         baseFrequency="0.03"
         id="feTurbulence1246" />
      <feComposite
         in2="result8"
         result="result6"
         operator="in"
         in="result8"
         id="feComposite1248" />
      <feDisplacementMap
         in="result7"
         in2="result6"
         xChannelSelector="A"
         yChannelSelector="A"
         scale="120"
         result="result4"
         id="feDisplacementMap1250" />
      <feComposite
         in2="result4"
         result="result2"
         operator="arithmetic"
         in="SourceGraphic"
         k1="2"
         k3="2.5"
         k2="0.25"
         id="feComposite1252"
         k4="0" />
      <feComposite
         result="fbSourceGraphic"
         in="result2"
         operator="in"
         in2="SourceGraphic"
         id="feComposite1254" />
      <feBlend
         mode="screen"
         in2="fbSourceGraphic"
         result="result91"
         id="feBlend1256" />
      <feBlend
         mode="multiply"
         in2="result91"
         id="feBlend1258" />
    </filter>
    <filter
       style="color-interpolation-filters:sRGB"
       inkscape:label="Drop Shadow"
       id="filter1948">
      <feFlood
         flood-opacity="1"
         flood-color="rgb(100,100,100)"
         result="flood"
         id="feFlood1938" />
      <feComposite
         in="flood"
         in2="SourceGraphic"
         operator="in"
         result="composite1"
         id="feComposite1940" />
      <feGaussianBlur
         in="composite1"
         stdDeviation="1"
         result="blur"
         id="feGaussianBlur1942" />
      <feOffset
         dx="-3"
         dy="3"
         result="offset"
         id="feOffset1944" />
      <feComposite
         in="SourceGraphic"
         in2="offset"
         operator="over"
         result="composite2"
         id="feComposite1946" />
    </filter>
  </defs>
  <sodipodi:namedview
     id="base"
     pagecolor="#ffffff"
     bordercolor="#666666"
     borderopacity="1.0"
     inkscape:pageopacity="0.0"
     inkscape:pageshadow="2"
     inkscape:zoom="0.5"
     inkscape:cx="125.02785"
     inkscape:cy="117.58957"
     inkscape:document-units="px"
     inkscape:current-layer="layer2"
     showgrid="false"
     inkscape:window-width="1280"
     inkscape:window-height="776"
     inkscape:window-x="0"
     inkscape:window-y="0"
     inkscape:window-maximized="1" />
  <metadata
     id="metadata7153">
    <rdf:RDF>
      <cc:Work
         rdf:about="">
        <dc:format>image/svg+xml</dc:format>
        <dc:type
           rdf:resource="http://purl.org/dc/dcmitype/StillImage" />
        <dc:title />
      </cc:Work>
    </rdf:RDF>
  </metadata>
  <g
     inkscape:groupmode="layer"
     id="layer3"
     inkscape:label="shadow"
     style="display:inline;opacity:1"
     transform="translate(-322.05961,-282.94458)" />
  <g
     inkscape:label="body"
     inkscape:groupmode="layer"
     id="layer1"
     style="display:inline;opacity:1"
     transform="translate(-322.05961,-282.94458)">
    <path
       style="display:inline;opacity:1;fill:#0e1e25;fill-opacity:1;stroke:none;stroke-width:3.4000001;stroke-linecap:butt;stroke-linejoin:bevel;stroke-miterlimit:10;stroke-dasharray:none;stroke-opacity:1;paint-order:stroke fill markers;filter:url(#filter1948)"
       d="m 540.00184,344.32212 v 3 h 3 v 3 h -0.002 v -2.99804 h -3 v -3 h -145.76367 -3 -3 -3 -3 -3 -3 -3 -3 v 3 3 h 3 v 3 3 h -3 v 3 3 h -3 v 3 h -3 v 3 h -3 v 3 h -3 v 3 h -3 v 3 h -3 v 3 h -3 v 3 3 h -3 v 3 3 3 3 3 230.70117 2.69336 2.69336 h 3 v 2.69336 2.69335 2.69532 h 3 v 2.69336 2.69336 h 3 v 2.69336 h 3 v 2.69336 h 3 3 3 195.07031 1.69336 3 3 3 3 v -2.69336 h 3 v -2.69336 h 3 v -2.69336 -2.69336 h 3 v -2.69532 -2.69335 -2.69336 h 3 v -2.69336 -2.69336 -230.70117 h -3 v 0.002 h -1.41211 -232.94141 -1.41015 v -0.002 h 3 3 3 3 3 3 3 3 3 3 3 3 3 3 3 3 145.76367 3.00195 3 3 3 3 3 v -0.002 h 3 3 3 3 3 3 3 3 3 v -3 -3 -3 -3 -3 h -3 v -3 -3 h -3 v -3 h -3 v -3 h -3 v -3 h -3 v -3 h -3 v -3 h -3 v -3 h -3 v -3 -3 h -3 v -3 -3 h 3 v -3 -3 h -3 -3 -3 -3 -3 -3 -3 z"
       id="path4489"
       inkscape:connector-curvature="0" />
    <g
       id="g25549"
       transform="matrix(0,1.67744,-1.67744,0,1144.1978,48.30562)"
       style="stroke-width:0.59614712" />
    <path
       style="display:inline;opacity:1;fill:#029a8f;fill-opacity:1;stroke:none;stroke-width:3.4000001;stroke-linecap:butt;stroke-linejoin:bevel;stroke-miterlimit:10;stroke-dasharray:none;stroke-opacity:1;paint-order:stroke fill markers"
       d="m 372.71176,401.32208 v 2.99805 h -3 -3 v 3 h -3 v 3 3 h -3 v 203.9375 2.52148 2.52149 h 2.64062 v 2.52148 2.52149 2.52148 h 2.64258 v 2.51953 2.52149 h 2.64062 v 2.52148 h 2.64063 v 2.52149 h 2.64062 2.64063 2.64062 171.71289 1.49024 2.64062 2.64063 2.64062 2.64063 v -2.52149 h 2.64062 v -2.52148 h 2.64063 v -2.52149 -2.51953 h 2.64062 v -2.52148 -2.52149 -2.52148 h 2.64063 v -2.52149 -2.52148 -203.9375 h -3 v -3 -3 h -3 v -3 h -3 -3 v -2.99805 z"
       id="path24934"
       inkscape:connector-curvature="0" />
  </g>
  <g
     inkscape:groupmode="layer"
     id="layer2"
     inkscape:label="cover"
     style="display:inline;opacity:1"
     transform="translate(-322.05961,-282.94458)">
    <g
       id="g1088"
       transform="translate(1.805365,15)">
      <path
         inkscape:connector-curvature="0"
         id="path22348"
         d="m 427.07185,282.94458 v 2.05263 h -2.63736 -2.63737 -2.63736 -2.63736 -2.63736 -2.63736 -2.63737 -2.63736 -2.63736 -2.63737 -2.63736 -2.63736 -2.63736 -2.63737 -2.63736 -2.63736 v 2.05263 h -2.63736 -2.63736 -2.63737 -2.63736 -2.63736 -2.63736 -2.63737 v 2.05264 h -2.63736 -2.63736 -2.63736 -2.63736 v 2.05263 h -2.63737 -2.63736 v 2.05263 h -2.63736 v 2.05263 2.05263 h -2.63736 v 2.05263 2.05264 2.05263 2.05263 2.05263 2.05263 h 2.63736 v 2.05263 2.05264 h 2.63736 v 2.05263 h 2.63736 2.63737 v 2.05263 h 2.63736 2.63736 v 2.05263 h 2.63736 2.63736 2.63737 2.63736 2.63736 2.63736 2.63737 v 2.05263 h 2.63736 2.63736 2.63736 2.63736 2.63737 2.63736 2.63736 2.63736 2.63737 2.63736 2.63736 2.63737 2.63736 2.63736 2.63736 2.63736 2.63737 2.63736 2.63736 2.63736 2.63736 2.63737 2.63736 2.63736 2.63736 2.63737 2.63736 2.63736 2.63736 2.63736 2.63737 2.63736 1.31868 1.31868 2.63736 2.63737 2.63736 2.63736 2.63736 2.63736 2.63737 2.63736 2.63736 2.63736 2.63737 2.63736 2.63736 2.63736 2.63736 2.63737 2.63736 2.63736 2.63736 2.63737 2.63736 2.63736 2.63736 2.63736 2.63737 2.63736 2.63736 2.63736 2.63737 2.63736 2.63736 2.63736 v -2.05263 h 2.63736 2.63737 2.63736 2.63736 2.63736 2.63737 2.63736 v -2.05263 h 2.63736 2.63736 v -2.05263 h 2.63736 2.6374 v -2.05263 h 2.63736 v -2.05264 -2.05263 h 2.63737 v -2.05263 -2.05263 -2.05263 -2.05263 -2.05264 -2.05263 h -2.63737 v -2.05263 -2.05263 h -2.63736 v -2.05263 h -2.6374 -2.63736 v -2.05263 h -2.63736 -2.63736 -2.63736 -2.63737 v -2.05264 h -2.63736 -2.63736 -2.63736 -2.63737 -2.63736 -2.63736 -2.63736 v -2.05263 h -2.63736 -2.63737 -2.63736 -2.63736 -2.63736 -2.63737 -2.63736 -2.63736 -2.63736 -2.63736 -2.63737 -2.63736 -2.63736 -2.63736 -2.63737 -2.63736 v -2.05263 h -2.63736 -2.63736 -2.63736 -2.63737 -2.63736 -2.63736 -2.63736 -2.63737 -2.63736 -2.63736 -2.63736 -2.63736 -2.63737 -2.63736 -1.31868 -1.31868 -2.63736 -2.63737 -2.63736 -2.63736 -2.63736 -2.63736 -2.63737 -2.63736 -2.63736 -2.63736 -2.63737 -2.63736 -2.63736 z"
         style="display:inline;opacity:1;fill:#002333;fill-opacity:1;stroke:none;stroke-width:3.4000001;stroke-linecap:butt;stroke-linejoin:bevel;stroke-miterlimit:10;stroke-dasharray:none;stroke-opacity:1;paint-order:stroke fill markers" />
      <path
         inkscape:connector-curvature="0"
         id="rect22422"
         d="m 418.36278,288.41844 v 2.39474 h -2.08671 -2.08671 -2.08669 -2.08671 -2.08671 -2.0867 -2.08671 -2.0867 -2.08671 -2.0867 -2.0867 -2.08671 -2.08671 -2.08669 -2.08671 -2.08671 v 2.39474 h -2.0867 -2.08671 -2.0867 -2.0867 -2.08671 -2.0867 -2.0867 v 2.39473 h 2.0867 2.0867 2.08671 2.0867 v 2.39474 h 2.0867 2.08671 2.0867 2.08671 2.08671 2.08669 v 2.39474 h 2.08671 2.08671 2.0867 2.0867 2.08671 2.0867 2.08671 2.0867 2.08671 2.08671 2.08669 2.08671 2.08671 2.08669 2.08671 v 2.39473 h 2.0867 2.08671 2.08671 2.08669 2.08671 2.08671 2.0867 2.0867 2.08671 2.0867 2.08671 2.0867 2.0867 2.08671 2.0867 2.08671 2.0867 2.0867 2.08671 2.08671 1.04335 1.04335 2.0867 2.0867 2.08671 2.08671 2.0867 2.0867 2.08671 2.0867 2.08671 2.0867 2.0867 2.08671 2.0867 2.08671 2.0867 2.0867 2.08671 2.08671 2.08669 2.08671 v -2.39473 h 2.08671 2.0867 2.08671 2.0867 2.0867 2.08671 2.0867 2.0867 2.08671 2.0867 2.08671 2.08671 2.08669 2.08671 2.08671 v -2.39474 h 2.0867 2.0867 2.0867 2.08671 2.08671 2.0867 v -2.39474 h 2.0867 2.08671 2.0867 2.08671 v -2.39473 h -2.08671 -2.0867 -2.08671 -2.0867 -2.0867 -2.08671 -2.08671 v -2.39474 h -2.0867 -2.0867 -2.0867 -2.08671 -2.08671 -2.08669 -2.08671 -2.08671 -2.0867 -2.08671 -2.0867 -2.0867 -2.08671 -2.0867 -2.0867 -2.08671 v -2.39474 h -2.0867 -2.08671 -2.08671 -2.08669 -2.08671 -2.08671 -2.0867 -2.0867 -2.08671 -2.0867 -2.08671 -2.0867 -2.0867 -2.08671 -2.0867 -2.08671 -2.0867 -2.0867 -2.08671 -2.08671 -2.0867 -2.0867 -1.04335 -1.04335 -2.08671 -2.08671 -2.0867 -2.0867 -2.08671 -2.0867 -2.08671 -2.0867 -2.0867 -2.08671 -2.0867 -2.08671 -2.0867 -2.0867 -2.08671 -2.08671 -2.08669 -2.08671 -2.08671 -2.0867 -2.08671 z"
         style="display:inline;opacity:1;fill:#0e1e25;fill-opacity:1;stroke:none;stroke-width:3.3999989;stroke-linecap:butt;stroke-linejoin:bevel;stroke-miterlimit:10;stroke-dasharray:none;stroke-opacity:0.01595746;paint-order:stroke fill markers" />
      <path
         inkscape:connector-curvature="0"
         id="rect22460"
         d="m 354.3995,294.77271 v 2.05263 h -2.49246 v 2.05263 2.05263 2.05263 2.05263 2.05264 h 2.49246 v 2.05263 h 2.49244 v 2.05263 h 2.49246 2.49245 2.49246 2.49244 v 2.05263 h 2.49246 2.49245 2.49246 2.49244 2.49246 v 2.05263 h 2.49245 2.49245 2.49245 2.49245 2.49246 2.49245 2.49245 2.49245 2.49246 2.49245 2.49246 v 2.05263 h 2.49244 2.49246 2.49245 2.49246 2.49244 2.49246 2.49245 2.49245 2.49245 2.49246 2.49245 2.49245 2.49245 2.49246 2.49244 2.49246 2.49245 2.49246 2.49244 2.49246 2.49245 2.49246 2.49244 1.24623 1.24622 2.49246 2.49245 2.49245 2.49245 2.49246 2.49245 2.49245 2.49245 2.49246 2.49244 2.49246 2.49245 2.49246 2.49244 2.49246 2.49245 2.49246 2.49244 2.49246 2.49245 2.49245 2.49245 2.49246 v -2.05263 h 2.49245 2.49245 2.49245 2.49246 2.49245 2.49245 2.49245 2.49246 2.49245 2.49244 2.49246 v -2.05263 h 2.49245 2.49246 2.49244 2.49246 2.49245 v -2.05263 h 2.49246 2.49244 2.49246 2.49245 v -2.05263 h 2.49245 v -2.05263 h 2.49245 v -2.05264 -2.05263 -2.05263 -2.05263 -2.05263 h -2.49245 v -2.05263 h -2.49245 -2.49245 v 2.05263 h -2.49246 v 2.05263 h -2.49244 -2.49246 v 2.05263 h -2.49245 -2.49246 -2.49244 -2.49246 -2.49245 -2.49246 -2.49244 v 2.05263 h -2.49245 -2.49246 -2.49245 -2.49245 -2.49245 -2.49246 -2.49245 -2.49245 v 2.05263 h -2.49245 -2.49246 -2.49245 -2.49245 -2.49245 -2.49246 -2.49244 -2.49246 -2.49245 -2.49246 -2.49244 -2.49246 -2.49245 -2.49246 -2.49244 -2.49246 -2.49245 -2.49245 -2.49245 -2.49246 -2.49245 -2.49245 -2.49245 -2.49246 -1.24622 -1.24623 -2.49244 -2.49246 -2.49245 -2.49246 -2.49244 -2.49246 -2.49245 -2.49246 -2.49244 -2.49246 -2.49245 -2.49245 -2.49245 -2.49246 -2.49245 -2.49245 -2.49245 -2.49246 -2.49244 -2.49246 -2.49245 -2.49246 -2.49244 -2.49246 v -2.05263 h -2.49245 -2.49246 -2.49245 -2.49245 -2.49245 -2.49246 -2.49245 -2.49245 v -2.05263 h -2.49245 -2.49245 -2.49246 -2.49244 -2.49246 -2.49245 -2.49246 v -2.05263 h -2.49244 -2.49246 v -2.05263 h -2.49245 v -2.05263 h -2.49246 z"
         style="display:inline;opacity:1;fill:#0e1e25;fill-opacity:1;stroke:none;stroke-width:3.4000001;stroke-linecap:butt;stroke-linejoin:bevel;stroke-miterlimit:10;stroke-dasharray:none;stroke-opacity:1;paint-order:stroke fill markers" />
    </g>
  </g>
  <g
     inkscape:groupmode="layer"
     id="layer4"
     inkscape:label="jamstack logo"
     style="display:inline"
     transform="translate(-322.05961,-282.94458)">
    <g
       id="g29445"
       transform="translate(-19.79899,31.970563)">
      <path
         style="opacity:1;fill:#ee177f;fill-opacity:1;stroke:none;stroke-width:3.4000001;stroke-linecap:butt;stroke-linejoin:bevel;stroke-miterlimit:10;stroke-dasharray:none;stroke-opacity:1;paint-order:stroke fill markers"
         d="m 479.41797,544.94117 v 2.94118 h -6 v 2.94118 h -3 v 2.94117 h -3 v 5.88236 h -3 v 2.94117 2.94118 2.94118 2.94117 2.94118 h 3 v 5.88235 h 3 v 2.94118 h 3 v 2.94118 h 6 v 2.94117 h 3 3 3.00001 3 3 v -2.94117 h 6 v -2.94118 h 3 v -2.94118 h 3 v -5.88235 h 3 v -2.94118 -2.94117 -2.94118 -2.94118 -2.94117 -2.94118 -2.94118 -2.94117 -2.94118 -2.94118 h -3 -3 -3 -3 -3 -3 -3 -3.00001 -3 z"
         id="rect1662"
         inkscape:connector-curvature="0" />
      <rect
         style="opacity:1;fill:#ffffff;fill-opacity:1;stroke:none;stroke-width:3.40000033;stroke-linecap:butt;stroke-linejoin:bevel;stroke-miterlimit:10;stroke-dasharray:none;stroke-opacity:1;paint-order:stroke fill markers"
         id="rect1562"
         width="15.000002"
         height="14.705882"
         x="488.41827"
         y="550.82336" />
      <path
         style="opacity:1;fill:#ffffff;fill-opacity:1;stroke:none;stroke-width:3.4000001;stroke-linecap:butt;stroke-linejoin:bevel;stroke-miterlimit:10;stroke-dasharray:none;stroke-opacity:1;paint-order:stroke fill markers"
         d="m 488.41829,568.47039 v 14.70588 2.94118 h 3 v -2.94118 h 3 3 v -2.94117 h 3 v -2.94118 h 3 v -8.82353 h -9 z"
         id="rect1684"
         inkscape:connector-curvature="0" />
      <path
         style="opacity:1;fill:#ffffff;fill-opacity:1;stroke:none;stroke-width:3.4000001;stroke-linecap:butt;stroke-linejoin:bevel;stroke-miterlimit:10;stroke-dasharray:none;stroke-opacity:1;paint-order:stroke fill markers"
         d="m 470.41828,568.47039 v 8.82353 h 3 v 2.94118 h 3 v 2.94117 h 3 3 v 2.94118 h 3 v -2.94118 -14.70588 h -6 z"
         id="rect2068"
         inkscape:connector-curvature="0" />
    </g>
  </g>
  <g
     inkscape:groupmode="layer"
     id="layer5"
     inkscape:label="text"
     style="display:inline"
     transform="translate(-322.05961,-282.94458)">
    <path
       style="display:inline;opacity:1;fill:#0e1e25;fill-opacity:1;stroke:none;stroke-width:3.4000001;stroke-linecap:butt;stroke-linejoin:bevel;stroke-miterlimit:10;stroke-dasharray:none;stroke-opacity:1;paint-order:stroke fill markers"
       d="m 383.73663,448.97056 v 3 h -2.77942 -2.77941 v 3 h -2.77941 v 3 3 h -2.7794 v 78 h 2.7794 v 3 3 h 2.77941 v 3 h 2.77941 2.77942 v 3 h 166.7647 v -3 h 2.7794 2.77944 v -3 h 2.7794 v -3 -3 h 2.77941 v -78 h -2.77941 v -3 -3 h -2.7794 v -3 h -2.77944 -2.7794 v -3 z"
       id="rect1560-6"
       inkscape:connector-curvature="0" />
    <g
       id="g3950"
       transform="translate(584.06651,274.4177)"
       style="display:inline;fill:#00ad9f;fill-opacity:1">
      <g
         id="g1164"
         transform="translate(-258.09371,-2.828265)">
        <path
           inkscape:connector-curvature="0"
           id="rect2140"
           transform="translate(-12.01375,14.02987)"
           d="m 126.16211,186 v 3 3 3 3 3 3 3 3 h 3 3 v -3 -3 -3 -3 -3 -3 -3 -3 h -3 z m 0,24 h -3 -3 -3 -3 v 3 3 h 3 3 3 3 v -3 z m -12,0 v -3 -3 h -3 -3 v 3 3 h 3 z"
           style="opacity:1;fill:#00ad9f;fill-opacity:1;stroke:none;stroke-width:3.4000001;stroke-linecap:butt;stroke-linejoin:bevel;stroke-miterlimit:10;stroke-dasharray:none;stroke-opacity:1;paint-order:stroke fill markers" />
        <path
           transform="translate(-270.10773,11.20144)"
           id="rect2196"
           d="m 402.25586,188.82812 v 3 3 h 3 3 3 3 v -3 -3 h -3 -3 -3 z m 12,6 v 3 3 h -3 -3 -3 -3 v -3 -3 h -3 -3 v 3 3 3 3 3 3 3 3 h 3 3 v -3 -3 -3 -3 h 3 3 3 3 v 3 3 3 3 h 3 3 v -3 -3 -3 -3 -3 -3 -3 -3 h -3 z"
           style="opacity:1;fill:#00ad9f;fill-opacity:1;stroke:none;stroke-width:3.4000001;stroke-linecap:butt;stroke-linejoin:bevel;stroke-miterlimit:10;stroke-dasharray:none;stroke-opacity:1;paint-order:stroke fill markers"
           inkscape:connector-curvature="0" />
        <path
           id="rect2306"
           transform="translate(-270.10773,11.20144)"
           d="m 345.25391,230.53125 v 3 3 3 3 h 3 v -3 -3 -3 -3 z m 0,12 h -3 -3 v 3 h 3 3 z m -6,0 v -3 h -3 v 3 z"
           style="opacity:1;fill:#00ad9f;fill-opacity:1;stroke:none;stroke-width:3.4000001;stroke-linecap:butt;stroke-linejoin:bevel;stroke-miterlimit:10;stroke-dasharray:none;stroke-opacity:1;paint-order:stroke fill markers"
           inkscape:connector-curvature="0" />
        <path
           id="rect2314"
           transform="translate(-270.10773,11.20144)"
           d="m 426.25586,188.82812 v 3 3 3 3 3 3 3 3 3 3 h 3 3 v -3 -3 -3 -3 -3 -3 h 3 3 v -3 -3 h -3 -3 v -3 -3 h -3 z m 12,12 v 3 3 h 3 3 v -3 -3 h -3 z m 6,0 h 3 3 v 3 3 3 3 3 3 h 3 3 v -3 -3 -3 -3 -3 -3 -3 -3 -3 -3 h -3 -3 v 3 3 h -3 -3 v 3 z"
           style="opacity:1;fill:#00ad9f;fill-opacity:1;stroke:none;stroke-width:3.4000001;stroke-linecap:butt;stroke-linejoin:bevel;stroke-miterlimit:10;stroke-dasharray:none;stroke-opacity:1;paint-order:stroke fill markers"
           inkscape:connector-curvature="0" />
        <path
           id="rect2418"
           transform="translate(-270.10773,11.20144)"
           d="m 354.25391,230.53125 v 3 h 3 3 3 v -3 h -3 -3 z m 0,3 h -3 v 3 h 3 z m 0,3 v 3 h 3 3 v -3 h -3 z m 6,3 v 3 h 3 v -3 z m 0,3 h -3 -3 -3 v 3 h 3 3 3 z"
           style="opacity:1;fill:#00ad9f;fill-opacity:1;stroke:none;stroke-width:3.4000001;stroke-linecap:butt;stroke-linejoin:bevel;stroke-miterlimit:10;stroke-dasharray:none;stroke-opacity:1;paint-order:stroke fill markers"
           inkscape:connector-curvature="0" />
        <path
           id="rect2446"
           transform="translate(-270.10773,11.20144)"
           d="m 384.25391,230.53125 v 3 3 3 3 3 h 3 v -3 -3 h 3 3 v -3 -3 -3 h -3 -3 z m 3,3 h 3 v 3 h -3 z"
           style="opacity:1;fill:#00ad9f;fill-opacity:1;stroke:none;stroke-width:3.4000001;stroke-linecap:butt;stroke-linejoin:bevel;stroke-miterlimit:10;stroke-dasharray:none;stroke-opacity:1;paint-order:stroke fill markers"
           inkscape:connector-curvature="0" />
        <path
           id="rect2448"
           transform="translate(-270.10773,11.20144)"
           d="m 372.25391,230.53125 v 3 h 3 3 v -3 h -3 z m 6,3 v 3 h -3 -3 v -3 h -3 v 3 3 3 3 h 3 v -3 -3 h 3 3 v 3 3 h 3 v -3 -3 -3 -3 z"
           style="opacity:1;fill:#00ad9f;fill-opacity:1;stroke:none;stroke-width:3.4000001;stroke-linecap:butt;stroke-linejoin:bevel;stroke-miterlimit:10;stroke-dasharray:none;stroke-opacity:1;paint-order:stroke fill markers"
           inkscape:connector-curvature="0" />
        <path
           id="rect2474"
           transform="translate(-270.10773,11.20144)"
           d="m 477.25391,230.53125 v 3 3 3 3 3 h 3 v -3 -3 h 3 3 v -3 -3 -3 h -3 -3 z m 3,3 h 3 v 3 h -3 z"
           style="opacity:1;fill:#00ad9f;fill-opacity:1;stroke:none;stroke-width:3.4000001;stroke-linecap:butt;stroke-linejoin:bevel;stroke-miterlimit:10;stroke-dasharray:none;stroke-opacity:1;paint-order:stroke fill markers"
           inkscape:connector-curvature="0" />
        <path
           id="rect2492"
           transform="translate(-270.10773,11.20144)"
           d="m 396.25391,236.53125 v 3 3 3 h 3 v -3 -3 -3 z"
           style="opacity:1;fill:#00ad9f;fill-opacity:1;stroke:none;stroke-width:3.4000001;stroke-linecap:butt;stroke-linejoin:bevel;stroke-miterlimit:10;stroke-dasharray:none;stroke-opacity:1;paint-order:stroke fill markers"
           inkscape:connector-curvature="0" />
        <rect
           style="opacity:1;fill:#00ad9f;fill-opacity:1;stroke:none;stroke-width:3.4000001;stroke-linecap:butt;stroke-linejoin:bevel;stroke-miterlimit:10;stroke-dasharray:none;stroke-opacity:1;paint-order:stroke fill markers"
           id="rect2496"
           width="3"
           height="3"
           x="-129.14645"
           y="241.73306"
           transform="scale(-1,1)" />
        <path
           id="rect2500"
           transform="translate(-270.10773,11.20144)"
           d="m 405.25391,230.53125 v 3 3 3 3 3 h 3 v -3 -3 -3 h 3 v -3 h -3 v -3 z m 6,6 v 3 h 3 v -3 z m 3,0 h 3 v 3 3 3 h 3 v -3 -3 -3 -3 -3 h -3 v 3 h -3 z"
           style="opacity:1;fill:#00ad9f;fill-opacity:1;stroke:none;stroke-width:3.4000001;stroke-linecap:butt;stroke-linejoin:bevel;stroke-miterlimit:10;stroke-dasharray:none;stroke-opacity:1;paint-order:stroke fill markers"
           inkscape:connector-curvature="0" />
        <path
           id="rect2526"
           transform="translate(-270.10773,11.20144)"
           d="m 438.25391,230.53125 v 3 3 3 3 3 h 3 v -3 -3 h 3 3 v -3 -3 -3 h -3 -3 z m 9,9 v 3 3 h 3 v -3 -3 z m -6,-6 h 3 v 3 h -3 z"
           style="opacity:1;fill:#00ad9f;fill-opacity:1;stroke:none;stroke-width:3.4000001;stroke-linecap:butt;stroke-linejoin:bevel;stroke-miterlimit:10;stroke-dasharray:none;stroke-opacity:1;paint-order:stroke fill markers"
           inkscape:connector-curvature="0" />
        <path
           id="rect2528"
           transform="translate(-270.10773,11.20144)"
           d="m 426.25391,230.53125 v 3 h 3 3 v -3 h -3 z m 6,3 v 3 h -3 -3 v -3 h -3 v 3 3 3 3 h 3 v -3 -3 h 3 3 v 3 3 h 3 v -3 -3 -3 -3 z"
           style="opacity:1;fill:#00ad9f;fill-opacity:1;stroke:none;stroke-width:3.4000001;stroke-linecap:butt;stroke-linejoin:bevel;stroke-miterlimit:10;stroke-dasharray:none;stroke-opacity:1;paint-order:stroke fill markers"
           inkscape:connector-curvature="0" />
        <path
           id="rect2574"
           transform="translate(-270.10773,11.20144)"
           d="m 453.25391,230.53125 v 3 3 3 3 3 h 3 v -3 -3 h 3 v -3 -3 h -3 v -3 z m 6,3 h 3 v -3 h -3 z m 0,6 v 3 3 h 3 v -3 -3 z"
           style="opacity:1;fill:#00ad9f;fill-opacity:1;stroke:none;stroke-width:3.4000001;stroke-linecap:butt;stroke-linejoin:bevel;stroke-miterlimit:10;stroke-dasharray:none;stroke-opacity:1;paint-order:stroke fill markers"
           inkscape:connector-curvature="0" />
        <path
           id="rect2594"
           transform="translate(-270.10773,11.20144)"
           d="m 465.25391,230.53125 v 3 3 3 3 3 h 3 3 3 v -3 -3 -3 -3 -3 h -3 v 3 3 3 3 h -3 v -3 -3 -3 -3 z"
           style="opacity:1;fill:#00ad9f;fill-opacity:1;stroke:none;stroke-width:3.4000001;stroke-linecap:butt;stroke-linejoin:bevel;stroke-miterlimit:10;stroke-dasharray:none;stroke-opacity:1;paint-order:stroke fill markers"
           inkscape:connector-curvature="0" />
      </g>
    </g>
  </g>
</svg>
