<?xml version="1.0" encoding="UTF-8" standalone="no"?>
<svg
   xmlns:dc="http://purl.org/dc/elements/1.1/"
   xmlns:cc="http://creativecommons.org/ns#"
   xmlns:rdf="http://www.w3.org/1999/02/22-rdf-syntax-ns#"
   xmlns:svg="http://www.w3.org/2000/svg"
   xmlns="http://www.w3.org/2000/svg"
   xmlns:sodipodi="http://sodipodi.sourceforge.net/DTD/sodipodi-0.dtd"
   xmlns:inkscape="http://www.inkscape.org/namespaces/inkscape"
   height="27.45631"
   width="101"
   viewBox="-79.0212 -35.8025 57.641575 7.3725341"
   version="1.1"
   id="svg48"
   sodipodi:docname="MongoDB.svg"
   inkscape:version="1.0.1 (1.0.1+r74)">
  <metadata
     id="metadata52">
    <rdf:RDF>
      <cc:Work
         rdf:about="">
        <dc:format>image/svg+xml</dc:format>
        <dc:type
           rdf:resource="http://purl.org/dc/dcmitype/StillImage" />
      </cc:Work>
    </rdf:RDF>
  </metadata>
  <sodipodi:namedview
     pagecolor="#ffffff"
     bordercolor="#666666"
     borderopacity="1"
     objecttolerance="10"
     gridtolerance="10"
     guidetolerance="10"
     inkscape:pageopacity="0"
     inkscape:pageshadow="2"
     inkscape:window-width="1280"
     inkscape:window-height="771"
     id="namedview50"
     showgrid="false"
     inkscape:zoom="6.675088"
     inkscape:cx="51.759759"
     inkscape:cy="32.05966"
     inkscape:window-x="0"
     inkscape:window-y="0"
     inkscape:window-maximized="1"
     inkscape:current-layer="g871"
     inkscape:document-rotation="0" />
  <defs
     id="defs28">
    <linearGradient
       id="b"
       spreadMethod="pad"
       gradientTransform="matrix(344.394,-116.194,-104.815,-309.067,77.762,575.995)"
       gradientUnits="userSpaceOnUse"
       y2="0"
       x2="1"
       y1="0"
       x1="0">
      <stop
         offset="0"
         stop-color="#929669"
         id="stop2" />
      <stop
         offset=".231"
         stop-color="#929669"
         id="stop4" />
      <stop
         offset="1"
         stop-color="#fdfcf1"
         id="stop6" />
    </linearGradient>
    <linearGradient
       id="d"
       spreadMethod="pad"
       gradientTransform="matrix(241.166,-936.211,-1007.33,-161.502,203.932,1135.85)"
       gradientUnits="userSpaceOnUse"
       y2="0"
       x2="1"
       y1="0"
       x1="0">
      <stop
         offset="0"
         stop-color="#45aa3a"
         id="stop9" />
      <stop
         offset="1"
         stop-color="#3d9439"
         id="stop11" />
    </linearGradient>
    <linearGradient
       id="f"
       spreadMethod="pad"
       gradientTransform="matrix(422.095,95.9042,131.897,-394.11,-25.083,595.855)"
       gradientUnits="userSpaceOnUse"
       y2="0"
       x2="1"
       y1="0"
       x1="0">
      <stop
         offset="0"
         stop-color="#41a83b"
         id="stop14" />
      <stop
         offset="1"
         stop-color="#5ebc44"
         id="stop16" />
    </linearGradient>
    <clipPath
       id="a"
       clipPathUnits="userSpaceOnUse">
      <path
         d="m 275.945,28.672 -29.961,9.918 c 0,0 3.821,151.64 -50.867,162.258 -36.062,41.785 5.551,1784.892 136.559,5.972 0,0 -44.84,-22.515 -53.328,-60.75 -8.485,-38.261 -2.403,-117.398 -2.403,-117.398 z"
         id="path19"
         inkscape:connector-curvature="0" />
    </clipPath>
    <clipPath
       id="c"
       clipPathUnits="userSpaceOnUse">
      <path
         d="m 292.098,175.105 c 0,0 260.343,171.469 199.351,527.575 -58.738,258.718 -197.418,343.77 -212.32,376.24 -16.406,22.98 -32.93,63.71 -32.93,63.71 l 11.074,-720.864 c 0,0 -22.906,-220.11 34.825,-246.661 z"
         id="path22"
         inkscape:connector-curvature="0" />
    </clipPath>
    <clipPath
       id="e"
       clipPathUnits="userSpaceOnUse">
      <path
         d="m 230.742,165.523 c 0,0 -244.21,166.598 -230.16,460.543 14.055,293.954 186.539,438.484 220.133,464.704 21.719,23.15 22.617,32.07 24.297,54.91 15.222,-32.7 12.691,-488.422 14.304,-541.688 6.258,-207.351 -11.484,-399.328 -28.574,-438.469 z"
         id="path25"
         inkscape:connector-curvature="0" />
    </clipPath>
  </defs>
  <g
     id="g871"
     transform="matrix(0.10941662,0,0,0.10941662,-70.374967,-22.807782)">
    <g
       id="g32"
       transform="matrix(0.125,0,0,-0.125,-79.020975,-13.468467)"
       clip-path="url(#a)">
      <path
         style="fill:url(#b)"
         inkscape:connector-curvature="0"
         id="path30"
         d="m 275.945,28.672 -29.961,9.918 c 0,0 3.821,151.64 -50.867,162.258 -36.062,41.785 5.551,1784.892 136.559,5.972 0,0 -44.84,-22.515 -53.328,-60.75 -8.485,-38.261 -2.403,-117.398 -2.403,-117.398" />
    </g>
    <g
       id="g36"
       transform="matrix(0.125,0,0,-0.125,-79.020975,-13.468467)"
       clip-path="url(#c)">
      <path
         style="fill:url(#d)"
         inkscape:connector-curvature="0"
         id="path34"
         d="m 292.098,175.105 c 0,0 260.343,171.469 199.351,527.575 -58.738,258.718 -197.418,343.77 -212.32,376.24 -16.406,22.98 -32.93,63.71 -32.93,63.71 l 11.074,-720.864 c 0,0 -22.906,-220.11 34.825,-246.661" />
    </g>
    <g
       id="g40"
       transform="matrix(0.125,0,0,-0.125,-79.020975,-13.468467)"
       clip-path="url(#e)">
      <path
         style="fill:url(#f)"
         inkscape:connector-curvature="0"
         id="path38"
         d="m 230.742,165.523 c 0,0 -244.21,166.598 -230.16,460.543 14.055,293.954 186.539,438.484 220.133,464.704 21.719,23.15 22.617,32.07 24.297,54.91 15.222,-32.7 12.691,-488.422 14.304,-541.688 6.258,-207.351 -11.484,-399.328 -28.574,-438.469" />
    </g>
    <path
       style="fill:#c0bdba"
       inkscape:connector-curvature="0"
       id="path42"
       d="m 318.68003,-46.018467 c 2.16,1.726 6.477,2.437 10.283,2.437 4.935,0 9.767,-0.916 14.496,-5.178 4.831,-4.369 8.123,-11.07 8.123,-21.731 0,-10.256 -3.908,-18.583 -11.927,-23.457 -4.525,-2.843 -10.383,-3.959 -17.067,-3.959 -1.954,0 -3.908,0.101 -5.039,0.608 -0.309,0.203 -0.926,1.016 -0.926,1.423 -0.205,1.827 -0.205,15.738 -0.205,23.963 0,8.427 0,20.206 0.205,21.629 0.105,1.218 0.72,3.35 2.057,4.264 z m -20.521,-56.459003 c 1.747,0 8.389,0.304 11.475,0.304 5.757,0 9.766,-0.304 20.561,-0.304 9.049,0 16.659,2.437 22.108,7.108003 6.581,5.687 10.076,13.607 10.076,23.253 0,13.708 -6.271,21.628 -12.543,26.096 -6.273,4.67 -14.396,7.31 -26.013,7.31 -6.17,0 -16.762,-0.202 -25.604,-0.302 h -0.121 c -0.41,-0.814 0.757,-3.98 1.481,-4.063 2.39,-0.27 3.037,-0.362 4.147,-0.82 1.867,-0.767 2.308,-1.718 2.515,-5.07 0.307,-6.294 0.205,-13.809 0.205,-22.339 0,-6.092 0.102,-17.973 -0.103,-21.73 -0.309,-3.147 -1.643,-3.959 -4.318,-4.57 -1.337,-0.303 -3.187,-0.608 -5.757,-0.913 -0.207,-0.609 1.377,-3.351003 1.891,-3.960003 m 91.446,4.977003 c -0.41,0.102 -0.925,1.118 -0.925,1.625 -0.1,3.655 -0.203,13.2 -0.203,19.8 0,0.202 0.306,0.507 0.513,0.507 1.337,0.103 4.625,0.204 7.402,0.204 3.907,0 6.171,-0.509 7.403,-1.118 3.29,-1.624 4.832,-5.178 4.832,-9.036 0,-8.834 -6.169,-12.186 -15.318,-12.186 -0.617,0 -2.366,0 -3.704,0.204 z m 23.34,40.617 c 0,-8.936 -6.578,-14.013 -18.61,-14.013 -0.513,0 -4.318,-0.102 -5.243,0.102 -0.309,0.1 -0.615,0.304 -0.615,0.507 0,6.398 -0.105,16.653 0.203,20.713 0.207,1.727 1.442,4.165 2.983,4.875 1.646,0.915 5.345,1.118 7.916,1.118 7.095,0 13.366,-3.961 13.366,-13.302 z m -41.908,-45.593003 c 0.925,0 3.662,0.304 10.652,0.304 6.581,0 11.926,-0.202 18.301,-0.202 7.917,0 18.815,2.843003 18.815,14.622003 0,5.787 -4.11,10.459 -9.457,12.693 -0.309,0.101 -0.309,0.304 0,0.406 7.609,1.928 14.291,6.6 14.291,15.535 0,8.732 -5.449,14.216 -13.366,17.669 -4.833,2.131 -10.795,2.842 -16.864,2.842 -4.626,0 -17.024,-0.507 -23.914,-0.404 -0.72,-0.307 0.66,-3.556 1.275,-4.063 1.647,-0.101 2.915,-0.22 4.664,-0.728 2.466,-0.609 2.759,-1.404 3.068,-5.06 0.207,-3.147 0.207,-14.419 0.207,-22.441 0,-10.966 0.101,-18.378 0,-22.034 -0.105,-2.843 -1.132,-3.758 -3.086,-4.265 -1.541,-0.304 -4.111,-0.61 -6.168,-0.914 -0.516,-0.508 1.068,-3.554003 1.582,-3.960003" />
    <path
       style="fill:#414044"
       inkscape:connector-curvature="0"
       id="path44"
       d="m 3.2070255,-38.753467 c -0.172,-0.273 -0.353,-1.08 -0.315,-2.052 0.029,-0.74 0.175,-1.208 0.314,-1.369 1.939,-0.306 2.857,-0.513 3.947,-0.804 1.817,-0.451 2.502,-1.433 2.61,-3.758 0.2979995,-5.476 0.3149995,-15.745 0.206,-22.967 l 10e-4,-0.213 c 0.009,-0.775 0.021,-1.834 -0.952,-2.581 -1.426,-0.94 -3.204,-1.717 -5.453,-2.391 -0.861,-0.255 -1.337,-0.708 -1.312,-1.237 0.027,-0.509 0.567,-1.156 1.69,-1.372 2.977,-0.307 10.7829995,-2.166 13.8459995,-3.579 0.181,0.22 0.468,0.698 0.412,1.46 -0.023,0.32 -0.05,0.654 -0.079,1.002 -0.087,1.02 -0.185,2.177 -0.185,3.33 0,0.34 0.368,0.662 0.759,0.662 a 0.746,0.746 0 0 0 0.532,-0.225 c 5.838,-4.57 11.059,-6.2 13.747,-6.2 4.417,0 7.854,2.108 10.51,6.443 0.156,0.23 0.365,0.35 0.6,0.35 a 0.675,0.675 0 0 0 0.556,-0.298 c 5.368,-4.067 10.688,-6.495 14.244,-6.495 8.418,0 13.445,6.294 13.445,16.832 0,3.029 -0.03,6.867 -0.057,10.45 -0.026,3.144 -0.048,6.091 -0.048,8.13 0,0.495 0.662,1.866 1.66,2.14 1.23,0.6 3.01,0.905 5.254,1.292 l 0.086,0.014 c 0.172,0.604 -0.186,2.954 -0.528,3.435 -0.557,-0.004 -1.329,-0.045 -2.29,-0.093 -1.748,-0.09 -4.143,-0.21 -6.932,-0.21 -5.592,0 -8.515,0.11 -11.306,0.29 -0.21,-0.698 -0.284,-2.947 -0.027,-3.415 1.627,-0.305 2.432,-0.51 3.41,-0.8 1.78,-0.586 2.292,-1.392 2.396,-3.754 0.041,-1.68 0.364,-16.46 -0.209,-19.969 -0.527,-3.636 -3.272,-7.893 -9.274,-7.893 -2.226,0 -5.823,0.924 -9.252,3.522 -0.213,0.206 -0.336,0.608 -0.336,0.871 l 0.006,0.068 c 0.404,1.894 0.404,4.103 0.404,7.446 0,1.905 -0.012,3.926 -0.023,5.933 -0.023,4.075 -0.045,7.922 0.023,10.829 0,1.982 1.2,2.454 2.165,2.836 0.523,0.116 0.94,0.216 1.356,0.315 0.809,0.195 1.644,0.396 2.882,0.594 0.17,0.39 0.184,1.557 -0.048,2.555 -0.13,0.551 -0.279,0.794 -0.358,0.873 -3.11,-0.106 -6.301,-0.2 -10.905,-0.2 -1.396,0 -3.675,0.06 -5.685,0.114 -1.63,0.043 -3.173,0.086 -4.05,0.09 -0.127,-0.201 -0.305,-0.844 -0.305,-1.77 0,-0.861 0.158,-1.468 0.32,-1.655 0.433,-0.08 0.845,-0.153 1.237,-0.223 1.08,-0.192 2.013,-0.357 2.908,-0.577 1.524,-0.464 2.096,-1.31 2.207,-3.246 0.297,-4.519 0.53,-17.536 -0.11,-20.796 -1.09,-5.232 -4.072,-7.883 -8.86,-7.883 -2.809,0 -6.353,1.35 -9.25,3.52 -0.487,0.357 -0.854,1.258 -0.854,2.09 0,1.55 -0.005,3.396 -0.011,5.375 -0.02,6.538 -0.043,14.675 0.117,18.197 0.097,1.082 0.474,2.37 2.518,2.846 0.445,0.124 1.218,0.254 2.113,0.401 0.515,0.086 1.078,0.18 1.657,0.283 0.208,0.56 0.08,2.754 -0.276,3.437 -0.893,-0.005 -1.992,-0.057 -3.254,-0.112 -1.926,-0.085 -4.322,-0.192 -7.053,-0.192 -3.213,0 -5.4499995,0.107 -7.2479995,0.192 -1.205,0.057 -2.25,0.108 -3.293,0.112 m 102.0020045,-37.977 c -1.871,0 -3.619,0.49 -4.919,1.38 -3.570005,2.169 -5.387005,6.5 -5.387005,12.86 0,11.914 5.972005,20.233 14.521005,20.233 2.523,0 4.579,-0.725 6.288,-2.215 2.627,-2.142 4.02,-6.514 4.02,-12.637 0,-11.736 -5.837,-19.62 -14.523,-19.62 z m 1.646,38.891 c -15.447005,0 -20.950005,-11.318 -20.950005,-21.908 0,-7.398 3.028,-13.183 9.004,-17.192 4.248,-2.608 9.319005,-4.108 13.900005,-4.108 11.789,0 20.024,8.466 20.024,20.59 0,8.242 -3.291,14.748 -9.515,18.814 -2.985,1.829 -8.164,3.804 -12.463,3.804 m 158.32,-38.891 c -1.873,0 -3.622,0.49 -4.92,1.38 -3.57,2.169 -5.387,6.498 -5.387,12.86 0,11.914 5.97,20.233 14.521,20.233 2.523,0 4.579,-0.725 6.288,-2.216 2.626,-2.14 4.02,-6.512 4.02,-12.634 0,-11.737 -5.837,-19.623 -14.522,-19.623 z m 1.645,38.891 c -15.448,0 -20.952,-11.317 -20.952,-21.907 0,-7.4 3.031,-13.185 9.007,-17.194 4.247,-2.608 9.318,-4.107 13.898,-4.107 11.79,0 20.025,8.468 20.025,20.589 0,8.244 -3.291,14.75 -9.515,18.813 -2.985,1.83 -8.163,3.806 -12.463,3.806 m -53.338,-39.296 c -4.762,0 -7.839,3.756 -7.839,9.57 0,5.866 2.646,12.716 10.102,12.716 1.28,0 3.602,-0.568 4.752,-1.835 1.732,-1.59 2.863,-4.875 2.863,-8.344 0,-7.582 -3.693,-12.107 -9.878,-12.107 z m -0.615,40.107 c -1.789,0 -3.09,0.52 -3.868,0.956 -3.769,2.414 -5.516,4.824 -5.516,7.6 0,2.616 1.017,4.695 3.202,6.544 2.647,2.24 6.215,3.33 10.91,3.33 9.233,0 13.373,-4.96 13.373,-9.875 0,-3.42 -1.719,-5.713 -5.254,-7.01 -2.725,-0.994 -7.276,-1.545 -12.847,-1.545 z m 0.615,23.56 c -5.545,0 -9.542,-1.169 -12.955,-3.792 -3.32,-2.56 -4.808,-6.357 -4.808,-8.98 0,-0.754 0.179,-2.704 1.819,-4.567 0.967,-1.097 3.205,-3.15 8.375,-6.701 a 0.425,0.425 0 0 0 0.269,-0.407 0.42,0.42 0 0 0 -0.324,-0.423 c -4.261,-1.63 -5.546,-4.304 -5.934,-5.755 a 3.124,3.124 0 0 0 -0.042,-0.224 c -0.123,-0.569 -0.237,-1.107 0.533,-1.66 0.597,-0.425 1.555,-0.992 2.57,-1.59 1.498,-0.884 3.195,-1.885 4.135,-2.69 a 0.643,0.643 0 0 0 0.174,-0.57 0.645,0.645 0 0 0 -0.345,-0.483 c -6.306,-2.117 -9.481,-6.796 -9.481,-13.921 0,-4.6 2.124,-8.758 5.825,-11.41 2.536,-2.001 8.902,-4.409 13.026,-4.409 l 0.24,0.003 c 4.244,0.1 6.635,0.988 9.945,2.212 1.798,0.665 3.499,0.935 5.879,0.935 3.512,0 5.046,-1.112 6.362,-2.389 0.075,0.158 0.255,0.66 0.335,1.816 0.084,1.179 -0.238,2.925 -1.14,4.172 -0.72,0.994 -2.383,1.714 -3.955,1.714 -0.157,0 -0.312,-0.007 -0.46,-0.023 -1.618,-0.158 -2.378,-0.394 -2.386,-0.397 l -0.396,0.138 c -0.125,0.182 -0.044,0.385 0.059,0.641 0.025,0.062 0.05,0.12 0.058,0.159 0.207,0.822 0.573,3.222 0.573,3.894 0,7.472 -2.951,10.731 -6.141,13.141 -3.044,2.295 -6.602,3.674 -10.612,4.097 h -0.003 c -0.082,0 -0.462,0.034 -1.228,0.102 -0.494,0.045 -1.109,0.1 -1.2,0.1 l -0.09,0.012 c -0.697,0.197 -2.505,1.056 -2.505,2.654 0,1.33 0.82,2.978 4.729,3.272 0.792,0.06 1.642,0.119 2.53,0.18 5.161,0.359 11.606,0.806 14.64,1.834 4.172,1.518 6.769,5.251 6.769,9.741 0,6.706 -4.774,13.012 -12.768,16.864 -3.877,1.824 -7.815,2.71 -12.072,2.71 m -25.363,-28.86 c -2.261,-0.305 -3.907,-0.61 -5.86,-1.524 -0.309,-0.203 -0.721,-1.117 -0.721,-1.422 -0.206,-3.148 -0.206,-12.286 -0.206,-18.276 0,-4.875 -0.822,-9.14 -2.878,-12.187 -2.467,-3.452 -5.962,-5.482 -10.487,-5.482 -4.009,0 -9.357,2.741 -13.777,6.499 -0.103,0.101 -0.782,0.745 -0.767,-0.255 0.015,-0.999 0.17,-3.032 0.262,-4.311 0.094,-1.28 -0.673,-1.883 -0.673,-1.883 -2.879,1.422 -10.987,3.347 -13.98,3.656 -2.189,0.421 -2.74,2.522 -0.41,3.248 0,0.004 0.022,0.008 0.035,0.012 2.438,0.733 4.081,1.516 5.307,2.324 0.926,0.711 0.823,1.727 0.823,2.54 0.102,6.802 0.102,17.262 -0.207,22.947 -0.102,2.235 -0.72,3.046 -2.365,3.453 l 0.15,-0.05 a 32.183,32.183 0 0 1 -3.803,0.71 c -0.515,0.507 -0.515,3.452 -0.002,4.062 1.03,0 6.274,-0.306 10.592,-0.306 5.962,0 9.047,0.306 10.59,0.306 0.616,-0.712 0.822,-3.454 0.411,-4.062 -1.749,-0.101 -2.983,-0.305 -4.216,-0.61 -1.645,-0.406 -2.057,-1.218 -2.158,-3.046 -0.206,-4.772 -0.206,-14.925 -0.206,-21.831 0,-1.93 0.514,-2.843 1.131,-3.351 2.055,-1.828 5.449,-3.045 8.431,-3.045 2.878,0 4.832,0.913 6.272,2.13 1.953,1.626 2.672,3.961 2.878,5.688 0.412,3.86 0.308,11.575 0.308,18.277 0,3.656 -0.308,4.57 -1.644,4.976 -0.617,0.305 -2.262,0.609 -4.216,0.812 -0.616,0.608 -0.411,3.452 0,4.062 2.674,0 5.759,-0.306 10.281,-0.306 5.656,0 9.254,0.306 10.694,0.306 0.616,-0.712 0.821,-3.352 0.411,-4.062" />
    <path
       style="fill:#c0bdba"
       inkscape:connector-curvature="0"
       id="path46"
       d="m 438.10503,-47.339467 h 1.74 c 1.407,0 1.942,-0.49 1.942,-1.762 0,-1.293 -0.514,-1.719 -2.098,-1.719 h -1.584 z m 3.704,5.466 -2.052,-4.418 h -1.652 v 4.418 h -1.205 v -10.04 h 2.97 c 2.207,0 3.122,0.983 3.122,2.812 0,1.47 -0.693,2.408 -1.985,2.677 l 2.118,4.55 z m -1.94,-12.247 c -4.04,0 -7.251,3.19 -7.251,7.25 a 7.193,7.193 0 0 0 7.227,7.205 7.19,7.19 0 0 0 7.207,-7.206 c 0,-4.081 -3.123,-7.249 -7.183,-7.249 z m -0.024,15.17 c -4.46,0 -7.94,-3.481 -7.94,-7.942 0,-4.485 3.48,-7.942 7.964,-7.942 4.373,0 7.918,3.502 7.918,7.829 0,4.528 -3.479,8.054 -7.942,8.054" />
  </g>
</svg>
