<?xml version="1.0" encoding="UTF-8" standalone="no"?>
<svg
   xmlns:dc="http://purl.org/dc/elements/1.1/"
   xmlns:cc="http://creativecommons.org/ns#"
   xmlns:rdf="http://www.w3.org/1999/02/22-rdf-syntax-ns#"
   xmlns:svg="http://www.w3.org/2000/svg"
   xmlns="http://www.w3.org/2000/svg"
   xmlns:sodipodi="http://sodipodi.sourceforge.net/DTD/sodipodi-0.dtd"
   xmlns:inkscape="http://www.inkscape.org/namespaces/inkscape"
   width="39.006641mm"
   height="39.00629mm"
   viewBox="0 0 39.006641 39.00629"
   version="1.1"
   id="svg17066"
   inkscape:version="1.0.1 (1.0.1+r74)"
   sodipodi:docname="moonMoon.svg">
  <defs
     id="defs17060">
    <clipPath
       clipPathUnits="userSpaceOnUse"
       id="clipPath166">
      <path
         d="m 7582.07,2175.6 c 0.69,5.37 1.34,10.8 1.94,16.2 l 48.8,-1.79 c -5.14,-4.76 -10.34,-9.45 -15.58,-14.04 l -35.16,-0.37 m 7.1,106.47 c 0,1.39 0.01,2.75 0.01,4.14 0,17.87 -0.55,35.57 -1.63,53.18 229.84,250.64 225,638.61 -15.76,879.37 -123.04,123.03 -284.46,184.45 -446.4,184.45 -112.37,0 -224.97,-29.58 -325.11,-88.7 -2.75,5.36 -5.67,10.74 -8.76,16.09 -8.73,18.17 -18.46,35.37 -29.03,51.65 115.25,66.03 244.1,99.08 372.67,99.08 189.83,0 379.05,-71.99 523.27,-216.21 266.71,-266.72 286.45,-687.54 60.4,-980.95 l -129.66,-2.1 m -1075.64,870 c 23.24,34.01 49.56,66.52 79,97.2 24.44,-15.91 46.77,-31.66 67.12,-46.98 -11.4,-12.03 -22.24,-24.38 -32.53,-37.04 -38.55,-2.12 -76.47,-6.56 -113.59,-13.18"
         id="path164" />
    </clipPath>
    <clipPath
       clipPathUnits="userSpaceOnUse"
       id="clipPath178">
      <path
         d="m 7577.25,2143.25 c 1.81,10.73 3.41,21.5 4.82,32.35 l 35.16,0.37 c -13.05,-11.44 -26.37,-22.33 -39.98,-32.72 m 55.56,46.76 -48.8,1.79 c 3.27,29.67 5.01,59.79 5.16,90.27 l 129.66,2.1 c -19.76,-25.65 -41.39,-50.32 -64.9,-73.83 -6.95,-6.95 -13.98,-13.71 -21.12,-20.33"
         id="path176" />
    </clipPath>
    <clipPath
       clipPathUnits="userSpaceOnUse"
       id="clipPath190">
      <path
         d="m 7587.55,2339.39 c -2.2,35.58 -6.57,70.62 -13,104.95 64.33,90.36 102.17,200.9 102.17,320.27 0,305.37 -247.5,552.87 -552.82,552.87 -107.65,0 -208.08,-30.74 -293.04,-83.94 -6.73,26.32 -16.55,53.64 -30.58,80.97 100.14,59.12 212.74,88.7 325.11,88.7 161.94,0 323.36,-61.42 446.4,-184.45 240.76,-240.76 245.6,-628.73 15.76,-879.37 m 139.86,367.43 c -5.15,0 -9.34,-3.52 -9.34,-7.86 0,-4.35 4.19,-7.87 9.34,-7.87 5.16,0 9.34,3.52 9.34,7.87 0,4.34 -4.18,7.86 -9.34,7.86 m -1100.29,458.43 c 10.29,12.66 21.13,25.01 32.53,37.04 16.32,-12.3 31.39,-24.34 45.19,-35.93 -8.41,0.22 -16.86,0.33 -25.32,0.33 -17.6,0 -35.04,-0.48 -52.4,-1.44"
         id="path188" />
    </clipPath>
    <clipPath
       clipPathUnits="userSpaceOnUse"
       id="clipPath202">
      <path
         d="m 7727.41,2691.09 c -5.15,0 -9.34,3.52 -9.34,7.87 0,4.34 4.19,7.86 9.34,7.86 5.16,0 9.34,-3.52 9.34,-7.86 0,-4.35 -4.18,-7.87 -9.34,-7.87"
         id="path200" />
    </clipPath>
    <radialGradient
       fx="0"
       fy="0"
       cx="0"
       cy="0"
       r="1"
       gradientUnits="userSpaceOnUse"
       gradientTransform="matrix(-13.696844,10.814826,4.4722695,5.6640586,142.32433,130.90155)"
       spreadMethod="pad"
       id="radialGradient5800">
      <stop
         style="stop-opacity:1;stop-color:#8643eb"
         offset="0"
         id="stop5796" />
      <stop
         style="stop-opacity:1;stop-color:#8939d1"
         offset="1"
         id="stop5798" />
    </radialGradient>
    <radialGradient
       fx="0"
       fy="0"
       cx="0"
       cy="0"
       r="1"
       gradientUnits="userSpaceOnUse"
       gradientTransform="matrix(-4.8202849,1.0493022,1.0493022,4.8202849,145.70182,132.69754)"
       spreadMethod="pad"
       id="radialGradient5812">
      <stop
         style="stop-opacity:1;stop-color:#5c1666"
         offset="0"
         id="stop5804" />
      <stop
         style="stop-opacity:1;stop-color:#5c1666"
         offset="0.0004719"
         id="stop5806" />
      <stop
         style="stop-opacity:1;stop-color:#5c1666"
         offset="0.01226545"
         id="stop5808" />
      <stop
         style="stop-opacity:1;stop-color:#450a81"
         offset="1"
         id="stop5810" />
    </radialGradient>
    <clipPath
       clipPathUnits="userSpaceOnUse"
       id="clipPath15902">
      <path
         d="m 6164.37,2729.62 c -5.16,0 -9.34,3.52 -9.34,7.86 0,4.35 4.18,7.87 9.34,7.87 5.15,0 9.33,-3.52 9.33,-7.87 0,-4.34 -4.18,-7.86 -9.33,-7.86"
         id="path15900" />
    </clipPath>
    <radialGradient
       fx="0"
       fy="0"
       cx="0"
       cy="0"
       r="1"
       gradientUnits="userSpaceOnUse"
       gradientTransform="matrix(909.651,0,0,-880.488,6679.52,2286.21)"
       spreadMethod="pad"
       id="radialGradient15908">
      <stop
         style="stop-opacity:1;stop-color:#e5d7ff"
         offset="0"
         id="stop15904" />
      <stop
         style="stop-opacity:1;stop-color:#e0d4ff"
         offset="1"
         id="stop15906" />
    </radialGradient>
    <clipPath
       clipPathUnits="userSpaceOnUse"
       id="clipPath15930">
      <path
         d="m 7343.98,2173.15 c 19.43,7.46 38.59,15.91 57.37,25.33 l 182.66,-6.68 c -0.6,-5.4 -1.25,-10.83 -1.94,-16.2 l -238.09,-2.45 m -675.6,3.85 -39.73,0.89 c -10.02,8.99 -19.87,18.32 -29.5,27.95 -7.29,7.29 -14.39,14.68 -21.31,22.2 l 64.18,-1.79 39.15,-1.43 -12.79,-47.82 m -122.57,88.2 c -205.97,255.63 -216.43,617.35 -32.28,886.87 37.12,6.62 75.04,11.06 113.59,13.18 -203.9,-250.76 -190.6,-618.56 40.99,-850.16 9.68,-9.68 19.6,-18.98 29.73,-27.89 l -5.24,-19.62 -146.79,-2.38 m -10.26,168.63 c -5.16,0 -9.33,-3.52 -9.33,-7.86 0,-4.35 4.17,-7.87 9.33,-7.87 5.15,0 9.33,3.52 9.33,7.87 0,4.34 -4.18,7.86 -9.33,7.86 m 991.15,-152.77 c 14.15,11.91 27.92,24.54 41.25,37.87 6.72,6.71 13.24,13.52 19.6,20.46 1.08,-17.61 1.63,-35.31 1.63,-53.18 0,-1.39 -0.01,-2.75 -0.01,-4.14 l -62.47,-1.01"
         id="path15928" />
    </clipPath>
    <clipPath
       clipPathUnits="userSpaceOnUse"
       id="clipPath15942">
      <path
         d="m 6535.55,2418.1 c -5.16,0 -9.33,3.52 -9.33,7.87 0,4.34 4.17,7.86 9.33,7.86 5.15,0 9.33,-3.52 9.33,-7.86 0,-4.35 -4.18,-7.87 -9.33,-7.87"
         id="path15940" />
    </clipPath>
    <clipPath
       clipPathUnits="userSpaceOnUse"
       id="clipPath15954">
      <path
         d="m 7307.28,2012.74 -81.86,127.57 c 40.24,7.08 79.96,18.02 118.56,32.84 l 238.09,2.45 c -1.41,-10.85 -3.01,-21.62 -4.82,-32.35 -82.16,-62.67 -174.22,-106.19 -269.97,-130.51 m -646.03,137.57 c -11.08,8.84 -21.93,18.02 -32.6,27.58 l 39.73,-0.89 -7.13,-26.69 m 922.76,41.49 -182.66,6.68 c 44.1,22.12 86.22,49.65 125.35,82.58 l 62.47,1.01 c -0.15,-30.48 -1.89,-60.6 -5.16,-90.27 m -902.84,33.02 -39.15,1.43 -64.18,1.79 c -11.14,12.1 -21.84,24.52 -32.03,37.16 l 146.79,2.38 -11.43,-42.76"
         id="path15952" />
    </clipPath>
    <clipPath
       clipPathUnits="userSpaceOnUse"
       id="clipPath15966">
      <path
         d="m 7205.27,2171.73 -22.3,34.73 218.38,-7.98 c -18.78,-9.42 -37.94,-17.87 -57.37,-25.33 l -138.71,-1.42 m 182.7,107.09 c 74.09,40.35 137.91,97.16 186.58,165.52 6.43,-34.33 10.8,-69.37 13,-104.95 -6.36,-6.94 -12.88,-13.75 -19.6,-20.46 -13.33,-13.33 -27.1,-25.96 -41.25,-37.87 l -138.73,-2.24 m -690.13,8.38 c -10.13,8.91 -20.05,18.21 -29.73,27.89 -231.59,231.6 -244.89,599.4 -40.99,850.16 17.36,0.96 34.8,1.44 52.4,1.44 8.46,0 16.91,-0.11 25.32,-0.33 7.33,-6.16 14.31,-12.2 20.95,-18.09 -71.52,-74.21 -122.51,-168.4 -143.77,-273.33 -1.09,0.37 -2.28,0.58 -3.52,0.58 -5.16,0 -9.34,-3.52 -9.34,-7.87 0,-4.35 4.18,-7.87 9.34,-7.87 0.22,0 0.45,0.01 0.68,0.03 -2.02,-11.63 -3.67,-23.36 -4.95,-35.22 -2.11,-19.7 -3.21,-39.71 -3.21,-59.98 0,-45.85 5.59,-90.39 16.1,-132.96 3.37,-13.67 7.27,-27.16 11.64,-40.41 -0.05,-1.02 -0.01,-2.01 0.22,-2.96 0.56,-2.32 1.9,-4.08 2.88,-6.17 0.3,-0.86 0.61,-1.75 0.92,-2.61 1.79,-6.76 1.81,-13.45 3.83,-20.43 1.39,-4.81 5.49,-10.75 7.52,-15.79 2.69,-6.65 6.38,-14.14 10.13,-20.25 5.94,-9.67 10.47,-19.49 15.49,-29.59 5.45,-10.97 12.72,-20.48 20.32,-29.81 18.68,-28.71 39.95,-55.59 63.48,-80.29 l -25.71,-96.14"
         id="path15964" />
    </clipPath>
    <clipPath
       clipPathUnits="userSpaceOnUse"
       id="clipPath15978">
      <path
         d="m 6578.5,2859.78 c -5.16,0 -9.34,3.52 -9.34,7.87 0,4.35 4.18,7.87 9.34,7.87 1.24,0 2.43,-0.21 3.52,-0.58 -1.02,-5.03 -1.96,-10.06 -2.84,-15.13 -0.23,-0.02 -0.46,-0.03 -0.68,-0.03"
         id="path15976" />
    </clipPath>
    <clipPath
       clipPathUnits="userSpaceOnUse"
       id="clipPath15990">
      <path
         d="m 7225.42,2140.31 -20.15,31.42 138.71,1.42 c -38.6,-14.82 -78.32,-25.76 -118.56,-32.84 m 175.93,58.17 -218.38,7.98 -5.08,7.93 c 75.49,7.32 146.58,29.83 210.08,64.43 l 138.73,2.24 c -39.13,-32.93 -81.25,-60.46 -125.35,-82.58"
         id="path15988" />
    </clipPath>
    <clipPath
       clipPathUnits="userSpaceOnUse"
       id="clipPath16002">
      <path
         d="m 7177.89,2214.39 -67.4,105.03 c 10.86,-6.09 19.78,-14.94 34.44,-15.73 1.37,-0.08 2.71,-0.11 4.02,-0.11 16.44,0 27.85,5.63 42.87,10.23 15.2,4.66 32.95,11.29 47.06,16.63 15.42,5.83 29.2,9.96 45.19,15.07 13.72,4.39 22.1,12.61 35.94,12.61 3.42,0 7.19,-0.5 11.45,-1.69 1.34,-7.98 -0.61,-20.6 9.19,-24.6 1.06,-0.43 2.22,-0.62 3.46,-0.62 6.67,0 15.58,5.42 21.66,7.76 18.76,7.21 35.72,11.17 53.54,18.64 8.62,3.61 14.88,3.36 23.63,9.86 8.38,6.23 17.41,10.89 26.14,16.73 16.17,10.81 32.07,22.54 48.16,33.49 21.52,14.64 37.71,33.05 51.9,53.17 1.94,-8.79 3.74,-17.64 5.41,-26.52 -48.67,-68.36 -112.49,-125.17 -186.58,-165.52 -63.5,-34.6 -134.59,-57.11 -210.08,-64.43 m 78.11,28.14 c 1.34,0 2.67,0 3.99,-0.02 0.1,0 0.19,0 0.29,0 3.01,0 5.37,0.62 7.74,1.25 2.37,0.62 4.75,1.24 7.8,1.24 0.14,0 0.28,0 0.43,0 0.18,0 0.36,0 0.54,0 6.68,0 12.17,2.31 18.21,3.75 11.2,2.67 21.78,6.04 32.5,10.57 9.58,4.04 16.99,10.95 24.44,18.18 9.27,8.99 10.56,21.08 1.18,30.62 -3.84,3.9 -7.36,4.5 -11.72,4.5 -0.96,0 -1.96,-0.03 -3.01,-0.06 -1.07,-0.03 -2.2,-0.06 -3.39,-0.06 -2.5,0 -5,0 -7.41,0 -4.81,0 -9.26,0 -12.59,0 -2.75,3.28 -9.99,5.11 -15.31,5.11 -1.29,0 -2.47,-0.11 -3.44,-0.33 -6.37,-1.43 -11.32,-3.65 -17.47,-4.71 -12.44,-2.15 -28.17,-8.43 -38.84,-15 -15.6,-9.62 -42.97,-36.71 -16.49,-50.37 8.65,-4.46 19.04,-4.67 29.26,-4.67 0.51,0 1.03,0 1.55,0 0.58,0 1.16,0 1.74,0 m 125.57,73.73 c 2.91,-4.28 8.9,-6.65 14.3,-6.65 2.49,0 4.85,0.5 6.72,1.55 6.2,3.47 14.11,13.05 12.5,20.18 -1,4.39 -3.65,5.89 -6.9,5.89 -4.87,0 -11.08,-3.36 -15.06,-5.36 -3.98,-1.98 -18.06,-10.97 -15.31,-16.62 0.38,-0.09 0.74,-0.13 1.08,-0.13 1.03,0 1.92,0.38 2.67,1.14 m 78.22,46.2 c -5.51,-4.69 -6.65,-14.02 1.64,-17.27 2.05,-0.8 4.42,-1.17 6.93,-1.17 8.14,0 17.64,3.93 21.67,9.71 3.58,5.15 2.84,8.94 0.58,14.39 -2.54,6.1 -3.75,6.86 -10.61,6.86 0,0 0,0 -0.01,0 -5.22,0 -19.36,-5.02 -20.2,-12.52 m -78.22,-46.2 c -0.75,1.12 -1.3,2.37 -1.57,3.74 l 2.5,-2.5 c -0.28,-0.49 -0.59,-0.9 -0.93,-1.24 M 7460,2360 c -0.23,0.85 -0.29,1.66 -0.21,2.46 1.46,1.24 3.23,2.15 5.21,2.54 l -5,-5 m -736.45,23.34 c -23.53,24.7 -44.8,51.58 -63.48,80.29 6.87,-8.43 13.99,-16.71 20.27,-25.77 6.77,-9.77 13.33,-19.1 21.78,-27.7 4.1,-4.17 8.23,-5.74 12.59,-9.18 3.92,-3.09 6.95,-7.47 10.66,-10.82 l -1.82,-6.82 m 609.64,47.35 c -2.48,0 -4.96,0.08 -7.45,0.23 -13.32,0.84 -22.99,6.23 -33.46,13.55 -8.05,5.63 -18.82,15.87 -28.32,18.58 -3.25,0.92 -6.11,1.08 -8.96,1.08 -0.7,0 -1.4,-0.01 -2.11,-0.02 -0.7,-0.01 -1.41,-0.02 -2.13,-0.02 -1.76,0 -3.58,0.05 -5.56,0.29 -9.43,1.16 -11.25,5.06 -19.54,7.2 -2.11,0.55 -4.13,0.79 -6.08,0.79 -11.19,0 -19.93,-8.02 -29.44,-12.84 -7.88,-4 -16.96,-9.41 -26.39,-9.41 -1.92,0 -3.85,0.22 -5.79,0.73 -11.08,2.88 -23.95,10.01 -34.61,12.22 -10.23,2.12 -22.99,3.68 -35.93,3.68 -19.38,0 -39.17,-3.51 -51.44,-13.92 -2.54,-2.16 -4.68,-4.53 -6.59,-7.01 l -40.44,63.03 c 1.52,0.81 2.93,1.47 4.47,2.09 5.24,-6.06 11.09,-12.15 17.6,-16.23 3.16,-1.99 5.81,-2.93 8.02,-2.93 4.61,0 7.32,4.07 8.82,11.16 1.15,5.38 -1.76,8.7 -2.73,12.58 -1.13,4.45 -0.05,9.19 -4.77,11.98 -1.97,1.17 -5.1,1.8 -8.41,1.8 -7.64,0 -16.3,-3.34 -14.34,-11.17 l -8.91,-8.9 -107.16,167 -108.08,-106.23 -10.89,-40.73 c -1.46,-0.37 -2.91,-0.73 -4.37,-1.09 -13.95,-3.44 -25.93,-10.68 -28.62,-26.79 -1.34,-8 1.73,-16.92 -0.13,-24.82 -0.55,-2.39 -2.53,-4.13 -3.18,-6.86 -0.9,-3.72 1.41,-8.37 0.28,-12.01 -1.04,-3.34 -3.81,-3.68 -5.31,-6.41 -2.1,-3.83 -0.91,-6.1 -1.46,-10.25 -0.67,-4.9 -2.17,-6.63 -4.47,-6.63 -1.99,0 -4.58,1.3 -7.74,2.96 -10.29,5.41 -21.24,14.71 -27.31,24.67 -3.11,5.09 -5.66,12.67 -7.13,17.91 -1.24,4.49 -5.21,12.62 -3.14,16.86 2.41,-1.41 11.7,-3.22 18.53,-3.22 3.38,0 6.16,0.44 7.21,1.6 3.17,3.47 -2.59,15.05 -3.55,18.86 -2.5,9.81 -11.61,28.67 -5.31,40.25 1.37,2.5 4.48,4.85 6.02,7.38 1.32,2.13 2.21,4.45 3.36,6.68 3.25,6.23 4.71,12.13 2.6,19.34 -1.09,3.68 -6.05,11.45 -9.96,13.48 -1.27,0.65 -2.57,0.86 -3.89,0.86 -1.13,0 -2.27,-0.15 -3.41,-0.3 -1.14,-0.15 -2.28,-0.3 -3.41,-0.3 -0.73,0 -1.46,0.06 -2.19,0.23 -3.3,0.78 -4.54,3 -8.06,3.65 -7.82,1.44 -14.46,1.32 -22.08,3.03 -5.53,1.24 -13.07,5.78 -17.47,9.4 -6.39,5.28 -5.95,9.4 -5.8,17.57 0.08,4.23 -0.77,6.58 -1.66,10.05 -0.72,2.79 -0.64,7.37 -1.51,10.22 -1.31,4.29 -7.4,10.71 -10.04,13.97 -6.12,7.55 -10.47,8.98 -10.22,19.34 0.21,8.41 -3.42,13.12 -3.34,21.77 0.04,4.41 2.58,21.69 -4.69,21.69 -0.44,0 -0.92,-0.06 -1.44,-0.2 -1.45,-4.48 0.64,-8.91 -0.4,-13.3 -0.75,-3.18 -2.92,-4.7 -3.65,-8.07 -1.55,-7.26 -0.36,-17.73 0.05,-25.24 0.44,-8.19 3.5,-14.81 3.43,-23.43 -0.03,-3.6 -0.87,-8.37 -0.13,-11.85 0.73,-3.39 2.87,-4.89 3.65,-8.07 1.04,-4.29 -1.39,-9.45 -0.34,-13.74 0.77,-3.19 2.92,-4.69 3.64,-8.07 0.8,-3.8 -1.21,-8.26 -0.3,-12.02 0.78,-3.19 2.93,-4.69 3.65,-8.08 0.59,-2.83 -0.38,-6.04 -0.52,-9.05 -4.37,13.25 -8.27,26.74 -11.64,40.41 -10.51,42.57 -16.1,87.11 -16.1,132.96 0,20.27 1.1,40.28 3.21,59.98 1.28,11.86 2.93,23.59 4.95,35.22 0.88,5.07 1.82,10.1 2.84,15.13 21.26,104.93 72.25,199.12 143.77,273.33 8.98,-7.97 17.34,-15.7 25.1,-23.11 -2,-1.38 -3.96,-2.83 -5.84,-4.41 -16.78,-14.12 -29.3,-32.08 -40.42,-50.14 -6.28,-10.2 -11.42,-20.06 -17.58,-30.23 -3.09,-5.11 -5.73,-9.24 -7.95,-14.84 -2.44,-6.15 -3.81,-13.22 -6.19,-18.65 -2.6,-5.9 -2.8,-9.39 -4.19,-15.89 -0.89,-4.17 -4.3,-10.74 -5.2,-14.89 -0.72,-3.25 -0.25,-6.15 -0.66,-9.39 -0.5,-3.9 -2.57,-5.45 -3.15,-8.57 -1.09,-5.77 -1.21,-15.53 0.22,-21.22 0.42,-0.07 0.82,-0.11 1.2,-0.11 2.07,0 3.73,1.07 4.99,3.2 -3.16,4.28 -2.97,5.21 -2.78,6.13 2.11,0.62 4.3,0.83 6.53,0.83 2.39,0 4.82,-0.24 7.26,-0.48 2.43,-0.24 4.87,-0.49 7.25,-0.49 1.82,0 3.61,0.15 5.36,0.54 6.02,1.36 11.51,7.93 17.3,9.45 1.26,0.32 2.25,0.46 3.07,0.46 2.86,0 3.75,-1.61 6.98,-2.29 3.99,-0.85 7.9,-0.72 11.91,-1.5 2.57,-0.5 7.44,-2.5 10.79,-3.34 5.03,-1.23 7.61,-2.6 12.97,-2.6 0.14,0 0.28,0 0.41,0 0.26,0.01 0.51,0.01 0.76,0.01 1.57,0 3.08,-0.06 4.55,-0.12 1.48,-0.06 2.92,-0.12 4.31,-0.12 4.72,0 8.97,0.69 12.98,4.42 6.56,6.11 8.57,13.81 11.72,21.84 3.24,8.23 7.21,13.88 5.12,23.44 -1.63,0.8 -2.56,2.1 -2.79,3.93 0.13,2.29 0.25,4.58 0.38,6.87 -0.62,3.7 -2.46,8.21 -3.54,11.71 -2.67,8.57 -3.39,15.92 -3.35,25.11 0.05,9.88 -0.12,18.45 -9.22,24.44 -9.31,6.12 -36.19,12.64 -20.06,28.28 4.99,4.85 10.6,7.2 15.84,9.94 11.49,-11.67 21.3,-22.32 29.51,-31.69 22,-26.35 33.81,-42.85 33.81,-42.85 v 0 c 0,0 14.02,50.15 10.07,120.52 230.11,-40.48 430.03,-164.74 564.83,-338.96 -2.12,-1.59 -3.9,-3.12 -4.96,-4.12 -3.07,-2.88 -6.33,-5.76 -8.19,-9.32 -2.49,-4.75 -2.25,-10.62 -2.41,-16.31 -0.2,-6.18 -2.56,-11.12 -2.53,-17.5 0.04,-6.62 0.58,-12.71 2.43,-18.88 3.21,-10.7 11.09,-18.72 20.08,-24.87 4.56,-3.12 10.03,-5.4 15.05,-8.12 3.94,-2.13 5.53,-3.54 7.68,-3.54 1.4,0 3.03,0.59 5.7,1.97 7.7,3.99 16.03,7.82 22.18,14.07 0.85,0.87 1.7,1.73 2.55,2.59 9.57,-15.87 18.61,-31.99 27.17,-48.48 -11.04,-9.12 -22.63,-17.17 -31.33,-23.88 -16.35,-12.63 -40.94,-19.07 -47.19,-40.04 -6.69,-22.41 8.76,-41.11 16.9,-60.27 8.52,-20.01 15.9,-55.17 3.48,-73.96 -5.3,-8.02 -15.62,-12.79 -23.57,-16.61 -11.76,-5.66 -16.22,-12.71 -26.61,-20.27 -14.89,-10.84 -32.92,-15.27 -51.33,-15.27 m -40.96,81.81 c -9.65,0 -22.17,-11.06 -27.91,-19.32 -7.88,-11.38 6.81,-23.12 15,-28.81 3.01,-2.1 5.91,-4.27 9.46,-5.68 2.11,-0.84 6.69,-3.99 8.64,-4 0.01,0 0.02,0 0.02,0 5.9,0 8.15,14.11 10.36,18.75 7.03,14.72 -4.19,25.38 -15.3,34.06 v 5 c -0.09,0 -0.18,0 -0.27,0 m 92.77,7.74 c -0.5,-3.13 -2.45,-7.75 -3.05,-9.69 -1.08,-3.52 -2.88,-8.33 -4.45,-11.8 -1.74,-3.84 -2.93,-8.07 -3.75,-12.5 -0.85,-4.58 -3.08,-8.24 -3.87,-12.43 -1.56,-8.25 6.69,-14.32 14.49,-14.32 1.1,0 2.2,0.12 3.26,0.37 7.54,1.82 14.33,7.69 20.43,12.07 4.11,2.96 5.21,2.36 7.56,7.45 2,4.3 2.93,8.77 4.31,13.24 1.4,4.52 2.61,7.04 2.57,12.37 -0.03,4.96 0.61,10.2 -0.57,14.99 -2.14,8.79 -7.06,12.2 -12.67,12.2 -9.46,0 -20.87,-9.68 -24.26,-19.69 v 7.74 c 0.15,0.91 0.17,1.7 0,2.26 v -2.26 m -45,-30.24 -2.5,-2.5 c 5.59,0.1 17.73,0.57 17.67,8.75 -0.02,4.73 -9.74,13.51 -14.6,13.51 -0.07,0 -0.14,0 -0.21,-0.01 -0.54,-6.68 -5.67,-14.29 -2.43,-21.4 l 2.07,1.65 m 5.81,117.87 c -3.06,0 -6.09,-0.67 -7.8,-3.38 -3.06,-4.81 1.34,-10.03 2.12,-14.49 0.85,-4.81 -1.11,-10.19 -0.26,-15 0.48,-2.72 2.19,-4.79 2.76,-7.5 0.49,-2.38 -0.49,-5.14 -0.19,-7.56 0.3,-2.41 1.48,-3.63 2,-5.5 0.67,-2.34 -0.22,-4.88 0.43,-7.07 0.82,-2.76 4.78,-6.75 7.63,-7.37 l 2.5,-7.5 c 3.84,-1.86 10.99,-3.4 17.42,-3.4 3.98,0 7.69,0.59 10.17,2.06 6.54,3.87 9.59,12.54 11.16,18.84 1.83,7.37 3.15,20.83 1.34,28.84 -1.96,8.61 -9.5,13.93 -16.55,18.66 -4.47,2.99 -10.81,5.71 -16.03,6.94 -4.45,1.05 -8.15,2.59 -12.45,3.12 -1.33,0.16 -2.8,0.31 -4.25,0.31 M 7410,2546.6 c -1.12,-6.09 1.97,-8.75 5.68,-8.75 3.67,0 7.94,2.58 9.43,7.02 1.95,5.82 -2.49,9.35 -7.09,9.35 -3.51,0 -7.11,-2.05 -8.02,-6.72 v -0.9 m -754.56,98.17 c 0.97,-6.16 3.54,-14.11 7.57,-16.76 1.09,-0.72 2.39,-1.03 3.81,-1.03 6.29,0 14.84,6.15 17.05,10.5 4.28,8.42 0.27,16.78 -6.94,21.89 -3.23,2.28 -10.43,5.6 -14.49,5.81 -0.15,0.01 -0.3,0.02 -0.45,0.02 -3.73,0 -7.77,-2.35 -11.62,-3.07 -1.2,-4.82 -1.98,-17.11 5.07,-17.36 m 174.44,221.94 c -0.95,-4.81 -5.71,-7.91 -6.8,-12.27 -1.23,-4.82 0.86,-8.74 3.74,-12.62 2.08,-2.83 5.89,-7.1 9.73,-7.1 0.34,0 0.67,0.03 1.01,0.1 4.13,0.85 6.64,6.55 9.87,8.99 6.58,4.96 18.23,9.99 10.09,19.96 -3.27,4 -8.81,5.61 -13.77,6.32 -1.28,0.19 -2.45,0.28 -3.52,0.28 -4.13,0 -6.96,-1.33 -10.35,-3.66 0.05,0.26 0.09,0.52 0.12,0.79 l -2.5,-2.5 c 0.84,0.62 1.62,1.19 2.38,1.71 m -143.05,68.5 c -1.9,0 -3.87,-0.11 -5.61,-0.19 -3.29,-0.13 -4.48,-1.47 -6.78,-1.96 -5.48,-1.2 -9.77,-0.75 -14.51,-4.25 -7.46,-5.51 -13.04,-14.5 -17.46,-22.32 -5.52,-9.75 -9.97,-19.8 -9.97,-31.49 0,-5.06 -0.12,-9.32 2.78,-13.47 3.04,-4.35 4.59,-7.4 6.6,-12.15 4.53,-10.64 8.62,-14.28 20.62,-14.37 0.07,0 0.14,0 0.21,0 10.78,0 20.77,6.22 29.76,11.18 4.3,2.36 7.74,5.78 11.55,8.53 3.29,2.36 7.14,4.02 9.8,7.72 6.36,8.85 7.41,20.28 9.93,30.06 1.34,5.21 2.36,12.8 1.03,18.53 -0.25,1.11 -1.5,1.21 -1.72,2.03 -0.53,1.93 0.01,3.95 -0.49,5.76 -0.79,2.84 -3.44,5.44 -2.57,8.68 l -0.49,2.02 c -2.55,0.21 -3.9,2.23 -5.98,2.76 -1.16,0.3 -2.4,0.38 -3.66,0.38 -1.63,0 -3.29,-0.14 -4.87,-0.16 -0.1,0 -0.2,0 -0.3,0 -5.89,0 -9.34,1.96 -14.64,2.56 -1.01,0.11 -2.11,0.15 -3.23,0.15 m 69.5,-10.68 c -7.01,0 -15.06,-16.86 -8.83,-17.03 l -5,-2.5 c -0.21,-9.65 7.15,-14.4 14.38,-14.4 8.17,0 16.17,6.06 12.91,17.93 -1.44,5.21 -6.85,15.17 -12.91,15.96 -0.19,0.02 -0.37,0.04 -0.55,0.04 M 7410,2545 v 1.6 c 0,0.02 0.01,0.04 0.01,0.06 L 7410,2545 m -807.22,34.5 c -0.31,0.86 -0.62,1.75 -0.92,2.61 0.29,-0.61 0.54,-1.25 0.74,-1.94 0.06,-0.22 0.12,-0.44 0.18,-0.67 m 52.88,65.27 c -0.08,0 -0.15,0 -0.22,0 -0.32,2.02 -0.47,3.85 -0.44,5.23 l 2.5,-5 c -0.66,-0.16 -1.28,-0.23 -1.84,-0.23"
         id="path16000" />
    </clipPath>
    <radialGradient
       fx="0"
       fy="0"
       cx="0"
       cy="0"
       r="1"
       gradientUnits="userSpaceOnUse"
       gradientTransform="matrix(909.651,0,0,-880.488,6679.52,2286.21)"
       spreadMethod="pad"
       id="radialGradient16008">
      <stop
         style="stop-opacity:1;stop-color:#ffffff"
         offset="0"
         id="stop16004" />
      <stop
         style="stop-opacity:1;stop-color:#ffffff"
         offset="1"
         id="stop16006" />
    </radialGradient>
    <clipPath
       clipPathUnits="userSpaceOnUse"
       id="clipPath16018">
      <path
         d="m 7148.95,2303.58 c -1.31,0 -2.65,0.03 -4.02,0.11 -14.66,0.79 -23.58,9.64 -34.44,15.73 l -81.1,126.4 c 1.91,2.48 4.05,4.85 6.59,7.01 12.27,10.41 32.06,13.92 51.44,13.92 12.94,0 25.7,-1.56 35.93,-3.68 10.66,-2.21 23.53,-9.34 34.61,-12.22 1.94,-0.51 3.87,-0.73 5.79,-0.73 9.43,0 18.51,5.41 26.39,9.41 9.51,4.82 18.25,12.84 29.44,12.84 1.95,0 3.97,-0.24 6.08,-0.79 8.29,-2.14 10.11,-6.04 19.54,-7.2 1.98,-0.24 3.8,-0.29 5.56,-0.29 0.72,0 1.43,0.01 2.13,0.02 0.71,0.01 1.41,0.02 2.11,0.02 2.85,0 5.71,-0.16 8.96,-1.08 9.5,-2.71 20.27,-12.95 28.32,-18.58 10.47,-7.32 20.14,-12.71 33.46,-13.55 2.49,-0.15 4.97,-0.23 7.45,-0.23 18.41,0 36.44,4.43 51.33,15.27 10.39,7.56 14.85,14.61 26.61,20.27 7.95,3.82 18.27,8.59 23.57,16.61 12.42,18.79 5.04,53.95 -3.48,73.96 -8.14,19.16 -23.59,37.86 -16.9,60.27 6.25,20.97 30.84,27.41 47.19,40.04 8.7,6.71 20.29,14.76 31.33,23.88 34.12,-65.74 60.01,-136.25 76.3,-210.13 -14.19,-20.12 -30.38,-38.53 -51.9,-53.17 -16.09,-10.95 -31.99,-22.68 -48.16,-33.49 -8.73,-5.84 -17.76,-10.5 -26.14,-16.73 -8.75,-6.5 -15.01,-6.25 -23.63,-9.86 -17.82,-7.47 -34.78,-11.43 -53.54,-18.64 -6.08,-2.34 -14.99,-7.76 -21.66,-7.76 -1.24,0 -2.4,0.19 -3.46,0.62 -9.8,4 -7.85,16.62 -9.19,24.6 -4.26,1.19 -8.03,1.69 -11.45,1.69 -13.84,0 -22.22,-8.22 -35.94,-12.61 -15.99,-5.11 -29.77,-9.24 -45.19,-15.07 -14.11,-5.34 -31.86,-11.97 -47.06,-16.63 -15.02,-4.6 -26.43,-10.23 -42.87,-10.23"
         id="path16016" />
    </clipPath>
    <radialGradient
       fx="0"
       fy="0"
       cx="0"
       cy="0"
       r="1"
       gradientUnits="userSpaceOnUse"
       gradientTransform="matrix(909.651,0,0,-880.488,6679.52,2286.21)"
       spreadMethod="pad"
       id="radialGradient16024">
      <stop
         style="stop-opacity:1;stop-color:#e5e1f5"
         offset="0"
         id="stop16020" />
      <stop
         style="stop-opacity:1;stop-color:#e0dfef"
         offset="1"
         id="stop16022" />
    </radialGradient>
    <clipPath
       clipPathUnits="userSpaceOnUse"
       id="clipPath16034">
      <path
         d="m 6660.07,2463.63 c -7.6,9.33 -14.87,18.84 -20.32,29.81 -5.02,10.1 -9.55,19.92 -15.49,29.59 -3.75,6.11 -7.44,13.6 -10.13,20.25 -2.03,5.04 -6.13,10.98 -7.52,15.79 -2.02,6.98 -2.04,13.67 -3.83,20.43 14.59,-41.08 33.91,-79.91 57.29,-115.87 m -58.21,118.48 c -0.98,2.09 -2.32,3.85 -2.88,6.17 -0.23,0.95 -0.27,1.94 -0.22,2.96 1.01,-3.06 2.04,-6.09 3.1,-9.13"
         id="path16032" />
    </clipPath>
    <clipPath
       clipPathUnits="userSpaceOnUse"
       id="clipPath16046">
      <path
         d="m 6725.37,2390.16 c -3.71,3.35 -6.74,7.73 -10.66,10.82 -4.36,3.44 -8.49,5.01 -12.59,9.18 -8.45,8.6 -15.01,17.93 -21.78,27.7 -6.28,9.06 -13.4,17.34 -20.27,25.77 -23.38,35.96 -42.7,74.79 -57.29,115.87 -0.06,0.23 -0.12,0.45 -0.18,0.67 -0.2,0.69 -0.45,1.33 -0.74,1.94 -1.06,3.04 -2.09,6.07 -3.1,9.13 0.14,3.01 1.11,6.22 0.52,9.05 -0.72,3.39 -2.87,4.89 -3.65,8.08 -0.91,3.76 1.1,8.22 0.3,12.02 -0.72,3.38 -2.87,4.88 -3.64,8.07 -1.05,4.29 1.38,9.45 0.34,13.74 -0.78,3.18 -2.92,4.68 -3.65,8.07 -0.74,3.48 0.1,8.25 0.13,11.85 0.07,8.62 -2.99,15.24 -3.43,23.43 -0.41,7.51 -1.6,17.98 -0.05,25.24 0.73,3.37 2.9,4.89 3.65,8.07 1.04,4.39 -1.05,8.82 0.4,13.3 0.52,0.14 1,0.2 1.44,0.2 7.27,0 4.73,-17.28 4.69,-21.69 -0.08,-8.65 3.55,-13.36 3.34,-21.77 -0.25,-10.36 4.1,-11.79 10.22,-19.34 2.64,-3.26 8.73,-9.68 10.04,-13.97 0.87,-2.85 0.79,-7.43 1.51,-10.22 0.89,-3.47 1.74,-5.82 1.66,-10.05 -0.15,-8.17 -0.59,-12.29 5.8,-17.57 4.4,-3.62 11.94,-8.16 17.47,-9.4 7.62,-1.71 14.26,-1.59 22.08,-3.03 3.52,-0.65 4.76,-2.87 8.06,-3.65 0.73,-0.17 1.46,-0.23 2.19,-0.23 1.13,0 2.27,0.15 3.41,0.3 1.14,0.15 2.28,0.3 3.41,0.3 1.32,0 2.62,-0.21 3.89,-0.86 3.91,-2.03 8.87,-9.8 9.96,-13.48 2.11,-7.21 0.65,-13.11 -2.6,-19.34 -1.15,-2.23 -2.04,-4.55 -3.36,-6.68 -1.54,-2.53 -4.65,-4.88 -6.02,-7.38 -6.3,-11.58 2.81,-30.44 5.31,-40.25 0.96,-3.81 6.72,-15.39 3.55,-18.86 -1.05,-1.16 -3.83,-1.6 -7.21,-1.6 -6.83,0 -16.12,1.81 -18.53,3.22 -2.07,-4.24 1.9,-12.37 3.14,-16.86 1.47,-5.24 4.02,-12.82 7.13,-17.91 6.07,-9.96 17.02,-19.26 27.31,-24.67 3.16,-1.66 5.75,-2.96 7.74,-2.96 2.3,0 3.8,1.73 4.47,6.63 0.55,4.15 -0.64,6.42 1.46,10.25 1.5,2.73 4.27,3.07 5.31,6.41 1.13,3.64 -1.18,8.29 -0.28,12.01 0.65,2.73 2.63,4.47 3.18,6.86 1.86,7.9 -1.21,16.82 0.13,24.82 2.69,16.11 14.67,23.35 28.62,26.79 1.46,0.36 2.91,0.72 4.37,1.09 l -37.2,-139.11"
         id="path16044" />
    </clipPath>
    <radialGradient
       fx="0"
       fy="0"
       cx="0"
       cy="0"
       r="1"
       gradientUnits="userSpaceOnUse"
       gradientTransform="matrix(909.651,0,0,-880.488,6679.52,2286.21)"
       spreadMethod="pad"
       id="radialGradient16052">
      <stop
         style="stop-opacity:1;stop-color:#e5e1f5"
         offset="0"
         id="stop16048" />
      <stop
         style="stop-opacity:1;stop-color:#e0dfef"
         offset="1"
         id="stop16050" />
    </radialGradient>
    <clipPath
       clipPathUnits="userSpaceOnUse"
       id="clipPath16062">
      <path
         d="m 7019.04,2491.78 c -2.21,0 -4.86,0.94 -8.02,2.93 -6.51,4.08 -12.36,10.17 -17.6,16.23 -1.54,-0.62 -2.95,-1.28 -4.47,-2.09 l -0.25,0.38 8.91,8.9 c -1.96,7.83 6.7,11.17 14.34,11.17 3.31,0 6.44,-0.63 8.41,-1.8 4.72,-2.79 3.64,-7.53 4.77,-11.98 0.97,-3.88 3.88,-7.2 2.73,-12.58 -1.5,-7.09 -4.21,-11.16 -8.82,-11.16"
         id="path16060" />
    </clipPath>
    <radialGradient
       fx="0"
       fy="0"
       cx="0"
       cy="0"
       r="1"
       gradientUnits="userSpaceOnUse"
       gradientTransform="matrix(909.651,0,0,-880.488,6679.52,2286.21)"
       spreadMethod="pad"
       id="radialGradient16068">
      <stop
         style="stop-opacity:1;stop-color:#e5e1f5"
         offset="0"
         id="stop16064" />
      <stop
         style="stop-opacity:1;stop-color:#e0dfef"
         offset="1"
         id="stop16066" />
    </radialGradient>
    <clipPath
       clipPathUnits="userSpaceOnUse"
       id="clipPath16078">
      <path
         d="m 6661.13,2936.82 c -0.38,0 -0.78,0.04 -1.2,0.11 -1.43,5.69 -1.31,15.45 -0.22,21.22 0.58,3.12 2.65,4.67 3.15,8.57 0.41,3.24 -0.06,6.14 0.66,9.39 0.9,4.15 4.31,10.72 5.2,14.89 1.39,6.5 1.59,9.99 4.19,15.89 2.38,5.43 3.75,12.5 6.19,18.65 2.22,5.6 4.86,9.73 7.95,14.84 6.16,10.17 11.3,20.03 17.58,30.23 11.12,18.06 23.64,36.02 40.42,50.14 1.88,1.58 3.84,3.03 5.84,4.41 6.78,-6.47 13.1,-12.7 18.98,-18.68 -5.24,-2.74 -10.85,-5.09 -15.84,-9.94 -16.13,-15.64 10.75,-22.16 20.06,-28.28 9.1,-5.99 9.27,-14.56 9.22,-24.44 -0.04,-9.19 0.68,-16.54 3.35,-25.11 1.08,-3.5 2.92,-8.01 3.54,-11.71 -0.13,-2.29 -0.25,-4.58 -0.38,-6.87 0.23,-1.83 1.16,-3.13 2.79,-3.93 2.09,-9.56 -1.88,-15.21 -5.12,-23.44 -3.15,-8.03 -5.16,-15.73 -11.72,-21.84 -4.01,-3.73 -8.26,-4.42 -12.98,-4.42 -1.39,0 -2.83,0.06 -4.31,0.12 -1.47,0.06 -2.98,0.12 -4.55,0.12 -0.25,0 -0.5,0 -0.76,-0.01 -0.13,0 -0.27,0 -0.41,0 -5.36,0 -7.94,1.37 -12.97,2.6 -3.35,0.84 -8.22,2.84 -10.79,3.34 -4.01,0.78 -7.92,0.65 -11.91,1.5 -3.23,0.68 -4.12,2.29 -6.98,2.29 -0.82,0 -1.81,-0.14 -3.07,-0.46 -5.79,-1.52 -11.28,-8.09 -17.3,-9.45 -1.75,-0.39 -3.54,-0.54 -5.36,-0.54 -2.38,0 -4.82,0.25 -7.25,0.49 -2.44,0.24 -4.87,0.48 -7.26,0.48 -2.23,0 -4.42,-0.21 -6.53,-0.83 -0.19,-0.92 -0.38,-1.85 2.78,-6.13 -1.26,-2.13 -2.92,-3.2 -4.99,-3.2"
         id="path16076" />
    </clipPath>
    <radialGradient
       fx="0"
       fy="0"
       cx="0"
       cy="0"
       r="1"
       gradientUnits="userSpaceOnUse"
       gradientTransform="matrix(909.651,0,0,-880.488,6679.52,2286.21)"
       spreadMethod="pad"
       id="radialGradient16084">
      <stop
         style="stop-opacity:1;stop-color:#e5e1f5"
         offset="0"
         id="stop16080" />
      <stop
         style="stop-opacity:1;stop-color:#e0dfef"
         offset="1"
         id="stop16082" />
    </radialGradient>
    <clipPath
       clipPathUnits="userSpaceOnUse"
       id="clipPath16094">
      <path
         d="m 7297.44,2454.69 c 0,0 -0.01,0 -0.02,0 -1.95,0.01 -6.53,3.16 -8.64,4 -3.55,1.41 -6.45,3.58 -9.46,5.68 -8.19,5.69 -22.88,17.43 -15,28.81 5.74,8.26 18.26,19.32 27.91,19.32 0.09,0 0.18,0 0.27,0 v -5 c 11.11,-8.68 22.33,-19.34 15.3,-34.06 -2.21,-4.64 -4.46,-18.75 -10.36,-18.75"
         id="path16092" />
    </clipPath>
    <radialGradient
       fx="0"
       fy="0"
       cx="0"
       cy="0"
       r="1"
       gradientUnits="userSpaceOnUse"
       gradientTransform="matrix(909.651,0,0,-880.488,6679.52,2286.21)"
       spreadMethod="pad"
       id="radialGradient16100">
      <stop
         style="stop-opacity:1;stop-color:#e5e1f5"
         offset="0"
         id="stop16096" />
      <stop
         style="stop-opacity:1;stop-color:#e0dfef"
         offset="1"
         id="stop16098" />
    </radialGradient>
    <clipPath
       clipPathUnits="userSpaceOnUse"
       id="clipPath16110">
      <path
         d="m 7337.5,2487.5 2.5,2.5 -2.07,-1.65 c -3.24,7.11 1.89,14.72 2.43,21.4 0.07,0.01 0.14,0.01 0.21,0.01 4.86,0 14.58,-8.78 14.6,-13.51 0.06,-8.18 -12.08,-8.65 -17.67,-8.75"
         id="path16108" />
    </clipPath>
    <radialGradient
       fx="0"
       fy="0"
       cx="0"
       cy="0"
       r="1"
       gradientUnits="userSpaceOnUse"
       gradientTransform="matrix(909.651,0,0,-880.488,6679.52,2286.21)"
       spreadMethod="pad"
       id="radialGradient16116">
      <stop
         style="stop-opacity:1;stop-color:#e5e1f5"
         offset="0"
         id="stop16112" />
      <stop
         style="stop-opacity:1;stop-color:#e0dfef"
         offset="1"
         id="stop16114" />
    </radialGradient>
    <clipPath
       clipPathUnits="userSpaceOnUse"
       id="clipPath16126">
      <path
         d="m 7435.24,2710.84 c -2.15,0 -3.74,1.41 -7.68,3.54 -5.02,2.72 -10.49,5 -15.05,8.12 -8.99,6.15 -16.87,14.17 -20.08,24.87 -1.85,6.17 -2.39,12.26 -2.43,18.88 -0.03,6.38 2.33,11.32 2.53,17.5 0.16,5.69 -0.08,11.56 2.41,16.31 1.86,3.56 5.12,6.44 8.19,9.32 1.06,1 2.84,2.53 4.96,4.12 20.77,-26.85 40.03,-54.93 57.58,-84.03 -0.85,-0.86 -1.7,-1.72 -2.55,-2.59 -6.15,-6.25 -14.48,-10.08 -22.18,-14.07 -2.67,-1.38 -4.3,-1.97 -5.7,-1.97"
         id="path16124" />
    </clipPath>
    <radialGradient
       fx="0"
       fy="0"
       cx="0"
       cy="0"
       r="1"
       gradientUnits="userSpaceOnUse"
       gradientTransform="matrix(909.651,0,0,-880.488,6679.52,2286.21)"
       spreadMethod="pad"
       id="radialGradient16132">
      <stop
         style="stop-opacity:1;stop-color:#e5e1f5"
         offset="0"
         id="stop16128" />
      <stop
         style="stop-opacity:1;stop-color:#e0dfef"
         offset="1"
         id="stop16130" />
    </radialGradient>
    <clipPath
       clipPathUnits="userSpaceOnUse"
       id="clipPath16142">
      <path
         d="m 7260.28,2242.51 c -0.1,0 -0.19,0 -0.29,0 -1.32,0.02 -2.65,0.02 -3.99,0.02 -0.58,0 -1.16,0 -1.74,0 -0.52,0 -1.04,0 -1.55,0 -10.22,0 -20.61,0.21 -29.26,4.67 -26.48,13.66 0.89,40.75 16.49,50.37 10.67,6.57 26.4,12.85 38.84,15 6.15,1.06 11.1,3.28 17.47,4.71 0.97,0.22 2.15,0.33 3.44,0.33 5.32,0 12.56,-1.83 15.31,-5.11 3.33,0 7.78,0 12.59,0 2.41,0 4.91,0 7.41,0 1.19,0 2.32,0.03 3.39,0.06 1.05,0.03 2.05,0.06 3.01,0.06 4.36,0 7.88,-0.6 11.72,-4.5 9.38,-9.54 8.09,-21.63 -1.18,-30.62 -7.45,-7.23 -14.86,-14.14 -24.44,-18.18 -10.72,-4.53 -21.3,-7.9 -32.5,-10.57 -6.04,-1.44 -11.53,-3.75 -18.21,-3.75 -0.18,0 -0.36,0 -0.54,0 -0.15,0 -0.29,0 -0.43,0 -3.05,0 -5.43,-0.62 -7.8,-1.24 -2.37,-0.63 -4.73,-1.25 -7.74,-1.25"
         id="path16140" />
    </clipPath>
    <radialGradient
       fx="0"
       fy="0"
       cx="0"
       cy="0"
       r="1"
       gradientUnits="userSpaceOnUse"
       gradientTransform="matrix(909.651,0,0,-880.488,6679.52,2286.21)"
       spreadMethod="pad"
       id="radialGradient16148">
      <stop
         style="stop-opacity:1;stop-color:#e5e1f5"
         offset="0"
         id="stop16144" />
      <stop
         style="stop-opacity:1;stop-color:#e0dfef"
         offset="1"
         id="stop16146" />
    </radialGradient>
    <clipPath
       clipPathUnits="userSpaceOnUse"
       id="clipPath16158">
      <path
         d="m 7395.87,2309.61 c -5.4,0 -11.39,2.37 -14.3,6.65 0.34,0.34 0.65,0.75 0.93,1.24 l -2.5,2.5 c 0.27,-1.37 0.82,-2.62 1.57,-3.74 -0.75,-0.76 -1.64,-1.14 -2.67,-1.14 -0.34,0 -0.7,0.04 -1.08,0.13 -2.75,5.65 11.33,14.64 15.31,16.62 3.98,2 10.19,5.36 15.06,5.36 3.25,0 5.9,-1.5 6.9,-5.89 1.61,-7.13 -6.3,-16.71 -12.5,-20.18 -1.87,-1.05 -4.23,-1.55 -6.72,-1.55"
         id="path16156" />
    </clipPath>
    <radialGradient
       fx="0"
       fy="0"
       cx="0"
       cy="0"
       r="1"
       gradientUnits="userSpaceOnUse"
       gradientTransform="matrix(909.651,0,0,-880.488,6679.52,2286.21)"
       spreadMethod="pad"
       id="radialGradient16164">
      <stop
         style="stop-opacity:1;stop-color:#e5e1f5"
         offset="0"
         id="stop16160" />
      <stop
         style="stop-opacity:1;stop-color:#e0dfef"
         offset="1"
         id="stop16162" />
    </radialGradient>
    <clipPath
       clipPathUnits="userSpaceOnUse"
       id="clipPath16174">
      <path
         d="m 6662.71,2835.01 c -0.07,0 -0.14,0 -0.21,0 -12,0.09 -16.09,3.73 -20.62,14.37 -2.01,4.75 -3.56,7.8 -6.6,12.15 -2.9,4.15 -2.78,8.41 -2.78,13.47 0,11.69 4.45,21.74 9.97,31.49 4.42,7.82 10,16.81 17.46,22.32 4.74,3.5 9.03,3.05 14.51,4.25 2.3,0.49 3.49,1.83 6.78,1.96 1.74,0.08 3.71,0.19 5.61,0.19 1.12,0 2.22,-0.04 3.23,-0.15 5.3,-0.6 8.75,-2.56 14.64,-2.56 0.1,0 0.2,0 0.3,0 1.58,0.02 3.24,0.16 4.87,0.16 1.26,0 2.5,-0.08 3.66,-0.38 2.08,-0.53 3.43,-2.55 5.98,-2.76 l 0.49,-2.02 c -0.87,-3.24 1.78,-5.84 2.57,-8.68 0.5,-1.81 -0.04,-3.83 0.49,-5.76 0.22,-0.82 1.47,-0.92 1.72,-2.03 1.33,-5.73 0.31,-13.32 -1.03,-18.53 -2.52,-9.78 -3.57,-21.21 -9.93,-30.06 -2.66,-3.7 -6.51,-5.36 -9.8,-7.72 -3.81,-2.75 -7.25,-6.17 -11.55,-8.53 -8.99,-4.96 -18.98,-11.18 -29.76,-11.18"
         id="path16172" />
    </clipPath>
    <radialGradient
       fx="0"
       fy="0"
       cx="0"
       cy="0"
       r="1"
       gradientUnits="userSpaceOnUse"
       gradientTransform="matrix(909.651,0,0,-880.488,6679.52,2286.21)"
       spreadMethod="pad"
       id="radialGradient16180">
      <stop
         style="stop-opacity:1;stop-color:#e5e1f5"
         offset="0"
         id="stop16176" />
      <stop
         style="stop-opacity:1;stop-color:#e0dfef"
         offset="1"
         id="stop16178" />
    </radialGradient>
    <clipPath
       clipPathUnits="userSpaceOnUse"
       id="clipPath16190">
      <path
         d="m 6756.88,2890.6 c -7.23,0 -14.59,4.75 -14.38,14.4 l 5,2.5 c -6.23,0.17 1.82,17.03 8.83,17.03 0.18,0 0.36,-0.02 0.55,-0.04 6.06,-0.79 11.47,-10.75 12.91,-15.96 3.26,-11.87 -4.74,-17.93 -12.91,-17.93"
         id="path16188" />
    </clipPath>
    <radialGradient
       fx="0"
       fy="0"
       cx="0"
       cy="0"
       r="1"
       gradientUnits="userSpaceOnUse"
       gradientTransform="matrix(909.651,0,0,-880.488,6679.52,2286.21)"
       spreadMethod="pad"
       id="radialGradient16196">
      <stop
         style="stop-opacity:1;stop-color:#e5e1f5"
         offset="0"
         id="stop16192" />
      <stop
         style="stop-opacity:1;stop-color:#e0dfef"
         offset="1"
         id="stop16194" />
    </radialGradient>
    <clipPath
       clipPathUnits="userSpaceOnUse"
       id="clipPath16206">
      <path
         d="m 6836.55,2834.72 c -3.84,0 -7.65,4.27 -9.73,7.1 -2.88,3.88 -4.97,7.8 -3.74,12.62 1.09,4.36 5.85,7.46 6.8,12.27 3.39,2.33 6.22,3.66 10.35,3.66 1.07,0 2.24,-0.09 3.52,-0.28 4.96,-0.71 10.5,-2.32 13.77,-6.32 8.14,-9.97 -3.51,-15 -10.09,-19.96 -3.23,-2.44 -5.74,-8.14 -9.87,-8.99 -0.34,-0.07 -0.67,-0.1 -1.01,-0.1 m -9.05,30.28 2.5,2.5 c -0.03,-0.27 -0.07,-0.53 -0.12,-0.79 -0.76,-0.52 -1.54,-1.09 -2.38,-1.71"
         id="path16204" />
    </clipPath>
    <radialGradient
       fx="0"
       fy="0"
       cx="0"
       cy="0"
       r="1"
       gradientUnits="userSpaceOnUse"
       gradientTransform="matrix(909.651,0,0,-880.488,6679.52,2286.21)"
       spreadMethod="pad"
       id="radialGradient16212">
      <stop
         style="stop-opacity:1;stop-color:#e5e1f5"
         offset="0"
         id="stop16208" />
      <stop
         style="stop-opacity:1;stop-color:#e0dfef"
         offset="1"
         id="stop16210" />
    </radialGradient>
    <clipPath
       clipPathUnits="userSpaceOnUse"
       id="clipPath16222">
      <path
         d="m 6666.82,2626.98 c -1.42,0 -2.72,0.31 -3.81,1.03 -4.03,2.65 -6.6,10.6 -7.57,16.76 0.07,0 0.14,0 0.22,0 0.56,0 1.18,0.07 1.84,0.23 l -2.5,5 c -0.03,-1.38 0.12,-3.21 0.44,-5.23 -7.05,0.25 -6.27,12.54 -5.07,17.36 3.85,0.72 7.89,3.07 11.62,3.07 0.15,0 0.3,-0.01 0.45,-0.02 4.06,-0.21 11.26,-3.53 14.49,-5.81 7.21,-5.11 11.22,-13.47 6.94,-21.89 -2.21,-4.35 -10.76,-10.5 -17.05,-10.5"
         id="path16220" />
    </clipPath>
    <radialGradient
       fx="0"
       fy="0"
       cx="0"
       cy="0"
       r="1"
       gradientUnits="userSpaceOnUse"
       gradientTransform="matrix(909.651,0,0,-880.488,6679.52,2286.21)"
       spreadMethod="pad"
       id="radialGradient16228">
      <stop
         style="stop-opacity:1;stop-color:#e5e1f5"
         offset="0"
         id="stop16224" />
      <stop
         style="stop-opacity:1;stop-color:#e0dfef"
         offset="1"
         id="stop16226" />
    </radialGradient>
    <clipPath
       clipPathUnits="userSpaceOnUse"
       id="clipPath16238">
      <path
         d="m 7384.37,2459.5 c -7.8,0 -16.05,6.07 -14.49,14.32 0.79,4.19 3.02,7.85 3.87,12.43 0.82,4.43 2.01,8.66 3.75,12.5 1.57,3.47 3.37,8.28 4.45,11.8 0.6,1.94 2.55,6.56 3.05,9.69 v -7.74 c 3.39,10.01 14.8,19.69 24.26,19.69 5.61,0 10.53,-3.41 12.67,-12.2 1.18,-4.79 0.54,-10.03 0.57,-14.99 0.04,-5.33 -1.17,-7.85 -2.57,-12.37 -1.38,-4.47 -2.31,-8.94 -4.31,-13.24 -2.35,-5.09 -3.45,-4.49 -7.56,-7.45 -6.1,-4.38 -12.89,-10.25 -20.43,-12.07 -1.06,-0.25 -2.16,-0.37 -3.26,-0.37 m 0.63,60.74 v 2.26 c 0.17,-0.56 0.15,-1.35 0,-2.26"
         id="path16236" />
    </clipPath>
    <radialGradient
       fx="0"
       fy="0"
       cx="0"
       cy="0"
       r="1"
       gradientUnits="userSpaceOnUse"
       gradientTransform="matrix(909.651,0,0,-880.488,6679.52,2286.21)"
       spreadMethod="pad"
       id="radialGradient16244">
      <stop
         style="stop-opacity:1;stop-color:#e5e1f5"
         offset="0"
         id="stop16240" />
      <stop
         style="stop-opacity:1;stop-color:#e0dfef"
         offset="1"
         id="stop16242" />
    </radialGradient>
    <clipPath
       clipPathUnits="userSpaceOnUse"
       id="clipPath16254">
      <path
         d="m 7468.36,2344.02 c -2.51,0 -4.88,0.37 -6.93,1.17 -8.29,3.25 -7.15,12.58 -1.64,17.27 -0.08,-0.8 -0.02,-1.61 0.21,-2.46 l 5,5 c -1.98,-0.39 -3.75,-1.3 -5.21,-2.54 0.84,7.5 14.98,12.52 20.2,12.52 0.01,0 0.01,0 0.01,0 6.86,0 8.07,-0.76 10.61,-6.86 2.26,-5.45 3,-9.24 -0.58,-14.39 -4.03,-5.78 -13.53,-9.71 -21.67,-9.71"
         id="path16252" />
    </clipPath>
    <radialGradient
       fx="0"
       fy="0"
       cx="0"
       cy="0"
       r="1"
       gradientUnits="userSpaceOnUse"
       gradientTransform="matrix(909.651,0,0,-880.488,6679.52,2286.21)"
       spreadMethod="pad"
       id="radialGradient16260">
      <stop
         style="stop-opacity:1;stop-color:#e5e1f5"
         offset="0"
         id="stop16256" />
      <stop
         style="stop-opacity:1;stop-color:#e0dfef"
         offset="1"
         id="stop16258" />
    </radialGradient>
    <clipPath
       clipPathUnits="userSpaceOnUse"
       id="clipPath16270">
      <path
         d="m 7372.42,2529.1 c -6.43,0 -13.58,1.54 -17.42,3.4 l -2.5,7.5 c -2.85,0.62 -6.81,4.61 -7.63,7.37 -0.65,2.19 0.24,4.73 -0.43,7.07 -0.52,1.87 -1.7,3.09 -2,5.5 -0.3,2.42 0.68,5.18 0.19,7.56 -0.57,2.71 -2.28,4.78 -2.76,7.5 -0.85,4.81 1.11,10.19 0.26,15 -0.78,4.46 -5.18,9.68 -2.12,14.49 1.71,2.71 4.74,3.38 7.8,3.38 1.45,0 2.92,-0.15 4.25,-0.31 4.3,-0.53 8,-2.07 12.45,-3.12 5.22,-1.23 11.56,-3.95 16.03,-6.94 7.05,-4.73 14.59,-10.05 16.55,-18.66 1.81,-8.01 0.49,-21.47 -1.34,-28.84 -1.57,-6.3 -4.62,-14.97 -11.16,-18.84 -2.48,-1.47 -6.19,-2.06 -10.17,-2.06"
         id="path16268" />
    </clipPath>
    <radialGradient
       fx="0"
       fy="0"
       cx="0"
       cy="0"
       r="1"
       gradientUnits="userSpaceOnUse"
       gradientTransform="matrix(909.651,0,0,-880.488,6679.52,2286.21)"
       spreadMethod="pad"
       id="radialGradient16276">
      <stop
         style="stop-opacity:1;stop-color:#e5e1f5"
         offset="0"
         id="stop16272" />
      <stop
         style="stop-opacity:1;stop-color:#e0dfef"
         offset="1"
         id="stop16274" />
    </radialGradient>
    <clipPath
       clipPathUnits="userSpaceOnUse"
       id="clipPath16286">
      <path
         d="m 7415.68,2537.85 c -3.71,0 -6.8,2.66 -5.68,8.75 v -1.6 l 0.01,1.66 c 0,-0.02 -0.01,-0.04 -0.01,-0.06 v 0.9 c 0.91,4.67 4.51,6.72 8.02,6.72 4.6,0 9.04,-3.53 7.09,-9.35 -1.49,-4.44 -5.76,-7.02 -9.43,-7.02"
         id="path16284" />
    </clipPath>
    <radialGradient
       fx="0"
       fy="0"
       cx="0"
       cy="0"
       r="1"
       gradientUnits="userSpaceOnUse"
       gradientTransform="matrix(909.651,0,0,-880.488,6679.52,2286.21)"
       spreadMethod="pad"
       id="radialGradient16292">
      <stop
         style="stop-opacity:1;stop-color:#e5e1f5"
         offset="0"
         id="stop16288" />
      <stop
         style="stop-opacity:1;stop-color:#e0dfef"
         offset="1"
         id="stop16290" />
    </radialGradient>
    <clipPath
       clipPathUnits="userSpaceOnUse"
       id="clipPath16390">
      <path
         d="m 6100.68,2759.49 c 0.01,0.56 0.01,1.11 0,1.67 -0.66,54.78 -30.37,103.77 -68.1,144.03 14.62,14.32 29.72,28.12 45.32,41.45 40.47,-18.97 66.35,-33.48 66.35,-33.48 l -54.96,28.07 c 28.66,-54.79 17.74,-144.3 11.39,-181.74 m 43.57,153.67 v 0 c -17.57,15.17 -35.4,29.94 -53.44,44.3 8.9,7.32 17.99,14.51 27.19,21.51 17.12,-39.89 26.25,-65.81 26.25,-65.81"
         id="path16388" />
    </clipPath>
    <clipPath
       clipPathUnits="userSpaceOnUse"
       id="clipPath16426">
      <path
         d="m 6315.22,2147.6 c 15.16,14.42 29.64,26.43 43.44,36.35 42.32,30.4 78.26,41.13 107.94,41.13 47.4,0 78.78,-27.38 94.44,-45.67 7.86,-9.17 11.77,-16.05 11.77,-16.05 l -257.59,-15.76"
         id="path16424" />
    </clipPath>
    <clipPath
       clipPathUnits="userSpaceOnUse"
       id="clipPath16438">
      <path
         d="m 6833.19,3031.94 c 0,0 -11.81,16.5 -33.81,42.85 23.33,-26.61 33.81,-42.85 33.81,-42.85"
         id="path16436" />
    </clipPath>
    <clipPath
       clipPathUnits="userSpaceOnUse"
       id="clipPath16450">
      <path
         d="m 6833.19,3031.94 v 0 c 0,0 -10.48,16.24 -33.81,42.85 -8.21,9.37 -18.02,20.02 -29.51,31.69 -5.88,5.98 -12.2,12.21 -18.98,18.68 -7.76,7.41 -16.12,15.14 -25.1,23.11 -6.64,5.89 -13.62,11.93 -20.95,18.09 47.13,-1.25 93.34,-5.97 138.42,-13.9 3.95,-70.37 -10.07,-120.52 -10.07,-120.52"
         id="path16448" />
    </clipPath>
    <clipPath
       clipPathUnits="userSpaceOnUse"
       id="clipPath16474">
      <path
         d="m 5991.82,1828.28 c -52.4,0 -94.87,41.11 -94.87,91.82 0,50.7 42.47,91.8 94.87,91.8 14.21,0 27.69,-3.02 39.79,-8.44 -1.87,-1.92 -3.07,-4.5 -3.22,-7.39 -0.34,-6.33 4.52,-11.75 10.86,-12.1 0.2,-0.01 0.41,-0.01 0.61,-0.01 5.09,0 9.48,3.33 10.97,8.02 21.84,-16.82 35.84,-42.77 35.84,-71.88 0,-50.71 -42.47,-91.82 -94.85,-91.82 m -42.14,159.09 c 0,0 -22.59,-96.18 86.21,-111.63 0,0 -56.21,43.72 -86.21,111.63 m 53.17,-42.23 c -2.01,0 -3.7,-1.58 -3.82,-3.63 -0.1,-2.11 1.52,-3.91 3.63,-4.02 0.07,0 0.14,-0.01 0.21,-0.01 2.03,0 3.71,1.59 3.82,3.63 0.12,2.11 -1.51,3.92 -3.62,4.03 -0.08,0 -0.15,0 -0.22,0"
         id="path16472" />
    </clipPath>
    <clipPath
       clipPathUnits="userSpaceOnUse"
       id="clipPath16486">
      <path
         d="m 6035.89,1875.74 c -108.8,15.45 -86.21,111.63 -86.21,111.63 30,-67.91 86.21,-111.63 86.21,-111.63"
         id="path16484" />
    </clipPath>
    <clipPath
       clipPathUnits="userSpaceOnUse"
       id="clipPath16586">
      <path
         d="m 6039.86,1983.96 c -0.2,0 -0.41,0 -0.61,0.01 -6.34,0.35 -11.2,5.77 -10.86,12.1 0.15,2.89 1.35,5.47 3.22,7.39 2.1,2.16 5.03,3.5 8.24,3.5 0.21,0 0.42,-0.01 0.63,-0.02 6.34,-0.34 11.2,-5.75 10.87,-12.09 -0.06,-1 -0.24,-1.96 -0.52,-2.87 -1.49,-4.69 -5.88,-8.02 -10.97,-8.02"
         id="path16584" />
    </clipPath>
    <radialGradient
       fx="0"
       fy="0"
       cx="0"
       cy="0"
       r="1"
       gradientUnits="userSpaceOnUse"
       gradientTransform="matrix(909.651,0,0,-880.488,6679.52,2286.21)"
       spreadMethod="pad"
       id="radialGradient16592">
      <stop
         style="stop-opacity:1;stop-color:#ffffff"
         offset="0"
         id="stop16588" />
      <stop
         style="stop-opacity:1;stop-color:#ffffff"
         offset="1"
         id="stop16590" />
    </radialGradient>
    <clipPath
       clipPathUnits="userSpaceOnUse"
       id="clipPath16602">
      <path
         d="m 6045.88,2027.33 c -0.11,0 -0.22,0.01 -0.32,0.01 -3.31,0.18 -5.83,2.99 -5.66,6.29 0.17,3.19 2.81,5.65 5.97,5.65 0.11,0 0.21,0 0.32,-0.01 3.29,-0.17 5.82,-2.98 5.65,-6.28 -0.18,-3.19 -2.81,-5.66 -5.96,-5.66"
         id="path16600" />
    </clipPath>
    <radialGradient
       fx="0"
       fy="0"
       cx="0"
       cy="0"
       r="1"
       gradientUnits="userSpaceOnUse"
       gradientTransform="matrix(909.651,0,0,-880.488,6679.52,2286.21)"
       spreadMethod="pad"
       id="radialGradient16608">
      <stop
         style="stop-opacity:1;stop-color:#ffffff"
         offset="0"
         id="stop16604" />
      <stop
         style="stop-opacity:1;stop-color:#ffffff"
         offset="1"
         id="stop16606" />
    </radialGradient>
    <clipPath
       clipPathUnits="userSpaceOnUse"
       id="clipPath16618">
      <path
         d="m 6068.91,2013.1 c -0.07,0 -0.14,0 -0.21,0 -2.11,0.11 -3.73,1.91 -3.62,4.03 0.11,2.04 1.81,3.63 3.83,3.63 0.06,0 0.13,0 0.2,-0.01 2.12,-0.11 3.74,-1.92 3.62,-4.03 -0.1,-2.04 -1.79,-3.62 -3.82,-3.62"
         id="path16616" />
    </clipPath>
    <radialGradient
       fx="0"
       fy="0"
       cx="0"
       cy="0"
       r="1"
       gradientUnits="userSpaceOnUse"
       gradientTransform="matrix(909.651,0,0,-880.488,6679.52,2286.21)"
       spreadMethod="pad"
       id="radialGradient16624">
      <stop
         style="stop-opacity:1;stop-color:#ffffff"
         offset="0"
         id="stop16620" />
      <stop
         style="stop-opacity:1;stop-color:#ffffff"
         offset="1"
         id="stop16622" />
    </radialGradient>
    <clipPath
       clipPathUnits="userSpaceOnUse"
       id="clipPath16634">
      <path
         d="m 6041.98,2010.91 c -0.03,0 -0.06,0 -0.09,0 -1.06,0.06 -1.87,0.97 -1.81,2.02 0.05,1.02 0.89,1.81 1.9,1.81 0.04,0 0.07,0 0.11,0 1.06,-0.06 1.87,-0.96 1.82,-2.01 -0.06,-1.03 -0.91,-1.82 -1.93,-1.82"
         id="path16632" />
    </clipPath>
    <radialGradient
       fx="0"
       fy="0"
       cx="0"
       cy="0"
       r="1"
       gradientUnits="userSpaceOnUse"
       gradientTransform="matrix(909.651,0,0,-880.488,6679.52,2286.21)"
       spreadMethod="pad"
       id="radialGradient16640">
      <stop
         style="stop-opacity:1;stop-color:#ffffff"
         offset="0"
         id="stop16636" />
      <stop
         style="stop-opacity:1;stop-color:#ffffff"
         offset="1"
         id="stop16638" />
    </radialGradient>
    <clipPath
       clipPathUnits="userSpaceOnUse"
       id="clipPath16650">
      <path
         d="m 6054.75,2039.37 c -0.03,0 -0.07,0 -0.1,0 -1.07,0.06 -1.88,0.96 -1.82,2.02 0.06,1.02 0.9,1.81 1.92,1.81 0.03,0 0.07,0 0.1,0 1.06,-0.06 1.87,-0.96 1.81,-2.02 -0.06,-1.02 -0.9,-1.81 -1.91,-1.81"
         id="path16648" />
    </clipPath>
    <radialGradient
       fx="0"
       fy="0"
       cx="0"
       cy="0"
       r="1"
       gradientUnits="userSpaceOnUse"
       gradientTransform="matrix(909.651,0,0,-880.488,6679.52,2286.21)"
       spreadMethod="pad"
       id="radialGradient16656">
      <stop
         style="stop-opacity:1;stop-color:#ffffff"
         offset="0"
         id="stop16652" />
      <stop
         style="stop-opacity:1;stop-color:#ffffff"
         offset="1"
         id="stop16654" />
    </radialGradient>
    <clipPath
       clipPathUnits="userSpaceOnUse"
       id="clipPath16666">
      <path
         d="m 6040.52,2050.42 c -0.07,0 -0.14,0.01 -0.21,0.01 -2.12,0.11 -3.74,1.92 -3.62,4.03 0.1,2.04 1.8,3.63 3.83,3.63 0.06,0 0.13,0 0.2,-0.01 2.11,-0.11 3.73,-1.91 3.63,-4.03 -0.12,-2.04 -1.81,-3.63 -3.83,-3.63"
         id="path16664" />
    </clipPath>
    <radialGradient
       fx="0"
       fy="0"
       cx="0"
       cy="0"
       r="1"
       gradientUnits="userSpaceOnUse"
       gradientTransform="matrix(909.651,0,0,-880.488,6679.52,2286.21)"
       spreadMethod="pad"
       id="radialGradient16672">
      <stop
         style="stop-opacity:1;stop-color:#ffffff"
         offset="0"
         id="stop16668" />
      <stop
         style="stop-opacity:1;stop-color:#ffffff"
         offset="1"
         id="stop16670" />
    </radialGradient>
    <clipPath
       clipPathUnits="userSpaceOnUse"
       id="clipPath16682">
      <path
         d="m 6002.87,1937.48 c -0.07,0 -0.14,0.01 -0.21,0.01 -2.11,0.11 -3.73,1.91 -3.63,4.02 0.12,2.05 1.81,3.63 3.82,3.63 0.07,0 0.14,0 0.22,0 2.11,-0.11 3.74,-1.92 3.62,-4.03 -0.11,-2.04 -1.79,-3.63 -3.82,-3.63"
         id="path16680" />
    </clipPath>
    <radialGradient
       fx="0"
       fy="0"
       cx="0"
       cy="0"
       r="1"
       gradientUnits="userSpaceOnUse"
       gradientTransform="matrix(909.651,0,0,-880.488,6679.52,2286.21)"
       spreadMethod="pad"
       id="radialGradient16688">
      <stop
         style="stop-opacity:1;stop-color:#ffffff"
         offset="0"
         id="stop16684" />
      <stop
         style="stop-opacity:1;stop-color:#ffffff"
         offset="1"
         id="stop16686" />
    </radialGradient>
  </defs>
  <sodipodi:namedview
     id="base"
     pagecolor="#ffffff"
     bordercolor="#666666"
     borderopacity="1.0"
     inkscape:pageopacity="0.0"
     inkscape:pageshadow="2"
     inkscape:zoom="1.4"
     inkscape:cx="112.91775"
     inkscape:cy="67.849331"
     inkscape:document-units="mm"
     inkscape:current-layer="g17873"
     inkscape:document-rotation="0"
     showgrid="false"
     inkscape:window-width="1280"
     inkscape:window-height="735"
     inkscape:window-x="0"
     inkscape:window-y="0"
     inkscape:window-maximized="1" />
  <metadata
     id="metadata17063">
    <rdf:RDF>
      <cc:Work
         rdf:about="">
        <dc:format>image/svg+xml</dc:format>
        <dc:type
           rdf:resource="http://purl.org/dc/dcmitype/StillImage" />
        <dc:title />
      </cc:Work>
    </rdf:RDF>
  </metadata>
  <g
     inkscape:label="bg"
     inkscape:groupmode="layer"
     id="layer1"
     transform="translate(-96.052588,-117.12875)">
    <g
       id="g17873">
      <g
         id="g16028"
         transform="matrix(0.03527778,0,0,-0.03527778,-135.75839,234.16207)">
        <g
           id="g16030"
           clip-path="url(#clipPath16034)">
          <g
             id="g16036"
             transform="matrix(70.2002,0,0,137.2,6594.9,2458.9)" />
        </g>
      </g>
      <g
         id="g765">
        <g
           id="g689">
          <g
             id="g614">
            <g
               id="g540">
              <g
                 id="g467">
                <g
                   id="g395">
                  <g
                     id="g324">
                    <path
                       d="m 110.69886,154.90561 c 0,0.15346 -0.14746,0.27763 -0.32879,0.27763 -0.18203,0 -0.32949,-0.12417 -0.32949,-0.27763 0,-0.15311 0.14746,-0.27729 0.32949,-0.27729 0.18133,0 0.32879,0.12418 0.32879,0.27729"
                       style="fill:#935eea;fill-opacity:1;fill-rule:evenodd;stroke:none;stroke-width:0.0352777"
                       id="path44" />
                    <path
                       d="m 115.72947,154.62832 c 0,0.15311 -0.14746,0.27729 -0.32949,0.27729 -0.18168,0 -0.32914,-0.12418 -0.32914,-0.27729 0,-0.1531 0.14746,-0.27763 0.32914,-0.27763 0.18203,0 0.32949,0.12453 0.32949,0.27763"
                       style="fill:#a155c0;fill-opacity:1;fill-rule:evenodd;stroke:none;stroke-width:0.0352777"
                       id="path54" />
                    <path
                       d="m 127.41383,146.21069 c 0,0.15311 -0.14746,0.27764 -0.32915,0.27764 -0.18168,0 -0.32914,-0.12453 -0.32914,-0.27764 0,-0.1531 0.14746,-0.27728 0.32914,-0.27728 0.18169,0 0.32915,0.12418 0.32915,0.27728"
                       style="fill:#935eea;fill-opacity:1;fill-rule:evenodd;stroke:none;stroke-width:0.0352777"
                       id="path60" />
                    <path
                       d="m 127.23179,121.58151 c 0,0.15346 -0.14746,0.27764 -0.32914,0.27764 -0.18203,0 -0.32949,-0.12418 -0.32949,-0.27764 0,-0.1531 0.14746,-0.27763 0.32949,-0.27763 0.18168,0 0.32914,0.12453 0.32914,0.27763"
                       style="fill:#e0d4ff;fill-opacity:1;fill-rule:evenodd;stroke:none;stroke-width:0.0352777"
                       id="path88" />
                    <path
                       d="m 116.05897,137.50026 c 0,0.1531 -0.14746,0.27728 -0.3295,0.27728 -0.18203,0 -0.32949,-0.12418 -0.32949,-0.27728 0,-0.15311 0.14746,-0.27764 0.32949,-0.27764 0.18204,0 0.3295,0.12453 0.3295,0.27764"
                       style="fill:#e0d4ff;fill-opacity:1;fill-rule:evenodd;stroke:none;stroke-width:0.0352777"
                       id="path90" />
                    <path
                       d="m 135.05923,136.63278 c 0,10.77101 -8.73125,19.50226 -19.50226,19.50226 -9.15494,0 -16.836324,-6.30696 -18.93641,-14.81173 -0.370769,-1.50178 -0.567972,-3.07305 -0.567972,-4.69053 0,-0.71508 0.03881,-1.42099 0.113242,-2.11596 1.054805,-9.77689 9.33344,-17.38807 19.39114,-17.38807 10.77101,0 19.50226,8.73125 19.50226,19.50403"
                       style="fill:#ffffff;fill-opacity:1;fill-rule:evenodd;stroke:none;stroke-width:0.0352777"
                       id="path208" />
                    <path
                       d="m 131.26404,146.99562 c -0.57467,-2.60632 -1.48801,-5.09375 -2.69169,-7.41292 0.89605,-0.74048 1.68945,-1.68063 0.90382,-2.70721 -0.14076,-0.18345 -0.42404,-0.26317 -0.44345,-0.52564 -0.0166,-0.21767 0.24977,-0.24942 0.27729,-0.46496 0.0501,-0.39194 -0.29422,-0.66746 -0.49037,-0.9525 -0.44061,-0.64135 -0.94932,-1.33703 -0.94403,-2.12619 0.003,-0.41981 -0.073,-0.86219 0.23001,-1.18428 0.11924,-0.12665 0.22755,-0.17321 0.34643,-0.17321 0.16369,0 0.34678,0.0882 0.60396,0.17709 0.65158,0.22507 1.37266,0.44591 1.6002,1.23472 0.0878,0.30233 0.0328,0.57715 0.048,0.89147 0.0152,0.30621 0.11606,0.42722 0.18909,0.70873 0.11676,0.44733 0.0557,0.95356 0.0529,1.41746 -0.003,0.46179 0.0716,0.75213 0.18344,1.1811 0.0688,0.26177 0.0159,0.45509 0.0462,0.71403 0.0279,0.23601 0.15452,0.35348 0.19014,0.51999 0.20109,0.93451 0.1009,2.12372 -0.13123,3.01837 -0.20849,0.80398 -0.019,1.34126 0.53587,1.34126 0.15099,0 0.32914,-0.0399 0.5334,-0.12488 0.5327,0.64981 0.62336,0.87524 0.35384,1.6711 -0.21908,0.64629 -0.41875,1.27 -0.76729,1.83657 -0.20179,0.32737 -0.40746,0.64946 -0.62654,0.9599"
                       style="fill:#e0dfef;fill-opacity:1;fill-rule:nonzero;stroke:none;stroke-width:0.0352777"
                       id="path210" />
                    <path
                       d="m 129.88398,130.22033 c -0.58667,0 -1.90395,-0.40075 -2.00907,-0.95708 h 0.6417 c 0.0113,2.6e-4 0.0222,2.6e-4 0.0335,2.6e-4 0.0113,0 0.0226,0 0.0335,-2.6e-4 h -0.067 c -0.83961,-0.0162 -1.6129,-0.64664 -2.30117,-1.12254 -0.58067,-0.40146 -1.18921,-1.03258 -1.46967,-1.65418 -0.0847,-0.18732 -0.11289,-0.34148 -0.17815,-0.53057 -0.0145,-0.0416 -0.22543,-0.6029 -0.22508,-0.61948 0.008,-0.32914 0.27623,-0.72143 0.52106,-0.97402 0.25364,-0.26141 0.55527,-0.36124 0.87065,-0.36124 0.56092,0 1.16452,0.31503 1.61643,0.59548 0.66781,0.41452 1.3141,0.88265 1.87713,1.41852 0.27164,0.25859 0.64452,0.49389 0.83749,0.82092 0.254,0.4318 0.17992,0.95779 0.17287,1.48131 -0.0113,0.7994 1.03434,1.71944 -0.23072,1.89548 -0.036,0.005 -0.0776,0.007 -0.12347,0.007"
                       style="fill:#e0dfef;fill-opacity:1;fill-rule:nonzero;stroke:none;stroke-width:0.0352777"
                       id="path212" />
                    <path
                       d="m 127.61385,137.87244 c -0.61912,-1.02659 -1.29857,-2.01719 -2.03129,-2.96439 0.14746,-0.11007 0.34254,-0.2279 0.48895,-0.2279 0.0917,0 0.16474,0.0462 0.19473,0.17039 2.6e-4,0.001 7.9e-4,0.003 0.001,0.005 v 0 0 c -2.6e-4,-0.002 -7.9e-4,-0.003 -0.001,-0.005 -0.03,-0.13405 0.11042,-0.27763 0.28081,-0.27763 0.0466,0 0.0956,0.0106 0.14358,0.0353 0.11606,0.0593 0.25824,0.25999 0.34855,0.35736 0.33831,0.36407 0.70273,0.71191 0.94544,1.1236 0.20743,0.35137 0.45579,0.65969 0.2226,1.05904 -0.16051,0.27516 -0.37112,0.49777 -0.59337,0.72425"
                       style="fill:#e0dfef;fill-opacity:1;fill-rule:nonzero;stroke:none;stroke-width:0.0352777"
                       id="path214" />
                    <path
                       d="m 126.31034,133.53574 c -0.13265,0 -0.26176,-0.11077 -0.21943,-0.26811 h 0.0882 l -0.0709,-0.0169 c -0.008,-0.1143 -0.25224,-0.4819 -0.09,-0.58914 0.0166,-0.0109 0.0346,-0.0159 0.0533,-0.0159 0.11747,0 0.26705,0.19191 0.32808,0.26599 0.11783,0.14464 0.22437,0.40182 0.0699,0.5581 -0.0448,0.0459 -0.1023,0.066 -0.1591,0.066"
                       style="fill:#e0dfef;fill-opacity:1;fill-rule:nonzero;stroke:none;stroke-width:0.0352777"
                       id="path216" />
                    <path
                       d="m 132.76758,141.10247 c -0.20426,0 -0.40569,-0.13335 -0.5267,-0.31432 -0.0607,-0.0907 -0.0307,-0.0995 -0.0646,-0.20038 l -0.0684,-0.19615 c -0.0342,-0.16404 -0.0194,-0.33866 -0.0198,-0.50941 0,-0.11359 0.0169,-0.24271 0.002,-0.35489 -0.0113,-0.0847 -0.0575,-0.1337 -0.0706,-0.19403 -0.03,-0.13723 -0.0204,-0.27764 -0.0198,-0.42122 10e-4,-0.35277 0,-0.70555 0,-1.05833 0,-0.35066 0.0212,-0.70873 0.002,-1.05833 -0.0183,-0.33585 -0.17885,-0.69039 -0.0751,-1.04352 l 0.073,-0.0148 c 0.0674,0.11536 0.10866,0.16052 0.13794,0.16052 0.0469,0 0.0624,-0.11748 0.10478,-0.24871 0.0557,-0.1711 0.1651,-0.36337 0.20284,-0.52458 0.0765,-0.3295 8e-4,-0.81034 -0.004,-1.15076 -0.002,-0.13053 0.0487,-0.18945 0.0681,-0.2847 0.0159,-0.0762 -0.006,-0.1785 0.0152,-0.24941 0.0321,-0.10866 0.19473,-0.25435 0.28681,-0.32597 0.17216,-0.13405 0.39652,-0.20355 0.61383,-0.20355 0.1263,0 0.25048,0.0233 0.36019,0.0713 0.31362,0.13688 0.42686,0.25929 0.61736,0.54857 0.10478,0.1584 0.13123,0.24695 0.17427,0.42404 0.0272,0.11183 0.13547,0.24836 0.16193,0.36759 0.0377,0.17287 0.0473,0.36019 0.0833,0.53587 0.0332,0.16263 0.0903,0.25894 0.0878,0.43921 -0.005,0.35243 2.6e-4,0.7052 2.6e-4,1.05798 0,0.17639 -0.002,0.35278 -2.6e-4,0.52917 0.002,0.1972 -0.0822,0.33937 -0.0903,0.52916 -0.008,0.19227 -0.0762,0.3422 -0.0878,0.52917 -0.009,0.1457 0.0145,0.28046 -0.0177,0.42122 -0.043,0.0208 -0.0674,0.0554 -0.073,0.10336 7.9e-4,0.061 0.003,0.12206 0.007,0.18345 -0.0106,0.0847 -0.0589,0.1344 -0.0709,0.19367 -0.0169,0.0819 0.003,0.17075 -0.0148,0.24977 -0.0177,0.0776 -0.0723,0.091 -0.0956,0.16686 -0.0847,0.27376 -0.13512,0.54963 -0.26212,0.79834 -0.15487,0.30198 -0.2995,0.47907 -0.6223,0.61701 -0.22542,0.0967 -0.39052,0.26634 -0.60783,0.37712 -0.0674,0.0346 -0.13723,0.0497 -0.20708,0.0497"
                       style="fill:#e0dfef;fill-opacity:1;fill-rule:nonzero;stroke:none;stroke-width:0.0352777"
                       id="path218" />
                    <path
                       d="m 131.5886,132.31795 c -0.11254,0 -0.24307,-0.0194 -0.29845,-0.0607 -0.12912,-0.0956 -0.0825,-0.26 -0.0836,-0.4004 -0.001,-0.15628 0.10583,-0.62477 0.30903,-0.62477 0.0141,0 0.0286,0.002 0.0434,0.007 v 0 0 l -0.0882,-0.17639 c 0.0254,-0.005 0.0501,-0.007 0.0737,-0.007 0.27587,0 0.45755,0.30233 0.45508,0.53657 -0.002,0.22684 0.0201,0.62618 -0.25999,0.70944 -0.0363,0.0109 -0.091,0.0162 -0.15099,0.0162"
                       style="fill:#e0dfef;fill-opacity:1;fill-rule:nonzero;stroke:none;stroke-width:0.0352777"
                       id="path220" />
                    <path
                       d="m 124.27657,123.37186 c -0.12735,0 -0.23812,-0.11677 -0.3683,-0.26882 -0.16333,-0.19085 -0.29245,-0.41134 -0.44344,-0.61454 -0.0367,-0.0494 -0.17145,-0.30056 -0.17815,-0.3556 -0.0138,-0.10583 0.0409,-0.23671 0.11183,-0.33267 0.14817,-0.20002 0.43674,-0.45014 0.66393,-0.52705 l -0.0317,0.2212 c -0.0205,0.0116 -0.0399,0.0254 -0.0582,0.0416 -0.13935,0.12452 -0.0815,0.19402 0.002,0.35454 l 0.0564,-0.39617 c 0.0607,-0.0346 0.13017,-0.0497 0.20108,-0.0497 0.0547,0 0.11042,0.009 0.16334,0.0251 0.20602,0.0614 0.42756,0.31785 0.57079,0.48507 0.0773,0.09 0.21625,0.29351 0.22507,0.39828 0.0109,0.13053 -0.0508,0.24165 -0.1344,0.35525 -0.14112,0.19332 -0.36407,0.35454 -0.53129,0.52705 -0.0935,0.0967 -0.17392,0.13652 -0.24871,0.13652"
                       style="fill:#e0dfef;fill-opacity:1;fill-rule:nonzero;stroke:none;stroke-width:0.0352777"
                       id="path222" />
                    <path
                       d="m 126.37737,123.05365 c -0.0399,0 -0.0787,-0.004 -0.11466,-0.0124 -0.22437,-0.0508 -0.31785,-0.20037 -0.24483,-0.43003 l 0.073,-0.0152 v -0.0882 c 0.0265,-0.17639 0.097,-0.24518 0.19015,-0.24518 0.0741,0 0.16193,0.0434 0.2533,0.11077 0.13158,0.0974 0.31044,0.26952 0.2674,0.44627 -0.037,0.14957 -0.2413,0.23389 -0.42439,0.23389"
                       style="fill:#e0dfef;fill-opacity:1;fill-rule:nonzero;stroke:none;stroke-width:0.0352777"
                       id="path224" />
                    <g
                       id="g15996"
                       transform="matrix(0.03527778,0,0,-0.03527778,-135.75839,234.16207)">
                      <g
                         id="g15998"
                         clip-path="url(#clipPath16002)">
                        <path
                           d="m 7177.89,2214.39 -67.4,105.03 c 10.86,-6.09 19.78,-14.94 34.44,-15.73 1.37,-0.08 2.71,-0.11 4.02,-0.11 16.44,0 27.85,5.63 42.87,10.23 15.2,4.66 32.95,11.29 47.06,16.63 15.42,5.83 29.2,9.96 45.19,15.07 13.72,4.39 22.1,12.61 35.94,12.61 3.42,0 7.19,-0.5 11.45,-1.69 1.34,-7.98 -0.61,-20.6 9.19,-24.6 1.06,-0.43 2.22,-0.62 3.46,-0.62 6.67,0 15.58,5.42 21.66,7.76 18.76,7.21 35.72,11.17 53.54,18.64 8.62,3.61 14.88,3.36 23.63,9.86 8.38,6.23 17.41,10.89 26.14,16.73 16.17,10.81 32.07,22.54 48.16,33.49 21.52,14.64 37.71,33.05 51.9,53.17 1.94,-8.79 3.74,-17.64 5.41,-26.52 -48.67,-68.36 -112.49,-125.17 -186.58,-165.52 -63.5,-34.6 -134.59,-57.11 -210.08,-64.43 m 78.11,28.14 c 1.34,0 2.67,0 3.99,-0.02 0.1,0 0.19,0 0.29,0 3.01,0 5.37,0.62 7.74,1.25 2.37,0.62 4.75,1.24 7.8,1.24 0.14,0 0.28,0 0.43,0 0.18,0 0.36,0 0.54,0 6.68,0 12.17,2.31 18.21,3.75 11.2,2.67 21.78,6.04 32.5,10.57 9.58,4.04 16.99,10.95 24.44,18.18 9.27,8.99 10.56,21.08 1.18,30.62 -3.84,3.9 -7.36,4.5 -11.72,4.5 -0.96,0 -1.96,-0.03 -3.01,-0.06 -1.07,-0.03 -2.2,-0.06 -3.39,-0.06 -2.5,0 -5,0 -7.41,0 -4.81,0 -9.26,0 -12.59,0 -2.75,3.28 -9.99,5.11 -15.31,5.11 -1.29,0 -2.47,-0.11 -3.44,-0.33 -6.37,-1.43 -11.32,-3.65 -17.47,-4.71 -12.44,-2.15 -28.17,-8.43 -38.84,-15 -15.6,-9.62 -42.97,-36.71 -16.49,-50.37 8.65,-4.46 19.04,-4.67 29.26,-4.67 0.51,0 1.03,0 1.55,0 0.58,0 1.16,0 1.74,0 m 125.57,73.73 c 2.91,-4.28 8.9,-6.65 14.3,-6.65 2.49,0 4.85,0.5 6.72,1.55 6.2,3.47 14.11,13.05 12.5,20.18 -1,4.39 -3.65,5.89 -6.9,5.89 -4.87,0 -11.08,-3.36 -15.06,-5.36 -3.98,-1.98 -18.06,-10.97 -15.31,-16.62 0.38,-0.09 0.74,-0.13 1.08,-0.13 1.03,0 1.92,0.38 2.67,1.14 m 78.22,46.2 c -5.51,-4.69 -6.65,-14.02 1.64,-17.27 2.05,-0.8 4.42,-1.17 6.93,-1.17 8.14,0 17.64,3.93 21.67,9.71 3.58,5.15 2.84,8.94 0.58,14.39 -2.54,6.1 -3.75,6.86 -10.61,6.86 0,0 0,0 -0.01,0 -5.22,0 -19.36,-5.02 -20.2,-12.52 m -78.22,-46.2 c -0.75,1.12 -1.3,2.37 -1.57,3.74 l 2.5,-2.5 c -0.28,-0.49 -0.59,-0.9 -0.93,-1.24 M 7460,2360 c -0.23,0.85 -0.29,1.66 -0.21,2.46 1.46,1.24 3.23,2.15 5.21,2.54 l -5,-5 m -736.45,23.34 c -23.53,24.7 -44.8,51.58 -63.48,80.29 6.87,-8.43 13.99,-16.71 20.27,-25.77 6.77,-9.77 13.33,-19.1 21.78,-27.7 4.1,-4.17 8.23,-5.74 12.59,-9.18 3.92,-3.09 6.95,-7.47 10.66,-10.82 l -1.82,-6.82 m 609.64,47.35 c -2.48,0 -4.96,0.08 -7.45,0.23 -13.32,0.84 -22.99,6.23 -33.46,13.55 -8.05,5.63 -18.82,15.87 -28.32,18.58 -3.25,0.92 -6.11,1.08 -8.96,1.08 -0.7,0 -1.4,-0.01 -2.11,-0.02 -0.7,-0.01 -1.41,-0.02 -2.13,-0.02 -1.76,0 -3.58,0.05 -5.56,0.29 -9.43,1.16 -11.25,5.06 -19.54,7.2 -2.11,0.55 -4.13,0.79 -6.08,0.79 -11.19,0 -19.93,-8.02 -29.44,-12.84 -7.88,-4 -16.96,-9.41 -26.39,-9.41 -1.92,0 -3.85,0.22 -5.79,0.73 -11.08,2.88 -23.95,10.01 -34.61,12.22 -10.23,2.12 -22.99,3.68 -35.93,3.68 -19.38,0 -39.17,-3.51 -51.44,-13.92 -2.54,-2.16 -4.68,-4.53 -6.59,-7.01 l -40.44,63.03 c 1.52,0.81 2.93,1.47 4.47,2.09 5.24,-6.06 11.09,-12.15 17.6,-16.23 3.16,-1.99 5.81,-2.93 8.02,-2.93 4.61,0 7.32,4.07 8.82,11.16 1.15,5.38 -1.76,8.7 -2.73,12.58 -1.13,4.45 -0.05,9.19 -4.77,11.98 -1.97,1.17 -5.1,1.8 -8.41,1.8 -7.64,0 -16.3,-3.34 -14.34,-11.17 l -8.91,-8.9 -107.16,167 -108.08,-106.23 -10.89,-40.73 c -1.46,-0.37 -2.91,-0.73 -4.37,-1.09 -13.95,-3.44 -25.93,-10.68 -28.62,-26.79 -1.34,-8 1.73,-16.92 -0.13,-24.82 -0.55,-2.39 -2.53,-4.13 -3.18,-6.86 -0.9,-3.72 1.41,-8.37 0.28,-12.01 -1.04,-3.34 -3.81,-3.68 -5.31,-6.41 -2.1,-3.83 -0.91,-6.1 -1.46,-10.25 -0.67,-4.9 -2.17,-6.63 -4.47,-6.63 -1.99,0 -4.58,1.3 -7.74,2.96 -10.29,5.41 -21.24,14.71 -27.31,24.67 -3.11,5.09 -5.66,12.67 -7.13,17.91 -1.24,4.49 -5.21,12.62 -3.14,16.86 2.41,-1.41 11.7,-3.22 18.53,-3.22 3.38,0 6.16,0.44 7.21,1.6 3.17,3.47 -2.59,15.05 -3.55,18.86 -2.5,9.81 -11.61,28.67 -5.31,40.25 1.37,2.5 4.48,4.85 6.02,7.38 1.32,2.13 2.21,4.45 3.36,6.68 3.25,6.23 4.71,12.13 2.6,19.34 -1.09,3.68 -6.05,11.45 -9.96,13.48 -1.27,0.65 -2.57,0.86 -3.89,0.86 -1.13,0 -2.27,-0.15 -3.41,-0.3 -1.14,-0.15 -2.28,-0.3 -3.41,-0.3 -0.73,0 -1.46,0.06 -2.19,0.23 -3.3,0.78 -4.54,3 -8.06,3.65 -7.82,1.44 -14.46,1.32 -22.08,3.03 -5.53,1.24 -13.07,5.78 -17.47,9.4 -6.39,5.28 -5.95,9.4 -5.8,17.57 0.08,4.23 -0.77,6.58 -1.66,10.05 -0.72,2.79 -0.64,7.37 -1.51,10.22 -1.31,4.29 -7.4,10.71 -10.04,13.97 -6.12,7.55 -10.47,8.98 -10.22,19.34 0.21,8.41 -3.42,13.12 -3.34,21.77 0.04,4.41 2.58,21.69 -4.69,21.69 -0.44,0 -0.92,-0.06 -1.44,-0.2 -1.45,-4.48 0.64,-8.91 -0.4,-13.3 -0.75,-3.18 -2.92,-4.7 -3.65,-8.07 -1.55,-7.26 -0.36,-17.73 0.05,-25.24 0.44,-8.19 3.5,-14.81 3.43,-23.43 -0.03,-3.6 -0.87,-8.37 -0.13,-11.85 0.73,-3.39 2.87,-4.89 3.65,-8.07 1.04,-4.29 -1.39,-9.45 -0.34,-13.74 0.77,-3.19 2.92,-4.69 3.64,-8.07 0.8,-3.8 -1.21,-8.26 -0.3,-12.02 0.78,-3.19 2.93,-4.69 3.65,-8.08 0.59,-2.83 -0.38,-6.04 -0.52,-9.05 -4.37,13.25 -8.27,26.74 -11.64,40.41 -10.51,42.57 -16.1,87.11 -16.1,132.96 0,20.27 1.1,40.28 3.21,59.98 1.28,11.86 2.93,23.59 4.95,35.22 0.88,5.07 1.82,10.1 2.84,15.13 21.26,104.93 72.25,199.12 143.77,273.33 8.98,-7.97 17.34,-15.7 25.1,-23.11 -2,-1.38 -3.96,-2.83 -5.84,-4.41 -16.78,-14.12 -29.3,-32.08 -40.42,-50.14 -6.28,-10.2 -11.42,-20.06 -17.58,-30.23 -3.09,-5.11 -5.73,-9.24 -7.95,-14.84 -2.44,-6.15 -3.81,-13.22 -6.19,-18.65 -2.6,-5.9 -2.8,-9.39 -4.19,-15.89 -0.89,-4.17 -4.3,-10.74 -5.2,-14.89 -0.72,-3.25 -0.25,-6.15 -0.66,-9.39 -0.5,-3.9 -2.57,-5.45 -3.15,-8.57 -1.09,-5.77 -1.21,-15.53 0.22,-21.22 0.42,-0.07 0.82,-0.11 1.2,-0.11 2.07,0 3.73,1.07 4.99,3.2 -3.16,4.28 -2.97,5.21 -2.78,6.13 2.11,0.62 4.3,0.83 6.53,0.83 2.39,0 4.82,-0.24 7.26,-0.48 2.43,-0.24 4.87,-0.49 7.25,-0.49 1.82,0 3.61,0.15 5.36,0.54 6.02,1.36 11.51,7.93 17.3,9.45 1.26,0.32 2.25,0.46 3.07,0.46 2.86,0 3.75,-1.61 6.98,-2.29 3.99,-0.85 7.9,-0.72 11.91,-1.5 2.57,-0.5 7.44,-2.5 10.79,-3.34 5.03,-1.23 7.61,-2.6 12.97,-2.6 0.14,0 0.28,0 0.41,0 0.26,0.01 0.51,0.01 0.76,0.01 1.57,0 3.08,-0.06 4.55,-0.12 1.48,-0.06 2.92,-0.12 4.31,-0.12 4.72,0 8.97,0.69 12.98,4.42 6.56,6.11 8.57,13.81 11.72,21.84 3.24,8.23 7.21,13.88 5.12,23.44 -1.63,0.8 -2.56,2.1 -2.79,3.93 0.13,2.29 0.25,4.58 0.38,6.87 -0.62,3.7 -2.46,8.21 -3.54,11.71 -2.67,8.57 -3.39,15.92 -3.35,25.11 0.05,9.88 -0.12,18.45 -9.22,24.44 -9.31,6.12 -36.19,12.64 -20.06,28.28 4.99,4.85 10.6,7.2 15.84,9.94 11.49,-11.67 21.3,-22.32 29.51,-31.69 22,-26.35 33.81,-42.85 33.81,-42.85 v 0 c 0,0 14.02,50.15 10.07,120.52 230.11,-40.48 430.03,-164.74 564.83,-338.96 -2.12,-1.59 -3.9,-3.12 -4.96,-4.12 -3.07,-2.88 -6.33,-5.76 -8.19,-9.32 -2.49,-4.75 -2.25,-10.62 -2.41,-16.31 -0.2,-6.18 -2.56,-11.12 -2.53,-17.5 0.04,-6.62 0.58,-12.71 2.43,-18.88 3.21,-10.7 11.09,-18.72 20.08,-24.87 4.56,-3.12 10.03,-5.4 15.05,-8.12 3.94,-2.13 5.53,-3.54 7.68,-3.54 1.4,0 3.03,0.59 5.7,1.97 7.7,3.99 16.03,7.82 22.18,14.07 0.85,0.87 1.7,1.73 2.55,2.59 9.57,-15.87 18.61,-31.99 27.17,-48.48 -11.04,-9.12 -22.63,-17.17 -31.33,-23.88 -16.35,-12.63 -40.94,-19.07 -47.19,-40.04 -6.69,-22.41 8.76,-41.11 16.9,-60.27 8.52,-20.01 15.9,-55.17 3.48,-73.96 -5.3,-8.02 -15.62,-12.79 -23.57,-16.61 -11.76,-5.66 -16.22,-12.71 -26.61,-20.27 -14.89,-10.84 -32.92,-15.27 -51.33,-15.27 m -40.96,81.81 c -9.65,0 -22.17,-11.06 -27.91,-19.32 -7.88,-11.38 6.81,-23.12 15,-28.81 3.01,-2.1 5.91,-4.27 9.46,-5.68 2.11,-0.84 6.69,-3.99 8.64,-4 0.01,0 0.02,0 0.02,0 5.9,0 8.15,14.11 10.36,18.75 7.03,14.72 -4.19,25.38 -15.3,34.06 v 5 c -0.09,0 -0.18,0 -0.27,0 m 92.77,7.74 c -0.5,-3.13 -2.45,-7.75 -3.05,-9.69 -1.08,-3.52 -2.88,-8.33 -4.45,-11.8 -1.74,-3.84 -2.93,-8.07 -3.75,-12.5 -0.85,-4.58 -3.08,-8.24 -3.87,-12.43 -1.56,-8.25 6.69,-14.32 14.49,-14.32 1.1,0 2.2,0.12 3.26,0.37 7.54,1.82 14.33,7.69 20.43,12.07 4.11,2.96 5.21,2.36 7.56,7.45 2,4.3 2.93,8.77 4.31,13.24 1.4,4.52 2.61,7.04 2.57,12.37 -0.03,4.96 0.61,10.2 -0.57,14.99 -2.14,8.79 -7.06,12.2 -12.67,12.2 -9.46,0 -20.87,-9.68 -24.26,-19.69 v 7.74 c 0.15,0.91 0.17,1.7 0,2.26 v -2.26 m -45,-30.24 -2.5,-2.5 c 5.59,0.1 17.73,0.57 17.67,8.75 -0.02,4.73 -9.74,13.51 -14.6,13.51 -0.07,0 -0.14,0 -0.21,-0.01 -0.54,-6.68 -5.67,-14.29 -2.43,-21.4 l 2.07,1.65 m 5.81,117.87 c -3.06,0 -6.09,-0.67 -7.8,-3.38 -3.06,-4.81 1.34,-10.03 2.12,-14.49 0.85,-4.81 -1.11,-10.19 -0.26,-15 0.48,-2.72 2.19,-4.79 2.76,-7.5 0.49,-2.38 -0.49,-5.14 -0.19,-7.56 0.3,-2.41 1.48,-3.63 2,-5.5 0.67,-2.34 -0.22,-4.88 0.43,-7.07 0.82,-2.76 4.78,-6.75 7.63,-7.37 l 2.5,-7.5 c 3.84,-1.86 10.99,-3.4 17.42,-3.4 3.98,0 7.69,0.59 10.17,2.06 6.54,3.87 9.59,12.54 11.16,18.84 1.83,7.37 3.15,20.83 1.34,28.84 -1.96,8.61 -9.5,13.93 -16.55,18.66 -4.47,2.99 -10.81,5.71 -16.03,6.94 -4.45,1.05 -8.15,2.59 -12.45,3.12 -1.33,0.16 -2.8,0.31 -4.25,0.31 M 7410,2546.6 c -1.12,-6.09 1.97,-8.75 5.68,-8.75 3.67,0 7.94,2.58 9.43,7.02 1.95,5.82 -2.49,9.35 -7.09,9.35 -3.51,0 -7.11,-2.05 -8.02,-6.72 v -0.9 m -754.56,98.17 c 0.97,-6.16 3.54,-14.11 7.57,-16.76 1.09,-0.72 2.39,-1.03 3.81,-1.03 6.29,0 14.84,6.15 17.05,10.5 4.28,8.42 0.27,16.78 -6.94,21.89 -3.23,2.28 -10.43,5.6 -14.49,5.81 -0.15,0.01 -0.3,0.02 -0.45,0.02 -3.73,0 -7.77,-2.35 -11.62,-3.07 -1.2,-4.82 -1.98,-17.11 5.07,-17.36 m 174.44,221.94 c -0.95,-4.81 -5.71,-7.91 -6.8,-12.27 -1.23,-4.82 0.86,-8.74 3.74,-12.62 2.08,-2.83 5.89,-7.1 9.73,-7.1 0.34,0 0.67,0.03 1.01,0.1 4.13,0.85 6.64,6.55 9.87,8.99 6.58,4.96 18.23,9.99 10.09,19.96 -3.27,4 -8.81,5.61 -13.77,6.32 -1.28,0.19 -2.45,0.28 -3.52,0.28 -4.13,0 -6.96,-1.33 -10.35,-3.66 0.05,0.26 0.09,0.52 0.12,0.79 l -2.5,-2.5 c 0.84,0.62 1.62,1.19 2.38,1.71 m -143.05,68.5 c -1.9,0 -3.87,-0.11 -5.61,-0.19 -3.29,-0.13 -4.48,-1.47 -6.78,-1.96 -5.48,-1.2 -9.77,-0.75 -14.51,-4.25 -7.46,-5.51 -13.04,-14.5 -17.46,-22.32 -5.52,-9.75 -9.97,-19.8 -9.97,-31.49 0,-5.06 -0.12,-9.32 2.78,-13.47 3.04,-4.35 4.59,-7.4 6.6,-12.15 4.53,-10.64 8.62,-14.28 20.62,-14.37 0.07,0 0.14,0 0.21,0 10.78,0 20.77,6.22 29.76,11.18 4.3,2.36 7.74,5.78 11.55,8.53 3.29,2.36 7.14,4.02 9.8,7.72 6.36,8.85 7.41,20.28 9.93,30.06 1.34,5.21 2.36,12.8 1.03,18.53 -0.25,1.11 -1.5,1.21 -1.72,2.03 -0.53,1.93 0.01,3.95 -0.49,5.76 -0.79,2.84 -3.44,5.44 -2.57,8.68 l -0.49,2.02 c -2.55,0.21 -3.9,2.23 -5.98,2.76 -1.16,0.3 -2.4,0.38 -3.66,0.38 -1.63,0 -3.29,-0.14 -4.87,-0.16 -0.1,0 -0.2,0 -0.3,0 -5.89,0 -9.34,1.96 -14.64,2.56 -1.01,0.11 -2.11,0.15 -3.23,0.15 m 69.5,-10.68 c -7.01,0 -15.06,-16.86 -8.83,-17.03 l -5,-2.5 c -0.21,-9.65 7.15,-14.4 14.38,-14.4 8.17,0 16.17,6.06 12.91,17.93 -1.44,5.21 -6.85,15.17 -12.91,15.96 -0.19,0.02 -0.37,0.04 -0.55,0.04 M 7410,2545 v 1.6 c 0,0.02 0.01,0.04 0.01,0.06 L 7410,2545 m -807.22,34.5 c -0.31,0.86 -0.62,1.75 -0.92,2.61 0.29,-0.61 0.54,-1.25 0.74,-1.94 0.06,-0.22 0.12,-0.44 0.18,-0.67 m 52.88,65.27 c -0.08,0 -0.15,0 -0.22,0 -0.32,2.02 -0.47,3.85 -0.44,5.23 l 2.5,-5 c -0.66,-0.16 -1.28,-0.23 -1.84,-0.23"
                           style="fill:url(#radialGradient16008);fill-opacity:1;fill-rule:nonzero;stroke:none"
                           id="path16010" />
                      </g>
                    </g>
                    <g
                       id="g16012"
                       transform="matrix(0.03527778,0,0,-0.03527778,-135.75839,234.16207)">
                      <g
                         id="g16014"
                         clip-path="url(#clipPath16018)">
                        <path
                           d="m 7148.95,2303.58 c -1.31,0 -2.65,0.03 -4.02,0.11 -14.66,0.79 -23.58,9.64 -34.44,15.73 l -81.1,126.4 c 1.91,2.48 4.05,4.85 6.59,7.01 12.27,10.41 32.06,13.92 51.44,13.92 12.94,0 25.7,-1.56 35.93,-3.68 10.66,-2.21 23.53,-9.34 34.61,-12.22 1.94,-0.51 3.87,-0.73 5.79,-0.73 9.43,0 18.51,5.41 26.39,9.41 9.51,4.82 18.25,12.84 29.44,12.84 1.95,0 3.97,-0.24 6.08,-0.79 8.29,-2.14 10.11,-6.04 19.54,-7.2 1.98,-0.24 3.8,-0.29 5.56,-0.29 0.72,0 1.43,0.01 2.13,0.02 0.71,0.01 1.41,0.02 2.11,0.02 2.85,0 5.71,-0.16 8.96,-1.08 9.5,-2.71 20.27,-12.95 28.32,-18.58 10.47,-7.32 20.14,-12.71 33.46,-13.55 2.49,-0.15 4.97,-0.23 7.45,-0.23 18.41,0 36.44,4.43 51.33,15.27 10.39,7.56 14.85,14.61 26.61,20.27 7.95,3.82 18.27,8.59 23.57,16.61 12.42,18.79 5.04,53.95 -3.48,73.96 -8.14,19.16 -23.59,37.86 -16.9,60.27 6.25,20.97 30.84,27.41 47.19,40.04 8.7,6.71 20.29,14.76 31.33,23.88 34.12,-65.74 60.01,-136.25 76.3,-210.13 -14.19,-20.12 -30.38,-38.53 -51.9,-53.17 -16.09,-10.95 -31.99,-22.68 -48.16,-33.49 -8.73,-5.84 -17.76,-10.5 -26.14,-16.73 -8.75,-6.5 -15.01,-6.25 -23.63,-9.86 -17.82,-7.47 -34.78,-11.43 -53.54,-18.64 -6.08,-2.34 -14.99,-7.76 -21.66,-7.76 -1.24,0 -2.4,0.19 -3.46,0.62 -9.8,4 -7.85,16.62 -9.19,24.6 -4.26,1.19 -8.03,1.69 -11.45,1.69 -13.84,0 -22.22,-8.22 -35.94,-12.61 -15.99,-5.11 -29.77,-9.24 -45.19,-15.07 -14.11,-5.34 -31.86,-11.97 -47.06,-16.63 -15.02,-4.6 -26.43,-10.23 -42.87,-10.23"
                           style="fill:url(#radialGradient16024);fill-opacity:1;fill-rule:nonzero;stroke:none"
                           id="path16026" />
                      </g>
                    </g>
                    <g
                       id="g16040"
                       transform="matrix(0.03527778,0,0,-0.03527778,-135.75839,234.16207)">
                      <g
                         id="g16042"
                         clip-path="url(#clipPath16046)">
                        <path
                           d="m 6725.37,2390.16 c -3.71,3.35 -6.74,7.73 -10.66,10.82 -4.36,3.44 -8.49,5.01 -12.59,9.18 -8.45,8.6 -15.01,17.93 -21.78,27.7 -6.28,9.06 -13.4,17.34 -20.27,25.77 -23.38,35.96 -42.7,74.79 -57.29,115.87 -0.06,0.23 -0.12,0.45 -0.18,0.67 -0.2,0.69 -0.45,1.33 -0.74,1.94 -1.06,3.04 -2.09,6.07 -3.1,9.13 0.14,3.01 1.11,6.22 0.52,9.05 -0.72,3.39 -2.87,4.89 -3.65,8.08 -0.91,3.76 1.1,8.22 0.3,12.02 -0.72,3.38 -2.87,4.88 -3.64,8.07 -1.05,4.29 1.38,9.45 0.34,13.74 -0.78,3.18 -2.92,4.68 -3.65,8.07 -0.74,3.48 0.1,8.25 0.13,11.85 0.07,8.62 -2.99,15.24 -3.43,23.43 -0.41,7.51 -1.6,17.98 -0.05,25.24 0.73,3.37 2.9,4.89 3.65,8.07 1.04,4.39 -1.05,8.82 0.4,13.3 0.52,0.14 1,0.2 1.44,0.2 7.27,0 4.73,-17.28 4.69,-21.69 -0.08,-8.65 3.55,-13.36 3.34,-21.77 -0.25,-10.36 4.1,-11.79 10.22,-19.34 2.64,-3.26 8.73,-9.68 10.04,-13.97 0.87,-2.85 0.79,-7.43 1.51,-10.22 0.89,-3.47 1.74,-5.82 1.66,-10.05 -0.15,-8.17 -0.59,-12.29 5.8,-17.57 4.4,-3.62 11.94,-8.16 17.47,-9.4 7.62,-1.71 14.26,-1.59 22.08,-3.03 3.52,-0.65 4.76,-2.87 8.06,-3.65 0.73,-0.17 1.46,-0.23 2.19,-0.23 1.13,0 2.27,0.15 3.41,0.3 1.14,0.15 2.28,0.3 3.41,0.3 1.32,0 2.62,-0.21 3.89,-0.86 3.91,-2.03 8.87,-9.8 9.96,-13.48 2.11,-7.21 0.65,-13.11 -2.6,-19.34 -1.15,-2.23 -2.04,-4.55 -3.36,-6.68 -1.54,-2.53 -4.65,-4.88 -6.02,-7.38 -6.3,-11.58 2.81,-30.44 5.31,-40.25 0.96,-3.81 6.72,-15.39 3.55,-18.86 -1.05,-1.16 -3.83,-1.6 -7.21,-1.6 -6.83,0 -16.12,1.81 -18.53,3.22 -2.07,-4.24 1.9,-12.37 3.14,-16.86 1.47,-5.24 4.02,-12.82 7.13,-17.91 6.07,-9.96 17.02,-19.26 27.31,-24.67 3.16,-1.66 5.75,-2.96 7.74,-2.96 2.3,0 3.8,1.73 4.47,6.63 0.55,4.15 -0.64,6.42 1.46,10.25 1.5,2.73 4.27,3.07 5.31,6.41 1.13,3.64 -1.18,8.29 -0.28,12.01 0.65,2.73 2.63,4.47 3.18,6.86 1.86,7.9 -1.21,16.82 0.13,24.82 2.69,16.11 14.67,23.35 28.62,26.79 1.46,0.36 2.91,0.72 4.37,1.09 l -37.2,-139.11"
                           style="fill:url(#radialGradient16052);fill-opacity:1;fill-rule:nonzero;stroke:none"
                           id="path16054" />
                      </g>
                    </g>
                    <g
                       id="g16056"
                       transform="matrix(0.03527778,0,0,-0.03527778,-135.75839,234.16207)">
                      <g
                         id="g16058"
                         clip-path="url(#clipPath16062)">
                        <path
                           d="m 7019.04,2491.78 c -2.21,0 -4.86,0.94 -8.02,2.93 -6.51,4.08 -12.36,10.17 -17.6,16.23 -1.54,-0.62 -2.95,-1.28 -4.47,-2.09 l -0.25,0.38 8.91,8.9 c -1.96,7.83 6.7,11.17 14.34,11.17 3.31,0 6.44,-0.63 8.41,-1.8 4.72,-2.79 3.64,-7.53 4.77,-11.98 0.97,-3.88 3.88,-7.2 2.73,-12.58 -1.5,-7.09 -4.21,-11.16 -8.82,-11.16"
                           style="fill:url(#radialGradient16068);fill-opacity:1;fill-rule:nonzero;stroke:none"
                           id="path16070" />
                      </g>
                    </g>
                    <g
                       id="g16072"
                       transform="matrix(0.03527778,0,0,-0.03527778,-135.75839,234.16207)">
                      <g
                         id="g16074"
                         clip-path="url(#clipPath16078)">
                        <path
                           d="m 6661.13,2936.82 c -0.38,0 -0.78,0.04 -1.2,0.11 -1.43,5.69 -1.31,15.45 -0.22,21.22 0.58,3.12 2.65,4.67 3.15,8.57 0.41,3.24 -0.06,6.14 0.66,9.39 0.9,4.15 4.31,10.72 5.2,14.89 1.39,6.5 1.59,9.99 4.19,15.89 2.38,5.43 3.75,12.5 6.19,18.65 2.22,5.6 4.86,9.73 7.95,14.84 6.16,10.17 11.3,20.03 17.58,30.23 11.12,18.06 23.64,36.02 40.42,50.14 1.88,1.58 3.84,3.03 5.84,4.41 6.78,-6.47 13.1,-12.7 18.98,-18.68 -5.24,-2.74 -10.85,-5.09 -15.84,-9.94 -16.13,-15.64 10.75,-22.16 20.06,-28.28 9.1,-5.99 9.27,-14.56 9.22,-24.44 -0.04,-9.19 0.68,-16.54 3.35,-25.11 1.08,-3.5 2.92,-8.01 3.54,-11.71 -0.13,-2.29 -0.25,-4.58 -0.38,-6.87 0.23,-1.83 1.16,-3.13 2.79,-3.93 2.09,-9.56 -1.88,-15.21 -5.12,-23.44 -3.15,-8.03 -5.16,-15.73 -11.72,-21.84 -4.01,-3.73 -8.26,-4.42 -12.98,-4.42 -1.39,0 -2.83,0.06 -4.31,0.12 -1.47,0.06 -2.98,0.12 -4.55,0.12 -0.25,0 -0.5,0 -0.76,-0.01 -0.13,0 -0.27,0 -0.41,0 -5.36,0 -7.94,1.37 -12.97,2.6 -3.35,0.84 -8.22,2.84 -10.79,3.34 -4.01,0.78 -7.92,0.65 -11.91,1.5 -3.23,0.68 -4.12,2.29 -6.98,2.29 -0.82,0 -1.81,-0.14 -3.07,-0.46 -5.79,-1.52 -11.28,-8.09 -17.3,-9.45 -1.75,-0.39 -3.54,-0.54 -5.36,-0.54 -2.38,0 -4.82,0.25 -7.25,0.49 -2.44,0.24 -4.87,0.48 -7.26,0.48 -2.23,0 -4.42,-0.21 -6.53,-0.83 -0.19,-0.92 -0.38,-1.85 2.78,-6.13 -1.26,-2.13 -2.92,-3.2 -4.99,-3.2"
                           style="fill:url(#radialGradient16084);fill-opacity:1;fill-rule:nonzero;stroke:none"
                           id="path16086" />
                      </g>
                    </g>
                    <g
                       id="g16088"
                       transform="matrix(0.03527778,0,0,-0.03527778,-135.75839,234.16207)">
                      <g
                         id="g16090"
                         clip-path="url(#clipPath16094)">
                        <path
                           d="m 7297.44,2454.69 c 0,0 -0.01,0 -0.02,0 -1.95,0.01 -6.53,3.16 -8.64,4 -3.55,1.41 -6.45,3.58 -9.46,5.68 -8.19,5.69 -22.88,17.43 -15,28.81 5.74,8.26 18.26,19.32 27.91,19.32 0.09,0 0.18,0 0.27,0 v -5 c 11.11,-8.68 22.33,-19.34 15.3,-34.06 -2.21,-4.64 -4.46,-18.75 -10.36,-18.75"
                           style="fill:url(#radialGradient16100);fill-opacity:1;fill-rule:nonzero;stroke:none"
                           id="path16102" />
                      </g>
                    </g>
                    <g
                       id="g16104"
                       transform="matrix(0.03527778,0,0,-0.03527778,-135.75839,234.16207)">
                      <g
                         id="g16106"
                         clip-path="url(#clipPath16110)">
                        <path
                           d="m 7337.5,2487.5 2.5,2.5 -2.07,-1.65 c -3.24,7.11 1.89,14.72 2.43,21.4 0.07,0.01 0.14,0.01 0.21,0.01 4.86,0 14.58,-8.78 14.6,-13.51 0.06,-8.18 -12.08,-8.65 -17.67,-8.75"
                           style="fill:url(#radialGradient16116);fill-opacity:1;fill-rule:nonzero;stroke:none"
                           id="path16118" />
                      </g>
                    </g>
                    <g
                       id="g16120"
                       transform="matrix(0.03527778,0,0,-0.03527778,-135.75839,234.16207)">
                      <g
                         id="g16122"
                         clip-path="url(#clipPath16126)">
                        <path
                           d="m 7435.24,2710.84 c -2.15,0 -3.74,1.41 -7.68,3.54 -5.02,2.72 -10.49,5 -15.05,8.12 -8.99,6.15 -16.87,14.17 -20.08,24.87 -1.85,6.17 -2.39,12.26 -2.43,18.88 -0.03,6.38 2.33,11.32 2.53,17.5 0.16,5.69 -0.08,11.56 2.41,16.31 1.86,3.56 5.12,6.44 8.19,9.32 1.06,1 2.84,2.53 4.96,4.12 20.77,-26.85 40.03,-54.93 57.58,-84.03 -0.85,-0.86 -1.7,-1.72 -2.55,-2.59 -6.15,-6.25 -14.48,-10.08 -22.18,-14.07 -2.67,-1.38 -4.3,-1.97 -5.7,-1.97"
                           style="fill:url(#radialGradient16132);fill-opacity:1;fill-rule:nonzero;stroke:none"
                           id="path16134" />
                      </g>
                    </g>
                    <g
                       id="g16136"
                       transform="matrix(0.03527778,0,0,-0.03527778,-135.75839,234.16207)">
                      <g
                         id="g16138"
                         clip-path="url(#clipPath16142)">
                        <path
                           d="m 7260.28,2242.51 c -0.1,0 -0.19,0 -0.29,0 -1.32,0.02 -2.65,0.02 -3.99,0.02 -0.58,0 -1.16,0 -1.74,0 -0.52,0 -1.04,0 -1.55,0 -10.22,0 -20.61,0.21 -29.26,4.67 -26.48,13.66 0.89,40.75 16.49,50.37 10.67,6.57 26.4,12.85 38.84,15 6.15,1.06 11.1,3.28 17.47,4.71 0.97,0.22 2.15,0.33 3.44,0.33 5.32,0 12.56,-1.83 15.31,-5.11 3.33,0 7.78,0 12.59,0 2.41,0 4.91,0 7.41,0 1.19,0 2.32,0.03 3.39,0.06 1.05,0.03 2.05,0.06 3.01,0.06 4.36,0 7.88,-0.6 11.72,-4.5 9.38,-9.54 8.09,-21.63 -1.18,-30.62 -7.45,-7.23 -14.86,-14.14 -24.44,-18.18 -10.72,-4.53 -21.3,-7.9 -32.5,-10.57 -6.04,-1.44 -11.53,-3.75 -18.21,-3.75 -0.18,0 -0.36,0 -0.54,0 -0.15,0 -0.29,0 -0.43,0 -3.05,0 -5.43,-0.62 -7.8,-1.24 -2.37,-0.63 -4.73,-1.25 -7.74,-1.25"
                           style="fill:url(#radialGradient16148);fill-opacity:1;fill-rule:nonzero;stroke:none"
                           id="path16150" />
                      </g>
                    </g>
                    <g
                       id="g16152"
                       transform="matrix(0.03527778,0,0,-0.03527778,-135.75839,234.16207)">
                      <g
                         id="g16154"
                         clip-path="url(#clipPath16158)">
                        <path
                           d="m 7395.87,2309.61 c -5.4,0 -11.39,2.37 -14.3,6.65 0.34,0.34 0.65,0.75 0.93,1.24 l -2.5,2.5 c 0.27,-1.37 0.82,-2.62 1.57,-3.74 -0.75,-0.76 -1.64,-1.14 -2.67,-1.14 -0.34,0 -0.7,0.04 -1.08,0.13 -2.75,5.65 11.33,14.64 15.31,16.62 3.98,2 10.19,5.36 15.06,5.36 3.25,0 5.9,-1.5 6.9,-5.89 1.61,-7.13 -6.3,-16.71 -12.5,-20.18 -1.87,-1.05 -4.23,-1.55 -6.72,-1.55"
                           style="fill:url(#radialGradient16164);fill-opacity:1;fill-rule:nonzero;stroke:none"
                           id="path16166" />
                      </g>
                    </g>
                    <g
                       id="g16168"
                       transform="matrix(0.03527778,0,0,-0.03527778,-135.75839,234.16207)">
                      <g
                         id="g16170"
                         clip-path="url(#clipPath16174)">
                        <path
                           d="m 6662.71,2835.01 c -0.07,0 -0.14,0 -0.21,0 -12,0.09 -16.09,3.73 -20.62,14.37 -2.01,4.75 -3.56,7.8 -6.6,12.15 -2.9,4.15 -2.78,8.41 -2.78,13.47 0,11.69 4.45,21.74 9.97,31.49 4.42,7.82 10,16.81 17.46,22.32 4.74,3.5 9.03,3.05 14.51,4.25 2.3,0.49 3.49,1.83 6.78,1.96 1.74,0.08 3.71,0.19 5.61,0.19 1.12,0 2.22,-0.04 3.23,-0.15 5.3,-0.6 8.75,-2.56 14.64,-2.56 0.1,0 0.2,0 0.3,0 1.58,0.02 3.24,0.16 4.87,0.16 1.26,0 2.5,-0.08 3.66,-0.38 2.08,-0.53 3.43,-2.55 5.98,-2.76 l 0.49,-2.02 c -0.87,-3.24 1.78,-5.84 2.57,-8.68 0.5,-1.81 -0.04,-3.83 0.49,-5.76 0.22,-0.82 1.47,-0.92 1.72,-2.03 1.33,-5.73 0.31,-13.32 -1.03,-18.53 -2.52,-9.78 -3.57,-21.21 -9.93,-30.06 -2.66,-3.7 -6.51,-5.36 -9.8,-7.72 -3.81,-2.75 -7.25,-6.17 -11.55,-8.53 -8.99,-4.96 -18.98,-11.18 -29.76,-11.18"
                           style="fill:url(#radialGradient16180);fill-opacity:1;fill-rule:nonzero;stroke:none"
                           id="path16182" />
                      </g>
                    </g>
                    <g
                       id="g16184"
                       transform="matrix(0.03527778,0,0,-0.03527778,-135.75839,234.16207)">
                      <g
                         id="g16186"
                         clip-path="url(#clipPath16190)">
                        <path
                           d="m 6756.88,2890.6 c -7.23,0 -14.59,4.75 -14.38,14.4 l 5,2.5 c -6.23,0.17 1.82,17.03 8.83,17.03 0.18,0 0.36,-0.02 0.55,-0.04 6.06,-0.79 11.47,-10.75 12.91,-15.96 3.26,-11.87 -4.74,-17.93 -12.91,-17.93"
                           style="fill:url(#radialGradient16196);fill-opacity:1;fill-rule:nonzero;stroke:none"
                           id="path16198" />
                      </g>
                    </g>
                    <g
                       id="g16200"
                       transform="matrix(0.03527778,0,0,-0.03527778,-135.75839,234.16207)">
                      <g
                         id="g16202"
                         clip-path="url(#clipPath16206)">
                        <path
                           d="m 6836.55,2834.72 c -3.84,0 -7.65,4.27 -9.73,7.1 -2.88,3.88 -4.97,7.8 -3.74,12.62 1.09,4.36 5.85,7.46 6.8,12.27 3.39,2.33 6.22,3.66 10.35,3.66 1.07,0 2.24,-0.09 3.52,-0.28 4.96,-0.71 10.5,-2.32 13.77,-6.32 8.14,-9.97 -3.51,-15 -10.09,-19.96 -3.23,-2.44 -5.74,-8.14 -9.87,-8.99 -0.34,-0.07 -0.67,-0.1 -1.01,-0.1 m -9.05,30.28 2.5,2.5 c -0.03,-0.27 -0.07,-0.53 -0.12,-0.79 -0.76,-0.52 -1.54,-1.09 -2.38,-1.71"
                           style="fill:url(#radialGradient16212);fill-opacity:1;fill-rule:nonzero;stroke:none"
                           id="path16214" />
                      </g>
                    </g>
                    <g
                       id="g16216"
                       transform="matrix(0.03527778,0,0,-0.03527778,-135.75839,234.16207)">
                      <g
                         id="g16218"
                         clip-path="url(#clipPath16222)">
                        <path
                           d="m 6666.82,2626.98 c -1.42,0 -2.72,0.31 -3.81,1.03 -4.03,2.65 -6.6,10.6 -7.57,16.76 0.07,0 0.14,0 0.22,0 0.56,0 1.18,0.07 1.84,0.23 l -2.5,5 c -0.03,-1.38 0.12,-3.21 0.44,-5.23 -7.05,0.25 -6.27,12.54 -5.07,17.36 3.85,0.72 7.89,3.07 11.62,3.07 0.15,0 0.3,-0.01 0.45,-0.02 4.06,-0.21 11.26,-3.53 14.49,-5.81 7.21,-5.11 11.22,-13.47 6.94,-21.89 -2.21,-4.35 -10.76,-10.5 -17.05,-10.5"
                           style="fill:url(#radialGradient16228);fill-opacity:1;fill-rule:nonzero;stroke:none"
                           id="path16230" />
                      </g>
                    </g>
                    <g
                       id="g16232"
                       transform="matrix(0.03527778,0,0,-0.03527778,-135.75839,234.16207)">
                      <g
                         id="g16234"
                         clip-path="url(#clipPath16238)">
                        <path
                           d="m 7384.37,2459.5 c -7.8,0 -16.05,6.07 -14.49,14.32 0.79,4.19 3.02,7.85 3.87,12.43 0.82,4.43 2.01,8.66 3.75,12.5 1.57,3.47 3.37,8.28 4.45,11.8 0.6,1.94 2.55,6.56 3.05,9.69 v -7.74 c 3.39,10.01 14.8,19.69 24.26,19.69 5.61,0 10.53,-3.41 12.67,-12.2 1.18,-4.79 0.54,-10.03 0.57,-14.99 0.04,-5.33 -1.17,-7.85 -2.57,-12.37 -1.38,-4.47 -2.31,-8.94 -4.31,-13.24 -2.35,-5.09 -3.45,-4.49 -7.56,-7.45 -6.1,-4.38 -12.89,-10.25 -20.43,-12.07 -1.06,-0.25 -2.16,-0.37 -3.26,-0.37 m 0.63,60.74 v 2.26 c 0.17,-0.56 0.15,-1.35 0,-2.26"
                           style="fill:url(#radialGradient16244);fill-opacity:1;fill-rule:nonzero;stroke:none"
                           id="path16246" />
                      </g>
                    </g>
                    <g
                       id="g16248"
                       transform="matrix(0.03527778,0,0,-0.03527778,-135.75839,234.16207)">
                      <g
                         id="g16250"
                         clip-path="url(#clipPath16254)">
                        <path
                           d="m 7468.36,2344.02 c -2.51,0 -4.88,0.37 -6.93,1.17 -8.29,3.25 -7.15,12.58 -1.64,17.27 -0.08,-0.8 -0.02,-1.61 0.21,-2.46 l 5,5 c -1.98,-0.39 -3.75,-1.3 -5.21,-2.54 0.84,7.5 14.98,12.52 20.2,12.52 0.01,0 0.01,0 0.01,0 6.86,0 8.07,-0.76 10.61,-6.86 2.26,-5.45 3,-9.24 -0.58,-14.39 -4.03,-5.78 -13.53,-9.71 -21.67,-9.71"
                           style="fill:url(#radialGradient16260);fill-opacity:1;fill-rule:nonzero;stroke:none"
                           id="path16262" />
                      </g>
                    </g>
                    <g
                       id="g16264"
                       transform="matrix(0.03527778,0,0,-0.03527778,-135.75839,234.16207)">
                      <g
                         id="g16266"
                         clip-path="url(#clipPath16270)">
                        <path
                           d="m 7372.42,2529.1 c -6.43,0 -13.58,1.54 -17.42,3.4 l -2.5,7.5 c -2.85,0.62 -6.81,4.61 -7.63,7.37 -0.65,2.19 0.24,4.73 -0.43,7.07 -0.52,1.87 -1.7,3.09 -2,5.5 -0.3,2.42 0.68,5.18 0.19,7.56 -0.57,2.71 -2.28,4.78 -2.76,7.5 -0.85,4.81 1.11,10.19 0.26,15 -0.78,4.46 -5.18,9.68 -2.12,14.49 1.71,2.71 4.74,3.38 7.8,3.38 1.45,0 2.92,-0.15 4.25,-0.31 4.3,-0.53 8,-2.07 12.45,-3.12 5.22,-1.23 11.56,-3.95 16.03,-6.94 7.05,-4.73 14.59,-10.05 16.55,-18.66 1.81,-8.01 0.49,-21.47 -1.34,-28.84 -1.57,-6.3 -4.62,-14.97 -11.16,-18.84 -2.48,-1.47 -6.19,-2.06 -10.17,-2.06"
                           style="fill:url(#radialGradient16276);fill-opacity:1;fill-rule:nonzero;stroke:none"
                           id="path16278" />
                      </g>
                    </g>
                    <g
                       id="g16280"
                       transform="matrix(0.03527778,0,0,-0.03527778,-135.75839,234.16207)">
                      <g
                         id="g16282"
                         clip-path="url(#clipPath16286)">
                        <path
                           d="m 7415.68,2537.85 c -3.71,0 -6.8,2.66 -5.68,8.75 v -1.6 l 0.01,1.66 c 0,-0.02 -0.01,-0.04 -0.01,-0.06 v 0.9 c 0.91,4.67 4.51,6.72 8.02,6.72 4.6,0 9.04,-3.53 7.09,-9.35 -1.49,-4.44 -5.76,-7.02 -9.43,-7.02"
                           style="fill:url(#radialGradient16292);fill-opacity:1;fill-rule:nonzero;stroke:none"
                           id="path16294" />
                      </g>
                    </g>
                  </g>
                </g>
              </g>
            </g>
          </g>
        </g>
      </g>
      <g
         id="g16432"
         transform="matrix(0.03527778,0,0,-0.03527778,-135.75839,234.16207)">
        <g
           id="g16434"
           clip-path="url(#clipPath16438)">
          <g
             id="g16440"
             transform="matrix(42.2002,0,0,51.2002,6795.9,3027.9)" />
        </g>
      </g>
    </g>
  </g>
</svg>
