<?xml version="1.0" encoding="UTF-8" standalone="no"?>
<!-- Created with Inkscape (http://www.inkscape.org/) -->

<svg
   xmlns:dc="http://purl.org/dc/elements/1.1/"
   xmlns:cc="http://creativecommons.org/ns#"
   xmlns:rdf="http://www.w3.org/1999/02/22-rdf-syntax-ns#"
   xmlns:svg="http://www.w3.org/2000/svg"
   xmlns="http://www.w3.org/2000/svg"
   xmlns:sodipodi="http://sodipodi.sourceforge.net/DTD/sodipodi-0.dtd"
   xmlns:inkscape="http://www.inkscape.org/namespaces/inkscape"
   width="96px"
   height="96px"
   viewBox="0 0 96 96"
   version="1.1"
   id="SVGRoot"
   inkscape:version="0.92.5 (2060ec1f9f, 2020-04-08)"
   sodipodi:docname="moonIcon.svg">
  <defs
     id="defs5097">
    <inkscape:perspective
       sodipodi:type="inkscape:persp3d"
       inkscape:vp_x="0 : 48 : 1"
       inkscape:vp_y="0 : 1000 : 0"
       inkscape:vp_z="96 : 48 : 1"
       inkscape:persp3d-origin="48 : 32 : 1"
       id="perspective5960" />
  </defs>
  <sodipodi:namedview
     id="base"
     pagecolor="#ffffff"
     bordercolor="#666666"
     borderopacity="1.0"
     inkscape:pageopacity="0.0"
     inkscape:pageshadow="2"
     inkscape:zoom="4"
     inkscape:cx="4.777778"
     inkscape:cy="46.733118"
     inkscape:document-units="px"
     inkscape:current-layer="layer1"
     showgrid="false"
     inkscape:window-width="1280"
     inkscape:window-height="776"
     inkscape:window-x="0"
     inkscape:window-y="0"
     inkscape:window-maximized="1"
     inkscape:grid-bbox="true" />
  <metadata
     id="metadata5100">
    <rdf:RDF>
      <cc:Work
         rdf:about="">
        <dc:format>image/svg+xml</dc:format>
        <dc:type
           rdf:resource="http://purl.org/dc/dcmitype/StillImage" />
        <dc:title />
      </cc:Work>
    </rdf:RDF>
  </metadata>
  <g
     inkscape:label="Layer 1"
     inkscape:groupmode="layer"
     id="layer1">
    <path
       style="opacity:0.98999999;fill:#f4f4f4;fill-opacity:1;stroke:none;stroke-width:3.4000001;stroke-linecap:butt;stroke-linejoin:bevel;stroke-miterlimit:10;stroke-dasharray:none;stroke-opacity:1;paint-order:stroke fill markers"
       d="M 16.005859 0.001953125 L 16.005859 8.0019531 L 8.0058594 8.0019531 L 8.0058594 16.001953 L 16.005859 16.001953 L 24.005859 16.001953 L 32.005859 16.001953 L 40.005859 16.001953 L 48.005859 16.001953 L 48.005859 24.001953 L 56.005859 24.001953 L 56.005859 32.001953 L 56.005859 40.001953 L 56.005859 48.001953 L 56.005859 56.001953 L 56.005859 64.001953 L 56.005859 72.001953 L 48.005859 72.001953 L 48.005859 80.001953 L 40.005859 80.001953 L 32.005859 80.001953 L 24.005859 80.001953 L 16.005859 80.001953 L 8.0058594 80.001953 L 8.0058594 88.001953 L 16.005859 88.001953 L 16.005859 96.001953 L 24.005859 96.001953 L 32.005859 96.001953 L 40.005859 96.001953 L 48.005859 96.001953 L 56.005859 96.001953 L 64.005859 96.001953 L 72.005859 96.001953 L 80.005859 96.001953 L 80.005859 88.001953 L 88.005859 88.001953 L 88.005859 80.001953 L 96.005859 80.001953 L 96.005859 72.001953 L 96.005859 64.001953 L 96.005859 56.001953 L 96.005859 48.001953 L 96.005859 40.001953 L 96.005859 32.001953 L 96.005859 24.001953 L 96.005859 16.001953 L 88.005859 16.001953 L 88.005859 8.0019531 L 80.005859 8.0019531 L 80.005859 0.001953125 L 72.005859 0.001953125 L 64.005859 0.001953125 L 56.005859 0.001953125 L 48.005859 0.001953125 L 40.005859 0.001953125 L 32.005859 0.001953125 L 24.005859 0.001953125 L 16.005859 0.001953125 z M 8.0058594 80.001953 L 8.0058594 72.001953 L 0.005859375 72.001953 L 0.005859375 80.001953 L 8.0058594 80.001953 z M 8.0058594 16.001953 L 0.005859375 16.001953 L 0.005859375 24.001953 L 8.0058594 24.001953 L 8.0058594 16.001953 z "
       id="rect5657" />
  </g>
</svg>
