<?xml version="1.0" encoding="UTF-8" standalone="no"?>
<svg
   xmlns:dc="http://purl.org/dc/elements/1.1/"
   xmlns:cc="http://creativecommons.org/ns#"
   xmlns:rdf="http://www.w3.org/1999/02/22-rdf-syntax-ns#"
   xmlns:svg="http://www.w3.org/2000/svg"
   xmlns="http://www.w3.org/2000/svg"
   xmlns:sodipodi="http://sodipodi.sourceforge.net/DTD/sodipodi-0.dtd"
   xmlns:inkscape="http://www.inkscape.org/namespaces/inkscape"
   version="1.1"
   id="svg110"
   width="23"
   height="23"
   viewBox="0 0 23 23"
   sodipodi:docname="moon.svg"
   inkscape:version="1.0.1 (1.0.1+r74)">
  <metadata
     id="metadata116">
    <rdf:RDF>
      <cc:Work
         rdf:about="">
        <dc:format>image/svg+xml</dc:format>
        <dc:type
           rdf:resource="http://purl.org/dc/dcmitype/StillImage" />
        <dc:title />
      </cc:Work>
    </rdf:RDF>
  </metadata>
  <defs
     id="defs114" />
  <sodipodi:namedview
     pagecolor="#ffffff"
     bordercolor="#666666"
     borderopacity="1"
     objecttolerance="10"
     gridtolerance="10"
     guidetolerance="10"
     inkscape:pageopacity="0"
     inkscape:pageshadow="2"
     inkscape:window-width="1280"
     inkscape:window-height="771"
     id="namedview112"
     showgrid="true"
     inkscape:zoom="8"
     inkscape:cx="23.635719"
     inkscape:cy="12.77231"
     inkscape:window-x="0"
     inkscape:window-y="0"
     inkscape:window-maximized="1"
     inkscape:current-layer="layer1"
     inkscape:document-rotation="0">
    <inkscape:grid
       type="xygrid"
       id="grid122"
       originx="-180"
       originy="-160" />
  </sodipodi:namedview>
  <g
     inkscape:groupmode="layer"
     id="layer1"
     inkscape:label="moonsvg"
     transform="translate(-180,-160)">
    <path
       id="rect127-3"
       style="opacity:0.999937;fill:#f2f2f2;fill-opacity:1;stroke-width:0.0394001;stroke-linecap:round"
       d="m 189,160 v 1 h -1 -1 v 1 h -1 -1 v 1 h -1 v 1 h -1 v 1 h -1 v 1 1 h -1 v 1 1 h -1 v 1 1 1 1 1 h 1 v 1 1 h 1 v 1 1 h 1 v 1 h 1 v 1 h 1 v 1 h 1 1 v 1 h 1 1 v 1 h 1 1 1 1 1 v -1 h 1 1 v -1 h 1 1 v -1 h 1 v -1 h 1 v -1 h 1 v -1 -1 h 1 v -1 -1 h 1 v -1 -1 -1 -1 h -1 v 1 h -1 v 1 1 1 h -1 -1 v 1 h -1 v 1 h -1 -1 v 1 h -1 -1 -1 v -1 h -1 -1 -1 v -1 h -1 v -1 -1 h -1 v -1 -1 h -1 v -1 -1 -1 -1 h 1 v -1 -1 h 1 v -1 h 1 v -1 h 1 v -1 h 1 1 1 1 1 v -1 h -1 -1 v -1 h -1 -1 -1 -1 z" />
  </g>
</svg>
