<?xml version="1.0" encoding="UTF-8" standalone="no"?>
<svg
   xmlns:dc="http://purl.org/dc/elements/1.1/"
   xmlns:cc="http://creativecommons.org/ns#"
   xmlns:rdf="http://www.w3.org/1999/02/22-rdf-syntax-ns#"
   xmlns:svg="http://www.w3.org/2000/svg"
   xmlns="http://www.w3.org/2000/svg"
   xmlns:sodipodi="http://sodipodi.sourceforge.net/DTD/sodipodi-0.dtd"
   xmlns:inkscape="http://www.inkscape.org/namespaces/inkscape"
   height="17.887545"
   width="101"
   viewBox="-21.98895 -9.713025 16.039718 1.3030663"
   version="1.1"
   id="svg13"
   sodipodi:docname="NetlifyCMS.svg"
   inkscape:version="1.0.1 (1.0.1+r74)">
  <metadata
     id="metadata19">
    <rdf:RDF>
      <cc:Work
         rdf:about="">
        <dc:format>image/svg+xml</dc:format>
        <dc:type
           rdf:resource="http://purl.org/dc/dcmitype/StillImage" />
        <dc:title />
      </cc:Work>
    </rdf:RDF>
  </metadata>
  <defs
     id="defs17" />
  <sodipodi:namedview
     pagecolor="#ffffff"
     bordercolor="#666666"
     borderopacity="1"
     objecttolerance="10"
     gridtolerance="10"
     guidetolerance="10"
     inkscape:pageopacity="0"
     inkscape:pageshadow="2"
     inkscape:window-width="1280"
     inkscape:window-height="771"
     id="namedview15"
     showgrid="false"
     inkscape:zoom="1.76"
     inkscape:cx="89.601319"
     inkscape:cy="-27.73627"
     inkscape:window-x="0"
     inkscape:window-y="0"
     inkscape:window-maximized="1"
     inkscape:current-layer="g840"
     inkscape:document-rotation="0" />
  <radialGradient
     gradientUnits="userSpaceOnUse"
     fy="0.82849997"
     fx="19.9925"
     cx="19.9925"
     gradientTransform="scale(0.99945,1.00055)"
     r="38.364201"
     cy="0.82849997"
     id="a">
    <stop
       stop-color="#20c6b7"
       offset="0"
       id="stop2" />
    <stop
       stop-color="#4d9abf"
       offset="1"
       id="stop4" />
  </radialGradient>
  <g
     id="g11"
     transform="translate(-21.98895,-20.228031)"
     style="fill:none;fill-rule:evenodd" />
  <g
     id="g840">
    <g
       id="g841"
       transform="matrix(0.07267036,0,0,0.07267036,-20.391005,-9.011861)">
      <path
         style="fill:#0e1e25;fill-rule:evenodd;stroke:#c9fa4b;stroke-width:0.476427;stroke-miterlimit:4;stroke-dasharray:none;stroke-opacity:1"
         inkscape:connector-curvature="0"
         id="path7"
         d="m 53.241,12.149 0.123,2.198 c 1.403,-1.7 3.245,-2.55 5.525,-2.55 3.951,0 5.962,2.268 6.032,6.804 v 12.568 h -4.26 V 18.847 c 0,-1.207 -0.26,-2.1 -0.78,-2.681 -0.52,-0.58 -1.371,-0.87 -2.552,-0.87 -1.719,0 -3,0.78 -3.84,2.338 v 13.535 h -4.262 v -19.02 h 4.016 z m 24.378,19.372 c -2.7,0 -4.89,-0.852 -6.567,-2.557 -1.678,-1.705 -2.517,-3.976 -2.517,-6.812 v -0.527 c 0,-1.898 0.365,-3.595 1.096,-5.089 0.73,-1.494 1.757,-2.657 3.078,-3.49 1.321,-0.831 2.794,-1.247 4.42,-1.247 2.583,0 4.58,0.826 5.988,2.478 1.41,1.653 2.114,3.99 2.114,7.014 v 1.723 h -12.4 c 0.13,1.57 0.652,2.812 1.57,3.726 0.918,0.914 2.073,1.371 3.464,1.371 1.952,0 3.542,-0.79 4.77,-2.373 l 2.297,2.198 c -0.76,1.136 -1.774,2.018 -3.042,2.645 -1.269,0.627 -2.692,0.94 -4.27,0.94 z M 77.111,15.227 c -1.17,0 -2.113,0.41 -2.832,1.23 -0.72,0.82 -1.178,1.963 -1.377,3.428 h 8.12 v -0.317 c -0.094,-1.43 -0.474,-2.51 -1.14,-3.243 -0.667,-0.732 -1.59,-1.098 -2.771,-1.098 z m 16.765,-7.7 v 4.623 h 3.35 v 3.164 h -3.35 v 10.617 c 0,0.726 0.144,1.25 0.43,1.573 0.286,0.322 0.798,0.483 1.535,0.483 a 6.55,6.55 0 0 0 1.49,-0.176 v 3.305 c -0.97,0.27 -1.905,0.404 -2.806,0.404 -3.273,0 -4.91,-1.81 -4.91,-5.431 V 15.313 h -3.124 v -3.164 h 3.122 V 7.526 h 4.261 z m 11.137,23.643 h -4.262 v -27 h 4.262 z m 9.172,0 h -4.262 V 12.15 h 4.262 z M 109.66,7.21 c 0,-0.655 0.207,-1.2 0.622,-1.634 0.416,-0.433 1.009,-0.65 1.78,-0.65 0.772,0 1.368,0.217 1.79,0.65 0.42,0.434 0.63,0.979 0.63,1.635 0,0.644 -0.21,1.18 -0.63,1.608 -0.422,0.428 -1.018,0.642 -1.79,0.642 -0.771,0 -1.364,-0.214 -1.78,-0.642 -0.415,-0.427 -0.622,-0.964 -0.622,-1.608 z m 10.663,23.96 V 15.313 h -2.894 v -3.164 h 2.894 v -1.74 c 0,-2.11 0.584,-3.738 1.753,-4.887 1.17,-1.148 2.806,-1.722 4.91,-1.722 0.749,0 1.544,0.105 2.386,0.316 l -0.105,3.34 a 8.375,8.375 0 0 0 -1.631,-0.14 c -2.035,0 -3.052,1.048 -3.052,3.146 v 1.687 h 3.858 v 3.164 h -3.858 v 15.856 h -4.261 z m 17.87,-6.117 3.858,-12.903 h 4.542 l -7.54,21.903 c -1.158,3.199 -3.122,4.799 -5.893,4.799 -0.62,0 -1.304,-0.106 -2.052,-0.317 V 35.23 l 0.807,0.053 c 1.075,0 1.885,-0.196 2.429,-0.589 0.543,-0.392 0.973,-1.051 1.289,-1.977 l 0.613,-1.635 -6.664,-18.932 h 4.595 z"
         transform="translate(-21.98895,-20.22803)" />
      <path
         inkscape:connector-curvature="0"
         style="fill:#c9fa4b;fill-opacity:1;fill-rule:nonzero"
         id="path9"
         d="m 28.589,14.135 -0.014,-0.006 c -0.008,-0.003 -0.016,-0.006 -0.023,-0.013 a 0.11,0.11 0 0 1 -0.028,-0.093 l 0.773,-4.726 3.625,3.626 -3.77,1.604 a 0.083,0.083 0 0 1 -0.033,0.006 h -0.015 a 0.1038,0.1038 0 0 1 -0.02,-0.017 1.716,1.716 0 0 0 -0.495,-0.381 z m 5.258,-0.288 3.876,3.876 c 0.805,0.806 1.208,1.208 1.355,1.674 0.022,0.069 0.04,0.138 0.054,0.209 l -9.263,-3.923 a 0.728,0.728 0 0 0 -0.015,-0.006 c -0.037,-0.015 -0.08,-0.032 -0.08,-0.07 0,-0.038 0.044,-0.056 0.081,-0.071 l 0.012,-0.005 z m 5.127,7.003 c -0.2,0.376 -0.59,0.766 -1.25,1.427 l -4.37,4.369 -5.652,-1.177 -0.03,-0.006 c -0.05,-0.008 -0.103,-0.017 -0.103,-0.062 a 1.706,1.706 0 0 0 -0.655,-1.193 c -0.023,-0.023 -0.017,-0.059 -0.01,-0.092 0,-0.005 0,-0.01 0.002,-0.014 l 1.063,-6.526 0.004,-0.022 c 0.006,-0.05 0.015,-0.108 0.06,-0.108 a 1.73,1.73 0 0 0 1.16,-0.665 c 0.009,-0.01 0.015,-0.021 0.027,-0.027 0.032,-0.015 0.07,0 0.103,0.014 l 9.65,4.082 z m -6.625,6.801 -7.186,7.186 1.23,-7.56 0.002,-0.01 c 0.001,-0.01 0.003,-0.02 0.006,-0.029 0.01,-0.024 0.036,-0.034 0.061,-0.044 l 0.012,-0.005 a 1.85,1.85 0 0 0 0.695,-0.517 c 0.024,-0.028 0.053,-0.055 0.09,-0.06 a 0.09,0.09 0 0 1 0.029,0 l 5.06,1.04 z m -8.707,8.707 -0.81,0.81 -8.955,-12.942 a 0.424,0.424 0 0 0 -0.01,-0.014 c -0.014,-0.019 -0.029,-0.038 -0.026,-0.06 0,-0.016 0.011,-0.03 0.022,-0.042 l 0.01,-0.013 c 0.027,-0.04 0.05,-0.08 0.075,-0.123 l 0.02,-0.035 0.003,-0.003 c 0.014,-0.024 0.027,-0.047 0.051,-0.06 0.021,-0.01 0.05,-0.006 0.073,-0.001 l 9.921,2.046 a 0.164,0.164 0 0 1 0.076,0.033 c 0.013,0.013 0.016,0.027 0.019,0.043 a 1.757,1.757 0 0 0 1.028,1.175 c 0.028,0.014 0.016,0.045 0.003,0.078 a 0.238,0.238 0 0 0 -0.015,0.045 c -0.125,0.76 -1.197,7.298 -1.485,9.063 z m -1.692,1.691 c -0.597,0.591 -0.949,0.904 -1.347,1.03 a 2,2 0 0 1 -1.206,0 c -0.466,-0.148 -0.869,-0.55 -1.674,-1.356 L 8.73,28.73 11.079,25.087 c 0.011,-0.018 0.022,-0.034 0.04,-0.047 0.025,-0.018 0.061,-0.01 0.091,0 a 2.434,2.434 0 0 0 1.638,-0.083 c 0.027,-0.01 0.054,-0.017 0.075,0.002 a 0.19,0.19 0 0 1 0.028,0.032 L 21.95,38.05 Z M 7.863,27.863 5.8,25.8 9.874,24.062 a 0.084,0.084 0 0 1 0.033,-0.007 c 0.034,0 0.054,0.034 0.072,0.065 a 2.91,2.91 0 0 0 0.13,0.184 l 0.013,0.016 c 0.012,0.017 0.004,0.034 -0.008,0.05 l -2.25,3.493 z M 4.887,24.887 2.277,22.277 C 1.833,21.833 1.511,21.511 1.287,21.234 l 7.936,1.646 a 0.84,0.84 0 0 0 0.03,0.005 c 0.049,0.008 0.103,0.017 0.103,0.063 0,0.05 -0.059,0.073 -0.109,0.092 L 9.224,23.05 Z M 0.831,19.892 a 2,2 0 0 1 0.09,-0.495 c 0.148,-0.466 0.55,-0.868 1.356,-1.674 l 3.34,-3.34 a 2175.525,2175.525 0 0 0 4.626,6.687 c 0.027,0.036 0.057,0.076 0.026,0.106 -0.146,0.161 -0.292,0.337 -0.395,0.528 a 0.16,0.16 0 0 1 -0.05,0.062 C 9.811,21.774 9.797,21.771 9.782,21.768 H 9.78 L 0.831,19.891 Z M 6.511,13.489 11,8.998 c 0.423,0.185 1.96,0.834 3.333,1.414 1.04,0.44 1.988,0.84 2.286,0.97 0.03,0.012 0.057,0.024 0.07,0.054 0.008,0.018 0.004,0.041 0,0.06 a 2.003,2.003 0 0 0 0.523,1.828 c 0.03,0.03 0,0.073 -0.026,0.11 l -0.014,0.021 -4.56,7.063 c -0.012,0.02 -0.023,0.037 -0.043,0.05 -0.024,0.015 -0.058,0.008 -0.086,10e-4 A 2.274,2.274 0 0 0 11.94,20.495 c -0.164,0 -0.342,0.03 -0.522,0.063 h -10e-4 c -0.02,0.003 -0.038,0.007 -0.054,-0.005 A 0.21,0.21 0 0 1 11.318,20.502 L 6.51,13.489 Z m 5.398,-5.398 5.814,-5.814 c 0.805,-0.805 1.208,-1.208 1.674,-1.355 a 2,2 0 0 1 1.206,0 c 0.466,0.147 0.869,0.55 1.674,1.355 l 1.26,1.26 -4.135,6.404 a 0.155,0.155 0 0 1 -0.041,0.048 c -0.025,0.017 -0.06,0.01 -0.09,0 a 2.097,2.097 0 0 0 -1.92,0.37 c -0.027,0.028 -0.067,0.012 -0.101,-0.003 -0.54,-0.235 -4.74,-2.01 -5.341,-2.265 z m 12.506,-3.676 3.818,3.818 -0.92,5.698 v 0.015 a 0.135,0.135 0 0 1 -0.008,0.038 c -0.01,0.02 -0.03,0.024 -0.05,0.03 a 1.83,1.83 0 0 0 -0.548,0.273 0.154,0.154 0 0 0 -0.02,0.017 c -0.011,0.012 -0.022,0.023 -0.04,0.025 A 0.114,0.114 0 0 1 26.604,14.322 L 20.786,11.85 20.775,11.845 C 20.738,11.83 20.694,11.812 20.694,11.774 a 2.198,2.198 0 0 0 -0.31,-0.915 c -0.028,-0.046 -0.059,-0.094 -0.035,-0.141 z m -3.932,8.606 5.454,2.31 c 0.03,0.014 0.063,0.027 0.076,0.058 a 0.106,0.106 0 0 1 0,0.057 c -0.016,0.08 -0.03,0.171 -0.03,0.263 v 0.153 c 0,0.038 -0.039,0.054 -0.075,0.069 l -0.011,0.004 c -0.864,0.369 -12.13,5.173 -12.147,5.173 -0.017,0 -0.035,0 -0.052,-0.017 -0.03,-0.03 0,-0.072 0.027,-0.11 a 0.76,0.76 0 0 0 0.014,-0.02 l 4.482,-6.94 0.008,-0.012 c 0.026,-0.042 0.056,-0.089 0.104,-0.089 l 0.045,0.007 c 0.102,0.014 0.192,0.027 0.283,0.027 0.68,0 1.31,-0.331 1.69,-0.897 a 0.16,0.16 0 0 1 0.034,-0.04 c 0.027,-0.02 0.067,-0.01 0.098,0.004 z m -6.246,9.185 12.28,-5.237 c 0,0 0.018,0 0.035,0.017 0.067,0.067 0.124,0.112 0.179,0.154 l 0.027,0.017 c 0.025,0.014 0.05,0.03 0.052,0.056 0,0.01 0,0.016 -0.002,0.025 l -1.052,6.462 -0.004,0.026 c -0.007,0.05 -0.014,0.107 -0.061,0.107 a 1.729,1.729 0 0 0 -1.373,0.847 l -0.005,0.008 c -0.014,0.023 -0.027,0.045 -0.05,0.057 -0.021,0.01 -0.048,0.006 -0.07,10e-4 L 14.4,22.726 c -0.01,-0.002 -0.152,-0.519 -0.163,-0.52 z"
         transform="translate(-22.81995,-21.05703)" />
      <path
         inkscape:connector-curvature="0"
         style="fill:#c9fa4b;stroke-width:0.158809"
         d="m 139.75291,7.8804337 c 1.11085,0 2.03217,-0.309644 2.76397,-0.931585 0.73318,-0.621942 1.12329,-1.390069 1.1717,-2.304376 h 4.19298 a 6.5350152,6.2778917 0 0 1 -1.15372,3.315691 c -0.71935,1.025944 -1.69601,1.8379233 -2.92858,2.4359403 a 8.7290317,8.3855832 0 0 1 -3.9924,0.897036 c -2.77087,0 -4.96626,-0.861152 -6.59034,-2.5861093 -1.62406,-1.723633 -2.43472,-4.103753 -2.43472,-7.140368 v -0.439882 c 0,-2.897082 0.80512,-5.21474 2.41536,-6.956979 1.61161,-1.740908 3.8084,-2.61136 6.59172,-2.61136 2.35587,0 4.2746,0.659157 5.75895,1.978784 1.48296,1.318309 2.26041,3.051243 2.33373,5.196143 h -4.19159 c -0.0498,-1.089729 -0.43715,-1.986757 -1.16341,-2.689764 -0.72627,-0.704339 -1.65174,-1.05518 -2.77365,-1.05518 -1.44147,0 -2.55229,0.501009 -3.3339,1.50303 -0.78022,1.003343 -1.17586,2.52497502 -1.18969,4.564892 v 0.685736 c 0,2.063834 0.38735,3.602735 1.16202,4.618046 0.77607,1.013976 1.89521,1.520305 3.36157,1.520305 z m 15.36225,-15.969818 0.12866,1.986757 c 1.39028,-1.558841 3.29518,-2.338931 5.7133,-2.338931 2.64775,0 4.45996,0.972781 5.43662,2.919677 1.44008,-1.946896 3.46671,-2.919677 6.0785,-2.919677 2.18571,0 3.81116,0.580745 4.87912,1.740905 1.06935,1.161494 1.61439,2.873163 1.63929,5.136342 V 10.94097 h -4.44891 V -1.4407263 c 0,-1.209324 -0.27528,-2.093072 -0.82448,-2.656541 -0.54919,-0.563467 -1.45806,-0.843875 -2.728,-0.843875 -1.01262,0 -1.83986,0.260478 -2.48036,0.782743 -0.64188,0.520947 -1.09009,1.204023 -1.34601,2.049224 l 0.018,13.0501453 h -4.4489 V -1.5815883 c -0.0609,-2.240589 -1.25194,-3.359554 -3.57046,-3.359554 -1.78178,0 -3.04617,0.697693 -3.79042,2.093079 V 10.94097 h -4.44889 V -8.0893843 h 4.19158 z m 39.23774,13.860794 c 0,-0.762805 -0.32647,-1.343551 -0.97942,-1.742231 -0.65295,-0.398681 -1.73612,-0.750848 -3.24952,-1.055179 -1.5134,-0.305652 -2.77641,-0.691048 -3.79042,-1.161486 -2.22167,-1.031254 -3.33252,-2.52630798 -3.33252,-4.485157 0,-1.641238 0.71935,-3.014025 2.16081,-4.115718 1.44009,-1.103014 3.27166,-1.653197 5.49196,-1.653197 2.36969,0 4.2829,0.562142 5.74097,1.687754 1.45946,1.125608 2.18848,2.586107 2.18848,4.380167 h -4.4489 c 0,-0.82128 -0.31819,-1.504354 -0.95314,-2.049217 -0.63497,-0.544864 -1.47605,-0.817292 -2.52605,-0.817292 -0.97663,0 -1.77345,0.216614 -2.38904,0.651178 -0.61698,0.43323 -0.92548,1.013975 -0.92548,1.740905 0,0.656493 0.28775,1.166807 0.86046,1.529605 0.57408,0.36412302 1.73336,0.73091702 3.47915,1.09902502 1.74581,0.36944398 3.11535,0.81065498 4.10998,1.31963498 0.99602,0.510316 1.73335,1.122952 2.21615,1.837922 0.48141,0.714963 0.72352,1.582758 0.72352,2.604713 0,1.710336 -0.73873,3.096417 -2.21618,4.1595663 -1.47743,1.060492 -3.41136,1.590737 -5.8046,1.590737 -1.62268,0 -3.06968,-0.281732 -4.33822,-0.843875 -1.26993,-0.563469 -2.25902,-1.336914 -2.96592,-2.3216523 -0.70829,-0.986067 -1.06243,-2.046557 -1.06243,-3.184126 h 4.32025 c 0.0622,1.008655 0.45789,1.784762 1.18969,2.330951 0.73318,0.544864 1.70431,0.817293 2.91198,0.817293 1.17171,0 2.06259,-0.212631 2.67403,-0.641873 0.60869,-0.427919 0.91441,-0.9874 0.91441,-1.679774 z"
         id="path6-3" />
    </g>
  </g>
</svg>
