<?xml version="1.0" encoding="UTF-8" standalone="no"?>
<svg
   xmlns:dc="http://purl.org/dc/elements/1.1/"
   xmlns:cc="http://creativecommons.org/ns#"
   xmlns:rdf="http://www.w3.org/1999/02/22-rdf-syntax-ns#"
   xmlns:svg="http://www.w3.org/2000/svg"
   xmlns="http://www.w3.org/2000/svg"
   xmlns:sodipodi="http://sodipodi.sourceforge.net/DTD/sodipodi-0.dtd"
   xmlns:inkscape="http://www.inkscape.org/namespaces/inkscape"
   fill="none"
   viewBox="0 0 101 26.311989"
   version="1.1"
   id="svg12"
   sodipodi:docname="StrapiJS.svg"
   width="101"
   height="26.311989"
   inkscape:version="1.0.1 (1.0.1+r74)">
  <metadata
     id="metadata16">
    <rdf:RDF>
      <cc:Work
         rdf:about="">
        <dc:format>image/svg+xml</dc:format>
        <dc:type
           rdf:resource="http://purl.org/dc/dcmitype/StillImage" />
      </cc:Work>
    </rdf:RDF>
  </metadata>
  <sodipodi:namedview
     pagecolor="#ffffff"
     bordercolor="#666666"
     borderopacity="1"
     objecttolerance="10"
     gridtolerance="10"
     guidetolerance="10"
     inkscape:pageopacity="0"
     inkscape:pageshadow="2"
     inkscape:window-width="1280"
     inkscape:window-height="771"
     id="namedview14"
     showgrid="false"
     inkscape:zoom="7.0532416"
     inkscape:cx="62.905147"
     inkscape:cy="18.309453"
     inkscape:window-x="0"
     inkscape:window-y="0"
     inkscape:window-maximized="1"
     inkscape:current-layer="svg12" />
  <defs
     id="defs2" />
  <g
     id="g28"
     transform="matrix(0.84798761,0,0,0.84798761,-0.33451918,0.42418113)">
    <g
       id="g21">
      <path
         fill="#8e75ff"
         fill-rule="evenodd"
         d="M 25.979,4.727 H 8.751 v 8.638 h 8.477 c 0.302,0 0.547,0.245 0.547,0.547 v 8.36 h 8.751 V 5.275 A 0.547,0.547 0 0 0 25.979,4.727 Z"
         clip-rule="evenodd"
         id="path4" />
      <path
         fill="#8e75ff"
         fill-rule="evenodd"
         d="m 8.75,4.727 v 8.638 H 0.668 A 0.274,0.274 0 0 1 0.476,12.896 Z m 9.491,25.723 a 0.274,0.274 0 0 1 -0.466,-0.195 v -7.983 h 8.751 l -8.285,8.177 z"
         clip-rule="evenodd"
         opacity="0.405"
         id="path6" />
      <path
         fill="#8e75ff"
         d="m 8.75,13.365 h 8.752 c 0.15,0 0.273,0.122 0.273,0.273 v 8.634 H 9.298 A 0.547,0.547 0 0 1 8.751,21.725 v -8.36 z"
         opacity="0.405"
         id="path8" />
    </g>
    <path
       fill="#fff"
       fill-rule="evenodd"
       d="m 114.771,4.182 c 0.489,0.484 1.066,0.725 1.732,0.725 0.687,0 1.275,-0.241 1.764,-0.725 C 118.756,3.698 119,3.128 119,2.469 119,1.811 118.756,1.235 118.267,0.741 A 2.393,2.393 0 0 0 116.503,0 c -0.666,0 -1.243,0.247 -1.732,0.74 -0.489,0.495 -0.733,1.07 -0.733,1.73 0,0.658 0.244,1.228 0.733,1.712 z m -53.06,6.312 c 0,0.05 -0.042,0.092 -0.093,0.092 h -3.435 v 6.42 c 0,0.535 0.136,0.926 0.406,1.173 0.27,0.247 0.666,0.385 1.186,0.416 0.476,0.029 1.056,0.027 1.741,-0.005 l 0.097,-0.005 a 0.092,0.092 0 0 1 0.097,0.092 v 3.431 A 0.092,0.092 0 0 1 61.628,22.2 l -0.063,0.007 c -2.69,0.283 -4.593,0.02 -5.707,-0.788 -1.134,-0.823 -1.7,-2.294 -1.7,-4.413 v -6.42 H 51.534 A 0.092,0.092 0 0 1 51.442,10.494 V 6.851 c 0,-0.05 0.041,-0.092 0.092,-0.092 h 2.623 V 4.212 c 0,-0.074 0.044,-0.14 0.111,-0.17 l 3.786,-1.647 a 0.092,0.092 0 0 1 0.13,0.084 v 4.28 h 3.434 c 0.05,0 0.092,0.041 0.092,0.092 v 3.643 z m 7.3,-1.08 c 0.374,-0.988 0.993,-1.729 1.856,-2.223 a 5.65,5.65 0 0 1 2.794,-0.74 c 0.051,0 0.093,0.041 0.093,0.093 v 4.185 a 0.15,0.15 0 0 1 -0.165,0.149 c -1.161,-0.104 -2.204,0.149 -3.128,0.758 -0.967,0.637 -1.45,1.697 -1.45,3.179 v 7.284 a 0.092,0.092 0 0 1 -0.093,0.092 H 65.076 A 0.092,0.092 0 0 1 64.984,22.099 V 6.85 c 0,-0.05 0.041,-0.092 0.092,-0.092 h 3.842 c 0.05,0 0.092,0.041 0.092,0.092 V 9.412 Z M 88.047,6.759 a 0.092,0.092 0 0 0 -0.093,0.092 v 1.73 C 86.748,7.078 85.052,6.327 82.867,6.327 c -2.08,0 -3.865,0.787 -5.352,2.361 -1.488,1.574 -2.232,3.503 -2.232,5.787 0,2.284 0.744,4.213 2.232,5.787 1.487,1.574 3.272,2.361 5.352,2.361 2.185,0 3.88,-0.751 5.087,-2.253 v 1.729 c 0,0.05 0.042,0.092 0.093,0.092 h 3.841 c 0.051,0 0.093,-0.041 0.093,-0.092 V 6.85 A 0.092,0.092 0 0 0 91.888,6.758 h -3.841 z m -7.52,10.864 c 0.811,0.803 1.84,1.204 3.09,1.204 1.248,0 2.283,-0.407 3.105,-1.22 0.822,-0.812 1.232,-1.856 1.232,-3.132 0,-1.276 -0.41,-2.32 -1.232,-3.133 -0.822,-0.812 -1.857,-1.219 -3.106,-1.219 -1.248,0 -2.278,0.407 -3.09,1.22 -0.81,0.812 -1.217,1.856 -1.217,3.132 0,1.276 0.406,2.325 1.218,3.148 z m 29.35,-8.935 c -1.488,-1.574 -3.283,-2.361 -5.384,-2.361 -2.185,0 -3.87,0.751 -5.056,2.253 V 6.851 A 0.092,0.092 0 0 0 99.345,6.759 h -3.842 a 0.092,0.092 0 0 0 -0.092,0.092 v 21.42 c 0,0.051 0.041,0.093 0.092,0.093 h 3.842 c 0.05,0 0.092,-0.042 0.092,-0.093 V 20.37 c 1.186,1.502 2.871,2.253 5.056,2.253 2.101,0 3.896,-0.787 5.384,-2.361 1.487,-1.574 2.231,-3.503 2.231,-5.787 0,-2.284 -0.744,-4.213 -2.231,-5.787 z m -9.223,8.935 c 0.812,0.803 1.841,1.204 3.09,1.204 1.248,0 2.283,-0.407 3.105,-1.22 0.822,-0.812 1.233,-1.856 1.233,-3.132 0,-1.276 -0.411,-2.32 -1.233,-3.133 -0.822,-0.812 -1.857,-1.219 -3.105,-1.219 -1.249,0 -2.278,0.407 -3.09,1.22 -0.811,0.812 -1.217,1.856 -1.217,3.132 0,1.276 0.406,2.325 1.217,3.148 z m 13.944,4.568 a 0.092,0.092 0 0 1 -0.092,-0.092 V 6.85 c 0,-0.05 0.041,-0.092 0.092,-0.092 h 3.842 c 0.051,0 0.092,0.041 0.092,0.092 V 22.1 a 0.092,0.092 0 0 1 -0.092,0.092 h -3.842 z M 42.813,12.145 c -0.552,-0.257 -0.827,-0.592 -0.827,-1.003 0,-0.391 0.171,-0.7 0.515,-0.926 0.343,-0.226 0.775,-0.34 1.295,-0.34 0.997,0 1.75,0.385 2.26,1.154 a 0.133,0.133 0 0 0 0.163,0.05 l 3.398,-1.487 a 0.092,0.092 0 0 0 0.042,-0.13 8.523,8.523 0 0 0 -0.12,-0.194 C 48.958,8.364 48.205,7.689 47.26,7.176 46.22,6.61 45.065,6.327 43.796,6.327 c -1.686,0 -3.095,0.437 -4.23,1.312 -1.133,0.874 -1.7,2.073 -1.7,3.595 0,1.009 0.276,1.847 0.827,2.516 a 4.867,4.867 0 0 0 2.013,1.466 c 0.79,0.308 1.581,0.566 2.372,0.771 0.79,0.206 1.462,0.438 2.013,0.695 0.551,0.257 0.827,0.591 0.827,1.003 0,0.885 -0.718,1.327 -2.153,1.327 -1.367,0 -2.314,-0.5 -2.841,-1.498 a 0.185,0.185 0 0 0 -0.238,-0.087 l -3.388,1.485 a 0.092,0.092 0 0 0 -0.046,0.124 l 0.038,0.077 c 1.184,2.34 3.342,3.51 6.475,3.51 1.789,0 3.282,-0.427 4.478,-1.28 1.197,-0.855 1.795,-2.074 1.795,-3.658 0,-1.05 -0.276,-1.924 -0.827,-2.624 a 4.6,4.6 0 0 0 -2.013,-1.496 20.991,20.991 0 0 0 -2.372,-0.741 c -0.791,-0.196 -1.462,-0.422 -2.013,-0.68 z"
       clip-rule="evenodd"
       id="path10"
       style="fill:#000000;fill-opacity:0;stroke:#8e75ff;stroke-opacity:1" />
  </g>
</svg>
