<?xml version="1.0" encoding="UTF-8" standalone="no"?>
<svg
   xmlns:dc="http://purl.org/dc/elements/1.1/"
   xmlns:cc="http://creativecommons.org/ns#"
   xmlns:rdf="http://www.w3.org/1999/02/22-rdf-syntax-ns#"
   xmlns:svg="http://www.w3.org/2000/svg"
   xmlns="http://www.w3.org/2000/svg"
   xmlns:sodipodi="http://sodipodi.sourceforge.net/DTD/sodipodi-0.dtd"
   xmlns:inkscape="http://www.inkscape.org/namespaces/inkscape"
   version="1.1"
   id="svg60"
   width="23"
   height="23.000002"
   viewBox="0 0 23 23.000002"
   sodipodi:docname="sun.svg"
   inkscape:version="1.0.1 (1.0.1+r74)">
  <metadata
     id="metadata66">
    <rdf:RDF>
      <cc:Work
         rdf:about="">
        <dc:format>image/svg+xml</dc:format>
        <dc:type
           rdf:resource="http://purl.org/dc/dcmitype/StillImage" />
        <dc:title></dc:title>
      </cc:Work>
    </rdf:RDF>
  </metadata>
  <defs
     id="defs64" />
  <sodipodi:namedview
     pagecolor="#ffffff"
     bordercolor="#666666"
     borderopacity="1"
     objecttolerance="10"
     gridtolerance="10"
     guidetolerance="10"
     inkscape:pageopacity="0"
     inkscape:pageshadow="2"
     inkscape:window-width="1280"
     inkscape:window-height="771"
     id="namedview62"
     showgrid="true"
     inkscape:zoom="4"
     inkscape:cx="6.3345396"
     inkscape:cy="5.3639562"
     inkscape:window-x="0"
     inkscape:window-y="0"
     inkscape:window-maximized="1"
     inkscape:current-layer="layer1">
    <inkscape:grid
       type="xygrid"
       id="grid72"
       originx="-25"
       originy="-25" />
  </sodipodi:namedview>
  <g
     inkscape:groupmode="layer"
     id="layer1"
     inkscape:label="sun"
     style="opacity:1"
     transform="translate(-25,-25)">
    <path
       id="rect74"
       style="opacity:0.999937;fill:#d6f756;stroke-width:0.0249992;stroke-linecap:round"
       d="M 11.027344 0 L 11.027344 0.95898438 L 10.082031 0.95898438 L 10.082031 1.9160156 L 9.1367188 1.9160156 L 9.1367188 2.875 L 9.1367188 3.8339844 L 10.082031 3.8339844 L 10.082031 4.7910156 L 10.082031 5.75 L 11.027344 5.75 L 11.972656 5.75 L 12.917969 5.75 L 12.917969 4.7910156 L 13.863281 4.7910156 L 13.863281 3.8339844 L 12.917969 3.8339844 L 12.917969 2.875 L 11.972656 2.875 L 11.972656 1.9160156 L 11.972656 0.95898438 L 12.917969 0.95898438 L 12.917969 0 L 11.972656 0 L 11.027344 0 z M 4.0957031 2.875 L 4.0957031 3.8339844 L 4.0957031 4.7910156 L 4.0957031 5.75 L 4.0957031 6.7089844 L 5.0410156 6.7089844 L 5.0410156 7.6660156 L 5.9863281 7.6660156 L 5.9863281 8.625 L 6.9316406 8.625 L 6.9316406 7.6660156 L 7.8769531 7.6660156 L 7.8769531 6.7089844 L 8.8222656 6.7089844 L 8.8222656 5.75 L 8.8222656 4.7910156 L 7.8769531 4.7910156 L 6.9316406 4.7910156 L 5.9863281 4.7910156 L 5.9863281 3.8339844 L 5.0410156 3.8339844 L 5.0410156 2.875 L 4.0957031 2.875 z M 16.068359 3.8339844 L 16.068359 4.7910156 L 15.123047 4.7910156 L 15.123047 5.75 L 14.177734 5.75 L 14.177734 6.7089844 L 15.123047 6.7089844 L 15.123047 7.6660156 L 16.068359 7.6660156 L 16.068359 8.625 L 17.013672 8.625 L 17.958984 8.625 L 17.958984 7.6660156 L 17.958984 6.7089844 L 17.958984 5.75 L 18.904297 5.75 L 18.904297 4.7910156 L 19.849609 4.7910156 L 19.849609 3.8339844 L 18.904297 3.8339844 L 17.958984 3.8339844 L 17.013672 3.8339844 L 16.068359 3.8339844 z M 9.1367188 7.0273438 L 9.1367188 7.9863281 L 8.1914062 7.9863281 L 8.1914062 8.9453125 L 7.2460938 8.9453125 L 7.2460938 9.9023438 L 7.2460938 10.861328 L 7.2460938 11.820312 L 7.2460938 12.777344 L 7.2460938 13.736328 L 8.1914062 13.736328 L 8.1914062 14.695312 L 9.1367188 14.695312 L 9.1367188 15.652344 L 10.082031 15.652344 L 11.027344 15.652344 L 11.972656 15.652344 L 12.917969 15.652344 L 13.863281 15.652344 L 13.863281 14.695312 L 14.808594 14.695312 L 14.808594 13.736328 L 15.753906 13.736328 L 15.753906 12.777344 L 15.753906 11.820312 L 15.753906 10.861328 L 15.753906 9.9023438 L 15.753906 8.9453125 L 14.808594 8.9453125 L 14.808594 7.9863281 L 13.863281 7.9863281 L 13.863281 7.0273438 L 12.917969 7.0273438 L 11.972656 7.0273438 L 11.027344 7.0273438 L 10.082031 7.0273438 L 9.1367188 7.0273438 z M 3.78125 8.9453125 L 3.78125 9.9023438 L 2.8359375 9.9023438 L 2.8359375 10.861328 L 1.890625 10.861328 L 0.9453125 10.861328 L 0.9453125 9.9023438 L 0 9.9023438 L 0 10.861328 L 0 11.820312 L 0.9453125 11.820312 L 0.9453125 12.777344 L 1.890625 12.777344 L 1.890625 13.736328 L 2.8359375 13.736328 L 3.78125 13.736328 L 3.78125 12.777344 L 4.7265625 12.777344 L 5.671875 12.777344 L 5.671875 11.820312 L 5.671875 10.861328 L 5.671875 9.9023438 L 4.7265625 9.9023438 L 4.7265625 8.9453125 L 3.78125 8.9453125 z M 19.21875 8.9453125 L 19.21875 9.9023438 L 18.273438 9.9023438 L 17.328125 9.9023438 L 17.328125 10.861328 L 17.328125 11.820312 L 17.328125 12.777344 L 18.273438 12.777344 L 18.273438 13.736328 L 19.21875 13.736328 L 19.21875 12.777344 L 20.164062 12.777344 L 20.164062 11.820312 L 21.109375 11.820312 L 22.054688 11.820312 L 22.054688 12.777344 L 23 12.777344 L 23 11.820312 L 23 10.861328 L 22.054688 10.861328 L 22.054688 9.9023438 L 21.109375 9.9023438 L 21.109375 8.9453125 L 20.164062 8.9453125 L 19.21875 8.9453125 z M 5.0410156 14.054688 L 5.0410156 15.013672 L 5.0410156 15.972656 L 5.0410156 16.929688 L 4.0957031 16.929688 L 4.0957031 17.888672 L 3.1503906 17.888672 L 3.1503906 18.847656 L 4.0957031 18.847656 L 5.0410156 18.847656 L 5.9863281 18.847656 L 6.9316406 18.847656 L 6.9316406 17.888672 L 7.8769531 17.888672 L 7.8769531 16.929688 L 8.8222656 16.929688 L 8.8222656 15.972656 L 7.8769531 15.972656 L 7.8769531 15.013672 L 6.9316406 15.013672 L 6.9316406 14.054688 L 5.9863281 14.054688 L 5.0410156 14.054688 z M 16.068359 14.054688 L 16.068359 15.013672 L 15.123047 15.013672 L 15.123047 15.972656 L 14.177734 15.972656 L 14.177734 16.929688 L 14.177734 17.888672 L 15.123047 17.888672 L 16.068359 17.888672 L 17.013672 17.888672 L 17.013672 18.847656 L 17.958984 18.847656 L 17.958984 19.804688 L 18.904297 19.804688 L 18.904297 18.847656 L 18.904297 17.888672 L 18.904297 16.929688 L 18.904297 15.972656 L 17.958984 15.972656 L 17.958984 15.013672 L 17.013672 15.013672 L 17.013672 14.054688 L 16.068359 14.054688 z M 10.082031 17.25 L 10.082031 18.208984 L 9.1367188 18.208984 L 9.1367188 19.166016 L 10.082031 19.166016 L 10.082031 20.125 L 11.027344 20.125 L 11.027344 21.083984 L 11.027344 22.041016 L 10.082031 22.041016 L 10.082031 23 L 11.027344 23 L 11.972656 23 L 11.972656 22.041016 L 12.917969 22.041016 L 12.917969 21.083984 L 13.863281 21.083984 L 13.863281 20.125 L 13.863281 19.166016 L 12.917969 19.166016 L 12.917969 18.208984 L 12.917969 17.25 L 11.972656 17.25 L 11.027344 17.25 L 10.082031 17.25 z "
       transform="translate(25,25)" />
  </g>
</svg>
