<?xml version="1.0" encoding="UTF-8" standalone="no"?>
<!-- Created with Inkscape (http://www.inkscape.org/) -->

<svg
   xmlns:dc="http://purl.org/dc/elements/1.1/"
   xmlns:cc="http://creativecommons.org/ns#"
   xmlns:rdf="http://www.w3.org/1999/02/22-rdf-syntax-ns#"
   xmlns:svg="http://www.w3.org/2000/svg"
   xmlns="http://www.w3.org/2000/svg"
   xmlns:sodipodi="http://sodipodi.sourceforge.net/DTD/sodipodi-0.dtd"
   xmlns:inkscape="http://www.inkscape.org/namespaces/inkscape"
   width="160px"
   height="160px"
   viewBox="0 0 160 160"
   version="1.1"
   id="SVGRoot"
   inkscape:version="0.92.5 (2060ec1f9f, 2020-04-08)"
   sodipodi:docname="sunIcon.svg">
  <defs
     id="defs8281" />
  <sodipodi:namedview
     id="base"
     pagecolor="#ffffff"
     bordercolor="#666666"
     borderopacity="1.0"
     inkscape:pageopacity="0.0"
     inkscape:pageshadow="2"
     inkscape:zoom="1"
     inkscape:cx="53.509683"
     inkscape:cy="11.196294"
     inkscape:document-units="px"
     inkscape:current-layer="layer1"
     showgrid="false"
     inkscape:window-width="1280"
     inkscape:window-height="776"
     inkscape:window-x="0"
     inkscape:window-y="0"
     inkscape:window-maximized="1"
     inkscape:grid-bbox="true" />
  <metadata
     id="metadata8284">
    <rdf:RDF>
      <cc:Work
         rdf:about="">
        <dc:format>image/svg+xml</dc:format>
        <dc:type
           rdf:resource="http://purl.org/dc/dcmitype/StillImage" />
        <dc:title />
      </cc:Work>
    </rdf:RDF>
  </metadata>
  <g
     inkscape:label="Layer 1"
     inkscape:groupmode="layer"
     id="layer1">
    <path
       style="opacity:0.98999999;fill:#fff10e;fill-opacity:0.99607843;stroke:none;stroke-width:3.39999962;stroke-linecap:butt;stroke-linejoin:bevel;stroke-miterlimit:10;stroke-dasharray:none;stroke-opacity:1;paint-order:stroke fill markers"
       d="M 75.800781 1 L 75.800781 9.3144531 L 75.800781 17.630859 L 75.800781 25.947266 L 75.800781 34.261719 L 84.117188 34.261719 L 84.117188 25.947266 L 84.117188 17.630859 L 84.117188 9.3144531 L 84.117188 1 L 75.800781 1 z M 9.2734375 9.3144531 L 9.2734375 17.630859 L 17.589844 17.630859 L 17.589844 9.3144531 L 9.2734375 9.3144531 z M 17.589844 17.630859 L 17.589844 25.947266 L 25.90625 25.947266 L 25.90625 17.630859 L 17.589844 17.630859 z M 25.90625 25.947266 L 25.90625 34.261719 L 34.220703 34.261719 L 34.220703 25.947266 L 25.90625 25.947266 z M 34.220703 34.261719 L 34.220703 42.578125 L 42.537109 42.578125 L 42.537109 34.261719 L 34.220703 34.261719 z M 142.32617 9.3144531 L 142.32617 17.630859 L 150.64258 17.630859 L 150.64258 9.3144531 L 142.32617 9.3144531 z M 142.32617 17.630859 L 134.01172 17.630859 L 134.01172 25.947266 L 142.32617 25.947266 L 142.32617 17.630859 z M 134.01172 25.947266 L 125.69531 25.947266 L 125.69531 34.261719 L 134.01172 34.261719 L 134.01172 25.947266 z M 125.69531 34.261719 L 117.37891 34.261719 L 117.37891 42.578125 L 125.69531 42.578125 L 125.69531 34.261719 z M 50.853516 42.578125 L 50.853516 50.894531 L 59.167969 50.894531 L 59.167969 59.210938 L 59.167969 67.525391 L 59.167969 75.841797 L 59.167969 84.158203 L 59.167969 92.472656 L 59.167969 100.78906 L 67.484375 100.78906 L 75.800781 100.78906 L 84.117188 100.78906 L 92.431641 100.78906 L 100.74805 100.78906 L 100.74805 92.472656 L 100.74805 84.158203 L 100.74805 75.841797 L 100.74805 67.525391 L 100.74805 59.210938 L 92.431641 59.210938 L 84.117188 59.210938 L 75.800781 59.210938 L 75.800781 67.525391 L 75.800781 75.841797 L 75.800781 84.158203 L 84.117188 84.158203 L 84.117188 75.841797 L 84.117188 67.525391 L 92.431641 67.525391 L 92.431641 75.841797 L 92.431641 84.158203 L 92.431641 92.472656 L 84.117188 92.472656 L 75.800781 92.472656 L 67.484375 92.472656 L 67.484375 84.158203 L 67.484375 75.841797 L 67.484375 67.525391 L 67.484375 59.210938 L 67.484375 50.894531 L 75.800781 50.894531 L 84.117188 50.894531 L 92.431641 50.894531 L 100.74805 50.894531 L 109.06445 50.894531 L 109.06445 42.578125 L 100.74805 42.578125 L 92.431641 42.578125 L 84.117188 42.578125 L 75.800781 42.578125 L 67.484375 42.578125 L 59.167969 42.578125 L 50.853516 42.578125 z M 109.06445 50.894531 L 109.06445 59.210938 L 109.06445 67.525391 L 109.06445 75.841797 L 109.06445 84.158203 L 109.06445 92.472656 L 109.06445 100.78906 L 109.06445 109.10547 L 117.37891 109.10547 L 117.37891 100.78906 L 117.37891 92.472656 L 117.37891 84.158203 L 117.37891 75.841797 L 117.37891 67.525391 L 117.37891 59.210938 L 117.37891 50.894531 L 109.06445 50.894531 z M 109.06445 109.10547 L 100.74805 109.10547 L 92.431641 109.10547 L 84.117188 109.10547 L 75.800781 109.10547 L 67.484375 109.10547 L 59.167969 109.10547 L 50.853516 109.10547 L 50.853516 117.41992 L 59.167969 117.41992 L 67.484375 117.41992 L 75.800781 117.41992 L 84.117188 117.41992 L 92.431641 117.41992 L 100.74805 117.41992 L 109.06445 117.41992 L 109.06445 109.10547 z M 50.853516 109.10547 L 50.853516 100.78906 L 50.853516 92.472656 L 50.853516 84.158203 L 50.853516 75.841797 L 50.853516 67.525391 L 50.853516 59.210938 L 50.853516 50.894531 L 42.537109 50.894531 L 42.537109 59.210938 L 42.537109 67.525391 L 42.537109 75.841797 L 42.537109 84.158203 L 42.537109 92.472656 L 42.537109 100.78906 L 42.537109 109.10547 L 50.853516 109.10547 z M 0.95898438 75.841797 L 0.95898438 84.158203 L 9.2734375 84.158203 L 17.589844 84.158203 L 25.90625 84.158203 L 34.220703 84.158203 L 34.220703 75.841797 L 25.90625 75.841797 L 17.589844 75.841797 L 9.2734375 75.841797 L 0.95898438 75.841797 z M 125.69531 75.841797 L 125.69531 84.158203 L 134.01172 84.158203 L 142.32617 84.158203 L 150.64258 84.158203 L 158.95898 84.158203 L 158.95898 75.841797 L 150.64258 75.841797 L 142.32617 75.841797 L 134.01172 75.841797 L 125.69531 75.841797 z M 34.220703 117.41992 L 34.220703 125.73633 L 42.537109 125.73633 L 42.537109 117.41992 L 34.220703 117.41992 z M 34.220703 125.73633 L 25.90625 125.73633 L 25.90625 134.05273 L 34.220703 134.05273 L 34.220703 125.73633 z M 25.90625 134.05273 L 17.589844 134.05273 L 17.589844 142.36719 L 25.90625 142.36719 L 25.90625 134.05273 z M 17.589844 142.36719 L 9.2734375 142.36719 L 9.2734375 150.68359 L 17.589844 150.68359 L 17.589844 142.36719 z M 117.37891 117.41992 L 117.37891 125.73633 L 125.69531 125.73633 L 125.69531 117.41992 L 117.37891 117.41992 z M 125.69531 125.73633 L 125.69531 134.05273 L 134.01172 134.05273 L 134.01172 125.73633 L 125.69531 125.73633 z M 134.01172 134.05273 L 134.01172 142.36719 L 142.32617 142.36719 L 142.32617 134.05273 L 134.01172 134.05273 z M 142.32617 142.36719 L 142.32617 150.68359 L 150.64258 150.68359 L 150.64258 142.36719 L 142.32617 142.36719 z M 75.800781 125.73633 L 75.800781 134.05273 L 75.800781 142.36719 L 75.800781 150.68359 L 75.800781 159 L 84.117188 159 L 84.117188 150.68359 L 84.117188 142.36719 L 84.117188 134.05273 L 84.117188 125.73633 L 75.800781 125.73633 z "
       id="rect5727" />
    <path
       style="opacity:0.98999999;fill:#ffa21f;fill-opacity:0.99607843;stroke:none;stroke-width:3.39999962;stroke-linecap:butt;stroke-linejoin:bevel;stroke-miterlimit:10;stroke-dasharray:none;stroke-opacity:1;paint-order:stroke fill markers"
       d="M 50.853516 50.894531 L 50.853516 59.210938 L 50.853516 67.525391 L 50.853516 75.841797 L 50.853516 84.158203 L 50.853516 92.472656 L 50.853516 100.78906 L 50.853516 109.10547 L 59.167969 109.10547 L 67.484375 109.10547 L 75.800781 109.10547 L 84.117188 109.10547 L 92.431641 109.10547 L 100.74805 109.10547 L 109.06445 109.10547 L 109.06445 100.78906 L 109.06445 92.472656 L 109.06445 84.158203 L 109.06445 75.841797 L 109.06445 67.525391 L 109.06445 59.210938 L 109.06445 50.894531 L 100.74805 50.894531 L 92.431641 50.894531 L 84.117188 50.894531 L 75.800781 50.894531 L 67.484375 50.894531 L 67.484375 59.210938 L 67.484375 67.525391 L 67.484375 75.841797 L 67.484375 84.158203 L 67.484375 92.472656 L 75.800781 92.472656 L 84.117188 92.472656 L 92.431641 92.472656 L 92.431641 84.158203 L 92.431641 75.841797 L 92.431641 67.525391 L 84.117188 67.525391 L 84.117188 75.841797 L 84.117188 84.158203 L 75.800781 84.158203 L 75.800781 75.841797 L 75.800781 67.525391 L 75.800781 59.210938 L 84.117188 59.210938 L 92.431641 59.210938 L 100.74805 59.210938 L 100.74805 67.525391 L 100.74805 75.841797 L 100.74805 84.158203 L 100.74805 92.472656 L 100.74805 100.78906 L 92.431641 100.78906 L 84.117188 100.78906 L 75.800781 100.78906 L 67.484375 100.78906 L 59.167969 100.78906 L 59.167969 92.472656 L 59.167969 84.158203 L 59.167969 75.841797 L 59.167969 67.525391 L 59.167969 59.210938 L 59.167969 50.894531 L 50.853516 50.894531 z "
       id="rect5837" />
  </g>
</svg>
